<svg width="20" height="20" viewBox="0 0 20 20" fill="none" xmlns="http://www.w3.org/2000/svg">
<g clip-path="url(#clip0)">
<path d="M0.585938 11.1719H1.26145L2.02531 15.7551C2.26176 17.1736 3.47711 18.2032 4.91516 18.2032H15.0458C16.4829 18.2032 17.7421 17.1507 17.9747 15.7551L18.7386 11.1719H19.4141C19.7377 11.1719 20 10.9096 20 10.586V8.24222C20 7.91862 19.7377 7.65628 19.4141 7.65628H15.0193L11.6743 2.0814C11.5079 1.8039 11.148 1.71386 10.8704 1.88042C10.5929 2.0469 10.503 2.40683 10.6695 2.68433L13.6527 7.65632H6.34738L9.33059 2.68433C9.49711 2.40683 9.40711 2.04694 9.12961 1.88042C8.85199 1.7139 8.49219 1.80394 8.3257 2.0814L4.98078 7.65628H0.585938C0.262344 7.65628 0 7.91862 0 8.24222V10.586C0 10.9096 0.262344 11.1719 0.585938 11.1719ZM16.8188 15.5625C16.6792 16.3998 15.917 17.0313 15.0458 17.0313H4.91516C4.0523 17.0313 3.32309 16.4136 3.18121 15.5625L2.44949 11.1719H17.5505L16.8188 15.5625ZM1.17188 8.82816H18.8281V10H1.17188V8.82816Z" fill="white"/>
<path d="M5.70518 15.3221C5.73182 15.6419 6.01233 15.8844 6.33776 15.8574C6.66022 15.8305 6.89987 15.5473 6.87299 15.2248L6.67768 12.8811C6.65081 12.5586 6.36838 12.3192 6.0451 12.3458C5.72264 12.3727 5.48299 12.6559 5.50987 12.9784L5.70518 15.3221Z" fill="white"/>
<path d="M13.6623 15.8574C13.9882 15.8844 14.2683 15.6415 14.2949 15.3221L14.4902 12.9784C14.5171 12.6559 14.2774 12.3727 13.955 12.3458C13.6322 12.3189 13.3492 12.5585 13.3224 12.8811L13.1271 15.2248C13.1002 15.5473 13.3398 15.8305 13.6623 15.8574Z" fill="white"/>
<path d="M10 15.8594C10.3236 15.8594 10.5859 15.5971 10.5859 15.2735V12.9297C10.5859 12.6061 10.3236 12.3438 10 12.3438C9.67641 12.3438 9.41406 12.6061 9.41406 12.9297V15.2735C9.41406 15.5971 9.67641 15.8594 10 15.8594Z" fill="white"/>
</g>
<defs>
<clipPath id="clip0">
<rect width="20" height="20" fill="white"/>
</clipPath>
</defs>
</svg>
