<svg width="25" height="25" viewBox="0 0 25 25" fill="none" xmlns="http://www.w3.org/2000/svg">
<g opacity="0.4">
<path d="M21.9934 5.72875H18.379V5.35743C18.379 3.69851 17.0326 2.35214 15.3737 2.35214H9.62561C7.96602 2.35214 6.62032 3.69851 6.62032 5.35743V5.72875H3.00529C1.3457 5.72875 0 7.07445 0 8.73404V19.6426C0 21.3015 1.3457 22.6479 3.00529 22.6479H21.9947C23.6543 22.6479 25 21.3015 25 19.6426V8.73404C24.9987 7.07378 23.653 5.72875 21.9934 5.72875ZM12.4987 19.5304C9.36782 19.5304 6.82201 16.9846 6.82201 13.8537C6.82201 10.7235 9.36782 8.17706 12.4987 8.17706C15.6295 8.17706 18.1753 10.7229 18.1753 13.8537C18.1753 16.9846 15.6288 19.5304 12.4987 19.5304ZM15.504 13.8537C15.504 15.5093 14.1549 16.859 12.4987 16.859C10.8424 16.859 9.49338 15.5093 9.49338 13.8537C9.49338 12.1975 10.8424 10.8484 12.4987 10.8484C14.1549 10.8484 15.504 12.1975 15.504 13.8537Z" fill="#212121"/>
</g>
</svg>
