<svg width="24" height="24" viewBox="0 0 24 24" fill="none" xmlns="http://www.w3.org/2000/svg">
<path d="M8.00532 13.3015C7.86802 13.4388 7.86802 13.6614 8.00532 13.7987L8.52052 14.3139C8.65782 14.4512 8.88043 14.4512 9.01773 14.3139C9.15503 14.1766 9.15503 13.954 9.01773 13.8167L8.50252 13.3015C8.36523 13.1641 8.14261 13.1642 8.00532 13.3015Z" fill="#FF651D"/>
<path d="M10.103 10.103C9.96568 10.2403 9.96568 10.4629 10.103 10.6002L10.6182 11.1154C10.7555 11.2527 10.9781 11.2527 11.1154 11.1154C11.2527 10.9781 11.2527 10.7555 11.1154 10.6182L10.6002 10.103C10.4629 9.96565 10.2403 9.96569 10.103 10.103Z" fill="#FF651D"/>
<path d="M14.381 8.95136C14.5183 8.81407 14.5183 8.59146 14.381 8.45416L13.8658 7.93891C13.7285 7.80161 13.5059 7.80161 13.3686 7.93891C13.2313 8.07621 13.2313 8.29882 13.3686 8.43611L13.8838 8.95136C14.0211 9.08866 14.2437 9.08871 14.381 8.95136Z" fill="#FF651D"/>
<path d="M21.5597 3.08049C21.2829 3.02006 20.5867 2.80345 20.102 2.10103C19.4822 1.17127 18.2724 0.5715 16.9567 0.807235C16.6785 0.856875 15.9539 0.92236 15.2363 0.459797C15.0097 0.308719 14.698 0.162516 14.3735 0.0729379C14.1864 0.0212817 13.9927 0.131157 13.941 0.318329C13.8894 0.5055 13.9993 0.699094 14.1864 0.75075C14.4614 0.826594 14.6453 0.92236 14.8542 1.05C15.5459 1.49588 16.3625 1.62905 17.1028 1.49583C18.0337 1.32534 18.9829 1.71825 19.5213 2.49755C19.9822 3.16547 20.688 3.61439 21.4308 3.77245C22.3532 3.97186 23.078 4.69664 23.2776 5.61956L23.2801 5.63119C23.3303 5.86092 23.2651 6.09333 23.1056 6.25284L21.9892 7.36917C21.7306 7.02745 21.4506 6.70116 21.1528 6.39431L21.9581 5.589C22.0954 5.4517 22.0954 5.22909 21.9581 5.0918C21.8209 4.9545 21.5982 4.9545 21.4609 5.0918L20.6467 5.90602C19.8001 5.14242 18.8484 4.53211 17.8255 4.08844L18.2904 2.96597C18.3647 2.78658 18.2796 2.58089 18.1002 2.50659C17.9207 2.4323 17.7151 2.51747 17.6408 2.69691L17.1712 3.83049C16.1312 3.46167 15.0285 3.25936 13.896 3.23681V1.95834C13.896 1.76419 13.7385 1.60678 13.5444 1.60678C13.3502 1.60678 13.1928 1.76423 13.1928 1.95834V3.24586C12.0703 3.29756 10.9799 3.5265 9.95432 3.91931L9.44803 2.697C9.37373 2.51761 9.16804 2.43239 8.98865 2.50673C8.80926 2.58103 8.72409 2.78667 8.79839 2.96611L9.30679 4.19358C8.31464 4.6537 7.39359 5.27339 6.57539 6.03938L5.62795 5.09194C5.49065 4.95464 5.26804 4.95464 5.13075 5.09194C4.99345 5.22924 4.99345 5.45184 5.13075 5.58914L6.07818 6.53658C5.3122 7.35478 4.69251 8.27588 4.23239 9.26799L3.00492 8.75958C2.82548 8.68524 2.61984 8.77045 2.54554 8.94984C2.47125 9.12924 2.55642 9.33492 2.73581 9.40922L3.95812 9.91552C3.56531 10.9411 3.33637 12.0315 3.28467 13.154H1.99715C1.803 13.154 1.64559 13.3114 1.64559 13.5056C1.64559 13.6997 1.803 13.8571 1.99715 13.8571H3.27562C3.29817 14.9897 3.50048 16.0924 3.86934 17.1324L2.73576 17.602C2.55637 17.6763 2.4712 17.8819 2.5455 18.0614C2.61956 18.2401 2.82487 18.3262 3.00487 18.2516L4.12734 17.7867C4.57101 18.8096 5.18132 19.7613 5.94492 20.6079L5.1307 21.4222C4.90856 21.6443 5.06892 22.0223 5.37928 22.0223C5.46923 22.0223 5.55923 21.988 5.62785 21.9194L6.43317 21.114C6.73996 21.4118 7.06626 21.6919 7.40803 21.9505L6.2917 23.0668C6.01903 23.3394 5.66995 23.2398 5.66348 23.24L5.65776 23.2388C4.7355 23.0393 4.01071 22.3146 3.81131 21.3924C3.75309 21.2642 3.69871 20.2904 2.39568 19.3852C1.66111 18.8767 1.31315 17.9526 1.52986 17.0858C1.66443 16.5475 1.70095 15.7224 1.11032 14.8494C0.589355 14.0824 0.553308 13.0263 1.08651 12.1994C1.0972 12.1718 1.79854 11.2507 1.53351 9.94172C1.35028 9.02555 1.7279 8.0895 2.49567 7.55691C2.51517 7.53666 3.52354 6.94078 3.81121 5.61914C4.01076 4.69697 4.73554 3.97219 5.65753 3.77264L5.6639 3.77123C6.45056 3.60094 7.13011 3.12792 7.56731 2.49774C8.10182 1.72416 9.04546 1.32994 9.97148 1.4933C9.98892 1.49288 11.1371 1.76166 12.2363 1.04892C12.4628 0.902766 12.7108 0.796219 12.9733 0.732282C13.162 0.686344 13.2777 0.496172 13.2317 0.307547C13.1858 0.118875 12.9956 0.00318791 12.807 0.0491254C12.4455 0.13711 12.141 0.275344 11.8378 0.468704C11.6017 0.619454 10.9626 0.954235 10.1297 0.807235L10.0937 0.80086C8.96437 0.601547 7.73114 1.03472 6.97725 2.11392C6.39126 2.95374 5.52745 3.07486 5.50889 3.08531C4.3725 3.33127 3.39787 4.21566 3.11929 5.48991C3.05901 5.76577 2.84292 6.46013 2.14031 6.94748L2.09475 6.97908C1.14309 7.63922 0.597699 8.81803 0.847121 10.0975C1.04034 11.0876 0.498746 11.8067 0.495558 11.8182C-0.197114 12.8924 -0.142645 14.2522 0.527855 15.2433C0.885277 15.7717 0.992855 16.3342 0.847636 16.9153C0.561324 18.0605 1.01493 19.3135 2.04979 20.0013C2.6242 20.3829 2.98514 20.8988 3.12262 21.5346L3.12398 21.5409C3.38156 22.7322 4.31779 23.6684 5.5095 23.926C5.51896 23.9275 5.64914 23.9612 5.8237 23.9612C6.18468 23.9612 6.531 23.8217 6.78881 23.5639L11.5203 18.8325C11.6576 18.6952 11.6576 18.4725 11.5203 18.3353C11.3835 18.1985 11.1609 18.1974 11.0231 18.3353L7.90996 21.4484C5.51071 19.6701 3.97617 16.8404 3.97617 13.6443C3.97617 8.32036 8.28089 3.93741 13.6831 3.93741C16.8056 3.93741 19.6637 5.41092 21.4872 7.8712L12.0175 17.3408C11.8802 17.478 11.8802 17.7007 12.0175 17.838C12.1548 17.9753 12.3774 17.9753 12.5147 17.838C13.4415 16.9112 23.1512 7.20155 23.6027 6.75C23.9324 6.42028 24.0687 5.94586 23.9671 5.48119L23.9647 5.47031C23.7078 4.28208 22.7758 3.34767 21.5889 3.08719C21.5788 3.08466 21.5692 3.08255 21.5597 3.08049ZM2.42081 19.4042C2.43037 19.4119 2.43703 19.4186 2.44167 19.4231C2.43496 19.4165 2.42803 19.4102 2.42081 19.4042Z" fill="#FF651D"/>
</svg>
