<svg width="24" height="24" viewBox="0 0 24 24" fill="none" xmlns="http://www.w3.org/2000/svg">
<path d="M12 24C8.79469 24 5.78123 22.7518 3.51469 20.4853C1.24823 18.2188 0 15.2053 0 12C0 8.79469 1.24823 5.78123 3.51469 3.51469C5.78123 1.24823 8.79469 0 12 0C15.2053 0 18.2188 1.24823 20.4853 3.51469C22.7518 5.78123 24 8.79469 24 12C24 15.2053 22.7518 18.2188 20.4853 20.4853C18.2188 22.7518 15.2053 24 12 24ZM12 1.40625C9.1703 1.40625 6.51 2.50819 4.50909 4.50909C2.50819 6.51 1.40625 9.1703 1.40625 12C1.40625 14.8297 2.50819 17.49 4.50909 19.4909C6.51 21.4918 9.1703 22.5938 12 22.5938C14.8297 22.5938 17.49 21.4918 19.4909 19.4909C21.4918 17.49 22.5938 14.8297 22.5938 12C22.5938 9.1703 21.4918 6.51 19.4909 4.50909C17.49 2.50819 14.8297 1.40625 12 1.40625Z" fill="#FF651D"/>
<path d="M11.2969 2.81396H12.7031V4.69047H11.2969V2.81396Z" fill="#FF651D"/>
<path d="M16.668 6.33545L17.9947 5.00877L18.9889 6.00298L17.6622 7.32967L16.668 6.33545Z" fill="#FF651D"/>
<path d="M19.3086 11.2969H21.1851V12.7031H19.3086V11.2969Z" fill="#FF651D"/>
<path d="M16.668 17.6658L17.6622 16.6716L18.9889 17.9982L17.9947 18.9925L16.668 17.6658Z" fill="#FF651D"/>
<path d="M11.2969 19.3091H12.7031V21.1856H11.2969V19.3091Z" fill="#FF651D"/>
<path d="M5.00391 17.9973L6.33059 16.6706L7.32481 17.6648L5.99813 18.9915L5.00391 17.9973Z" fill="#FF651D"/>
<path d="M2.8125 11.2969H4.689V12.7031H2.8125V11.2969Z" fill="#FF651D"/>
<path d="M5.00781 6.00195L6.00203 5.00773L7.32872 6.33442L6.3345 7.32864L5.00781 6.00195Z" fill="#FF651D"/>
<path d="M16.9637 12.7032H11.2969V7.03638H12.7031V11.2969H16.9637V12.7032Z" fill="#FF651D"/>
</svg>
