<svg width="25" height="25" viewBox="0 0 25 25" fill="none" xmlns="http://www.w3.org/2000/svg">
<g clip-path="url(#clip0)">
<path d="M0.982428 17.5078C1.0778 17.7092 1.31488 17.7998 1.52049 17.7136C1.72591 17.6272 1.827 17.3945 1.74994 17.1852C1.45335 16.4789 1.22561 15.7457 1.06959 14.9956C0.753355 13.4459 0.753355 11.8481 1.06959 10.2982C1.68681 7.30858 3.45073 4.67987 5.98292 2.97527C7.24177 2.11945 8.65798 1.52187 10.1495 1.21689C11.6996 0.902177 13.2972 0.902177 14.8475 1.21689C15.5967 1.37291 16.3295 1.60046 17.0354 1.89648C17.2508 1.98937 17.4579 2.08779 17.6603 2.18811L16.7299 3.67565C16.6524 3.79849 16.6444 3.95279 16.7087 4.08287C16.7732 4.21314 16.9008 4.30031 17.0454 4.31309L21.6287 4.72985H21.6667C21.8204 4.72985 21.9615 4.64516 22.034 4.50974C22.1065 4.37413 22.0985 4.20971 22.0132 4.08192L19.5133 0.331879C19.4334 0.215722 19.3014 0.146294 19.1604 0.146485C19.0189 0.148583 18.8882 0.222397 18.8133 0.34237L18.1034 1.47972C17.8646 1.35899 17.6191 1.24073 17.3612 1.12934C16.6051 0.811959 15.8203 0.568009 15.0175 0.400734C13.356 0.0631336 11.6436 0.0631336 9.98206 0.400734C7.58815 0.898553 5.39184 2.08473 3.66244 3.81317C2.52452 4.95529 1.6149 6.30398 0.982428 7.78695C0.665426 8.54264 0.421667 9.32675 0.254202 10.129C-0.084734 11.7903 -0.084734 13.5031 0.254202 15.1644C0.421476 15.967 0.665426 16.7517 0.982428 17.5078ZM19.178 1.33114L20.8366 3.81947L17.7949 3.54271L18.6174 2.22988V2.2274L19.178 1.33114Z" fill="#FF651D"/>
<path d="M24.0174 7.57694C23.9266 7.3677 23.6842 7.27023 23.4738 7.35854C23.2636 7.44686 23.1633 7.68794 23.2491 7.89947C23.5455 8.60576 23.7734 9.33895 23.9295 10.0889C24.2455 11.6388 24.2455 13.2366 23.9295 14.7865C23.3123 17.7759 21.5489 20.4046 19.0169 22.1094C17.758 22.9652 16.3418 23.5628 14.8503 23.8678C13.3002 24.1825 11.7026 24.1825 10.1523 23.8678C9.4031 23.7116 8.67029 23.484 7.96438 23.1882C7.74904 23.0953 7.54191 22.9969 7.33954 22.8966L8.26937 21.4086C8.34624 21.2858 8.35367 21.1321 8.2894 21.0026C8.22512 20.8729 8.09809 20.7859 7.95408 20.7727L3.37073 20.356C3.21089 20.3415 3.05678 20.4199 2.97457 20.558C2.89255 20.6959 2.89694 20.8687 2.9862 21.0024L5.48617 24.7522C5.56341 24.8684 5.69369 24.9382 5.83311 24.9382H5.83941C5.98093 24.9361 6.11159 24.8623 6.18654 24.7423L6.89493 23.6057C7.13354 23.7265 7.37902 23.8449 7.63689 23.9561C8.39316 24.2731 9.17803 24.5169 9.98064 24.6839C11.6419 25.0231 13.3547 25.0231 15.016 24.6839C17.4105 24.1863 19.6076 23.0003 21.3374 21.2715C22.4753 20.1294 23.3849 18.7807 24.0174 17.2977C24.3344 16.5415 24.5783 15.7566 24.7456 14.954C25.0846 13.2927 25.0846 11.5799 24.7456 9.91859C24.5782 9.11655 24.3342 8.33244 24.0174 7.57694ZM5.82186 23.7535L4.16323 21.2652L7.20488 21.542L6.38243 22.8548V22.8573L5.82186 23.7535Z" fill="#FF651D"/>
<path d="M20.7056 11.2415C20.7056 11.2268 20.7089 11.2135 20.7056 11.1997C20.7024 11.186 20.6965 11.1797 20.6936 11.169C20.5267 10.2379 20.201 9.34217 19.7306 8.52144C19.727 8.50733 19.7224 8.4934 19.7169 8.47986C19.7064 8.46498 19.6946 8.45106 19.682 8.43809C19.2065 7.62766 18.5984 6.90287 17.8828 6.29404C17.8746 6.2826 17.8658 6.27153 17.8564 6.26104C17.849 6.25475 17.8398 6.2536 17.8318 6.24769C17.1044 5.64306 16.2793 5.1668 15.392 4.8393C15.3784 4.83015 15.3645 4.82157 15.3502 4.81394C15.3347 4.81069 15.3193 4.80841 15.3036 4.80688C13.4932 4.14636 11.5076 4.14636 9.69737 4.80688C9.68154 4.80821 9.66571 4.8105 9.65026 4.81394C9.63577 4.82157 9.62203 4.83015 9.60849 4.8393C8.72119 5.1668 7.89607 5.64306 7.16861 6.24769C7.1606 6.2536 7.15106 6.25475 7.14401 6.26104C7.13466 6.27153 7.12589 6.2826 7.11769 6.29404C6.40224 6.90287 5.79418 7.62766 5.31906 8.43809C5.30609 8.45106 5.29426 8.46498 5.28358 8.47986C5.27805 8.4934 5.27347 8.50733 5.26985 8.52144C4.7993 9.34236 4.47334 10.2381 4.30606 11.1694C4.30149 11.1795 4.29729 11.19 4.29405 11.2007C4.29138 11.2148 4.29614 11.2282 4.29405 11.2423C4.12334 12.1712 4.12334 13.1233 4.29405 14.0524C4.29405 14.0669 4.29061 14.0802 4.29405 14.094C4.29748 14.1058 4.30168 14.1172 4.30644 14.1285C4.47429 15.0581 4.80007 15.9519 5.26985 16.7715C5.27347 16.7856 5.27805 16.7995 5.28358 16.8131C5.29827 16.8371 5.31543 16.8594 5.33489 16.8798C5.80772 17.6794 6.41025 18.395 7.11769 18.9974C7.12589 19.0088 7.13466 19.0197 7.14401 19.0302C7.15183 19.0368 7.16232 19.0393 7.17071 19.0456C7.8976 19.6493 8.72215 20.1248 9.60849 20.4519C9.62203 20.4611 9.63577 20.4697 9.65026 20.4773C9.66781 20.4815 9.68555 20.4847 9.70348 20.4868C11.5101 21.1441 13.4903 21.1441 15.297 20.4868C15.3149 20.4847 15.3326 20.4815 15.3502 20.4773C15.3645 20.4697 15.3784 20.4611 15.392 20.4519C16.2783 20.1246 17.1027 19.6491 17.8297 19.0456C17.8381 19.0393 17.8486 19.0368 17.8564 19.0302C17.8658 19.0197 17.8746 19.0088 17.8828 18.9974C18.5906 18.3952 19.1935 17.6796 19.6669 16.8798C19.6858 16.8594 19.7026 16.8371 19.7169 16.8131C19.7224 16.7995 19.727 16.7856 19.7306 16.7715C20.2006 15.9515 20.5263 15.057 20.694 14.127C20.6988 14.1155 20.703 14.1041 20.7064 14.0922C20.7089 14.0781 20.7043 14.0648 20.7064 14.0507C20.8771 13.1218 20.8771 12.1694 20.7064 11.2406L20.7056 11.2415ZM17.6253 18.1068L17.372 17.8049C17.2774 17.6868 17.1263 17.6292 16.9773 17.6542C16.8282 17.6794 16.7044 17.7833 16.6539 17.926C16.6033 18.0685 16.634 18.2272 16.734 18.3407L16.9869 18.6418C16.5127 19.0008 15.9973 19.302 15.4518 19.5391L15.3139 19.1603C15.2312 18.9503 14.9962 18.8442 14.7839 18.9215C14.5718 18.9985 14.4596 19.2306 14.531 19.4448L14.6689 19.824C14.099 19.9938 13.5107 20.095 12.917 20.1252V19.7298C12.917 19.4998 12.7303 19.3132 12.5002 19.3132C12.2702 19.3132 12.0835 19.4998 12.0835 19.7298V20.1252C11.4895 20.095 10.9011 19.9938 10.331 19.824L10.4689 19.4448C10.5246 19.3039 10.4992 19.1439 10.4027 19.0269C10.3064 18.91 10.1542 18.8547 10.0052 18.8824C9.85626 18.91 9.734 19.0164 9.68612 19.1603L9.54822 19.5391C9.00272 19.302 8.48735 19.0008 8.01319 18.6418L8.2661 18.3407C8.36605 18.2272 8.39675 18.0685 8.34621 17.926C8.29566 17.7833 8.17188 17.6794 8.02272 17.6542C7.87357 17.6292 7.7227 17.6868 7.62809 17.8049L7.3748 18.1068C6.94087 17.7006 6.55616 17.2445 6.22905 16.7482L6.5739 16.5489C6.70398 16.4751 6.78428 16.3372 6.78466 16.1877C6.78504 16.0381 6.70513 15.8998 6.57562 15.8254C6.44592 15.7511 6.28627 15.7516 6.15734 15.8274L5.81401 16.0261C5.5447 15.4953 5.34004 14.9341 5.20442 14.3549L5.59696 14.2856C5.82355 14.2456 5.9748 14.0293 5.93475 13.8027C5.89469 13.5761 5.67859 13.4247 5.45181 13.4647L5.05775 13.5343C4.98107 12.944 4.98107 12.3464 5.05775 11.7561L5.45181 11.8255C5.47603 11.8297 5.50044 11.8318 5.52486 11.8318C5.74096 11.832 5.9214 11.6667 5.94009 11.4513C5.95878 11.236 5.80982 11.042 5.59696 11.0048L5.20442 10.9381C5.34023 10.3592 5.54489 9.79841 5.81401 9.26817L6.15734 9.46691C6.28627 9.54245 6.44592 9.54321 6.57562 9.46882C6.70513 9.39424 6.78504 9.25596 6.78466 9.10643C6.78428 8.95708 6.70398 8.81918 6.5739 8.74517L6.22905 8.54605C6.55635 8.04995 6.94107 7.59409 7.37518 7.1882L7.62847 7.49014C7.72308 7.6082 7.87414 7.6658 8.0231 7.64063C8.17226 7.61564 8.29605 7.5115 8.34659 7.36902C8.39714 7.22654 8.36643 7.06785 8.26648 6.95436L8.01357 6.65319C8.48773 6.29423 9.0031 5.99306 9.5486 5.75598L9.6865 6.13478C9.73438 6.27859 9.85664 6.38502 10.0056 6.41268C10.1546 6.44033 10.3068 6.38502 10.4033 6.2681C10.4996 6.15118 10.525 5.99115 10.4695 5.8502L10.3314 5.47102C10.9013 5.3005 11.4895 5.19865 12.0835 5.16775V5.56314C12.0835 5.79317 12.2702 5.97971 12.5002 5.97971C12.7303 5.97971 12.917 5.79317 12.917 5.56314V5.16775C13.5109 5.19789 14.0993 5.29898 14.6695 5.46892L14.5316 5.8481C14.4759 5.98905 14.5012 6.14908 14.5977 6.266C14.6941 6.38292 14.8463 6.43824 14.9952 6.41058C15.1442 6.38292 15.2665 6.27649 15.3143 6.13268L15.4522 5.75388C15.9977 5.99096 16.5131 6.29213 16.9873 6.6511L16.7343 6.95227C16.6344 7.06575 16.6037 7.22444 16.6542 7.36692C16.7048 7.50959 16.8286 7.61354 16.9777 7.63872C17.1267 7.66371 17.2778 7.6061 17.3724 7.48804L17.6253 7.1882C18.0592 7.59447 18.4439 8.05052 18.771 8.54681L18.426 8.74613C18.2961 8.81994 18.2156 8.95784 18.2154 9.10738C18.215 9.25692 18.2947 9.39501 18.4244 9.46958C18.5541 9.54397 18.7138 9.5434 18.8427 9.46768L19.1861 9.26893C19.4552 9.79898 19.66 10.3594 19.796 10.9381L19.4035 11.0073C19.1906 11.0447 19.0417 11.2385 19.0604 11.4538C19.0791 11.6693 19.2595 11.8345 19.4756 11.8343C19.5 11.8343 19.5244 11.8322 19.5486 11.8282L19.9427 11.7586C20.0194 12.3489 20.0194 12.9465 19.9427 13.5368L19.5486 13.4674C19.402 13.4414 19.2526 13.4956 19.1569 13.6097C19.0611 13.7237 19.0335 13.8801 19.0844 14.0201C19.1353 14.1601 19.257 14.2622 19.4035 14.2881L19.796 14.3574C19.6602 14.9362 19.4556 15.497 19.1864 16.0272L18.8431 15.8285C18.7142 15.753 18.5545 15.7522 18.4248 15.8268C18.2953 15.9012 18.2154 16.0394 18.2158 16.189C18.2162 16.3385 18.2965 16.4762 18.4265 16.5502L18.7714 16.7494C18.4441 17.2453 18.0594 17.7009 17.6253 18.1068Z" fill="#FF651D"/>
<path d="M16.667 12.2297H13.6738C13.5477 11.8769 13.27 11.5992 12.9171 11.4731V7.2298C12.9171 6.99977 12.7304 6.81323 12.5004 6.81323C12.2704 6.81323 12.0836 6.99977 12.0836 7.2298V11.4731C11.5353 11.6659 11.1927 12.2122 11.2579 12.7899C11.3234 13.3677 11.7792 13.8235 12.357 13.8889C12.9347 13.9542 13.481 13.6116 13.6738 13.0632H16.667C16.8972 13.0632 17.0838 12.8765 17.0838 12.6465C17.0838 12.4165 16.8972 12.2297 16.667 12.2297ZM12.5004 13.0632C12.2704 13.0632 12.0836 12.8765 12.0836 12.6465C12.0836 12.4165 12.2704 12.2297 12.5004 12.2297C12.7304 12.2297 12.9171 12.4165 12.9171 12.6465C12.9171 12.8765 12.7304 13.0632 12.5004 13.0632Z" fill="#FF651D"/>
</g>
<defs>
<clipPath id="clip0">
<rect width="25" height="25" fill="white"/>
</clipPath>
</defs>
</svg>
