<svg width="25" height="25" viewBox="0 0 25 25" fill="none" xmlns="http://www.w3.org/2000/svg">
<path d="M23.2244 11.4863H20.7333H20.4001C19.6637 11.4863 19.0664 12.0836 19.0664 12.8225V12.9673C19.0664 13.707 19.6637 14.3046 20.4011 14.3046H22.8947H23.2244C23.9622 14.3046 24.5613 13.7045 24.5613 12.9673L24.5598 12.8207C24.5613 12.0836 23.9622 11.4863 23.2244 11.4863Z" fill="#212121"/>
<path d="M23.2247 8.15328H22.6364V1.68903C22.6364 0.759954 21.8764 0 20.947 0H9.80135C8.87228 0 8.11233 0.760311 8.11233 1.68903V6.32689C5.86422 7.59776 3.54546 8.92536 3.54047 8.92857C2.28173 9.44662 0.4375 11.1182 0.4375 15.0653C0.4375 15.4178 0.460691 15.7432 0.493159 16.0575C0.503505 16.1496 0.514923 16.238 0.52741 16.3269C0.559878 16.5577 0.600551 16.7786 0.649074 16.9884C0.666557 17.0633 0.680115 17.1414 0.699024 17.2131C0.764316 17.4558 0.839955 17.6834 0.92487 17.9C0.967684 18.0073 1.01407 18.1051 1.06081 18.2057C1.11076 18.3117 1.16106 18.4159 1.21494 18.5133C1.27737 18.6307 1.33981 18.7438 1.40831 18.8511C1.42473 18.8761 1.44257 18.899 1.45934 18.9243C3.08485 21.3815 6.08364 21.3925 6.08364 21.3925H8.11233V23.3117C8.11233 24.2397 8.87228 24.9996 9.80135 24.9996H20.9466C21.8761 24.9996 22.636 24.2393 22.636 23.3117V20.9708H22.8936V20.9694H23.2222C23.9611 20.9694 24.5602 20.3718 24.5587 19.6329L24.5602 19.4873C24.5587 18.7495 23.9611 18.1536 23.2233 18.1536H22.8936H20.7318H20.3986C19.6608 18.1536 19.0649 18.7509 19.0649 19.4884V19.6364C19.0649 20.3721 19.6622 20.9719 20.3997 20.9719H21.4608V21.876H9.28722V9.74847C9.89875 9.36064 10.465 8.98744 10.7879 8.73733C12.4237 7.47217 13.9765 6.46461 14.1866 5.55088C14.4603 4.36528 13.5501 3.36628 11.9713 4.18653C11.474 4.44484 10.4532 5.01106 9.28722 5.66576V2.67661L21.4608 2.67839V8.15256H20.7318V8.15399H20.4004C19.6622 8.15399 19.0632 8.75125 19.0632 9.49087V9.63572C19.0632 10.375 19.6622 10.9708 20.3986 10.9708H20.7301H22.8918H23.224C23.9611 10.9708 24.5587 10.3736 24.5587 9.63572V9.48694C24.5602 8.75232 23.9629 8.15328 23.2247 8.15328ZM15.3726 22.469C15.8407 22.469 16.2181 22.8468 16.2181 23.3138C16.2181 23.7819 15.8403 24.1583 15.3726 24.1583C14.9062 24.1583 14.5295 23.7809 14.5295 23.3138C14.5302 22.8482 14.908 22.469 15.3726 22.469ZM17.1576 1.62623H13.5911C13.4791 1.62623 13.3863 1.53525 13.3863 1.42286C13.3863 1.30869 13.4791 1.21771 13.5911 1.21771H17.1576C17.2696 1.21771 17.3609 1.30833 17.3609 1.42286C17.3609 1.53489 17.2696 1.62623 17.1576 1.62623Z" fill="#212121"/>
<path d="M23.2223 14.8203H22.8926H20.398C19.6615 14.8203 19.0625 15.4194 19.0625 16.1568V16.3031C19.0625 17.0413 19.6601 17.6386 20.398 17.6386H20.7294H22.8912H23.2216C23.9605 17.6386 24.5563 17.0413 24.5581 16.3031V16.1568C24.5577 15.4194 23.9619 14.8203 23.2223 14.8203Z" fill="#212121"/>
</svg>
