<svg width="18" height="18" viewBox="0 0 18 18" fill="none" xmlns="http://www.w3.org/2000/svg">
<path d="M0 0V0.527344C0 1.43712 0.17652 2.3246 0.524707 3.16515C0.872859 4.00567 1.37559 4.75808 2.01892 5.40137L5.76587 9.14829L7.23459 18H10.7654L12.2342 9.14832L15.9811 5.40141C16.6244 4.75808 17.1271 4.0057 17.4753 3.16519C17.8235 2.3246 18 1.43712 18 0.527344V0L0 0ZM9.87131 16.9453H8.12872L6.88043 9.42244H11.1196L9.87131 16.9453ZM15.2353 4.65564L11.5232 8.36775H6.4768L2.76469 4.65564C1.78724 3.67815 1.19904 2.41509 1.07803 1.05469H16.922C16.801 2.41509 16.2128 3.67815 15.2353 4.65564Z" fill="white"/>
</svg>
