<svg width="25" height="25" viewBox="0 0 25 25" fill="none" xmlns="http://www.w3.org/2000/svg">
<path d="M22.2656 14.8438H21.7008L19.8625 11.9023C19.8274 11.8462 19.7786 11.7998 19.7206 11.7677C19.6627 11.7356 19.5975 11.7187 19.5312 11.7188H17.1875C17.1178 11.7187 17.0493 11.7374 16.9892 11.7728C16.9292 11.8082 16.8796 11.859 16.8458 11.92C16.812 11.981 16.7952 12.0499 16.797 12.1196C16.7988 12.1893 16.8193 12.2573 16.8563 12.3164L18.4375 14.8438H1.17188C1.06827 14.8438 0.968918 14.8849 0.895661 14.9582C0.822405 15.0314 0.78125 15.1308 0.78125 15.2344V18.3594C0.78125 18.6702 0.904715 18.9682 1.12448 19.188C1.34425 19.4078 1.64232 19.5313 1.95312 19.5313H3.7832C3.58387 19.9481 3.4934 20.4086 3.52024 20.8698C3.54709 21.3311 3.69037 21.778 3.93671 22.1689C4.18306 22.5598 4.52443 22.8818 4.92896 23.105C5.33348 23.3283 5.78797 23.4453 6.25 23.4453C6.71203 23.4453 7.16652 23.3283 7.57105 23.105C7.97557 22.8818 8.31694 22.5598 8.56329 22.1689C8.80963 21.778 8.95291 21.3311 8.97976 20.8698C9.0066 20.4086 8.91613 19.9481 8.7168 19.5313H17.0645C16.8651 19.9481 16.7746 20.4086 16.8015 20.8698C16.8283 21.3311 16.9716 21.778 17.218 22.1689C17.4643 22.5598 17.8057 22.8818 18.2102 23.105C18.6147 23.3283 19.0692 23.4453 19.5312 23.4453C19.9933 23.4453 20.4478 23.3283 20.8523 23.105C21.2568 22.8818 21.5982 22.5598 21.8445 22.1689C22.0909 21.778 22.2342 21.3311 22.261 20.8698C22.2878 20.4086 22.1974 19.9481 21.998 19.5313H23.0469C23.3577 19.5313 23.6557 19.4078 23.8755 19.188C24.0953 18.9682 24.2188 18.6702 24.2188 18.3594V16.7969C24.2181 16.2791 24.0122 15.7826 23.646 15.4165C23.2799 15.0503 22.7834 14.8444 22.2656 14.8438ZM1.5625 15.625H3.74453L2.96328 16.4063H1.5625V15.625ZM6.25 22.6563C5.86371 22.6563 5.48609 22.5417 5.1649 22.3271C4.84371 22.1125 4.59337 21.8074 4.44555 21.4506C4.29772 21.0937 4.25904 20.701 4.3344 20.3221C4.40977 19.9432 4.59578 19.5952 4.86893 19.3221C5.14208 19.0489 5.4901 18.8629 5.86896 18.7875C6.24783 18.7122 6.64054 18.7508 6.99743 18.8987C7.35432 19.0465 7.65935 19.2968 7.87396 19.618C8.08858 19.9392 8.20312 20.3168 8.20312 20.7031C8.2025 21.2209 7.99653 21.7174 7.63038 22.0835C7.26424 22.4497 6.76781 22.6556 6.25 22.6563ZM8.15977 18.75C7.65018 18.2493 6.96438 17.9688 6.25 17.9688C5.53562 17.9688 4.84982 18.2493 4.34023 18.75H1.95312C1.84952 18.75 1.75017 18.7088 1.67691 18.6356C1.60366 18.5623 1.5625 18.463 1.5625 18.3594V17.1875H3.125C3.22859 17.1875 3.32793 17.1463 3.40117 17.073L4.84922 15.625H9.76562V16.0156C9.76576 16.5404 9.88357 17.0584 10.1104 17.5316C10.3372 18.0049 10.6672 18.4212 11.0762 18.75H8.15977ZM16.7969 18.75H13.2812C12.5563 18.7491 11.8614 18.4607 11.3488 17.9481C10.8362 17.4355 10.5478 16.7405 10.5469 16.0156V15.625H16.7969V18.75ZM21.875 15.625H22.2656C22.5071 15.626 22.7424 15.7016 22.9393 15.8414C23.1362 15.9813 23.2851 16.1786 23.3656 16.4063H21.875V15.625ZM17.8926 12.5H19.3145L20.7793 14.8438H19.3574L17.8926 12.5ZM19.5312 22.6563C19.145 22.6563 18.7673 22.5417 18.4462 22.3271C18.125 22.1125 17.8746 21.8074 17.7268 21.4506C17.579 21.0937 17.5403 20.701 17.6157 20.3221C17.691 19.9432 17.877 19.5952 18.1502 19.3221C18.4233 19.0489 18.7713 18.8629 19.1502 18.7875C19.5291 18.7122 19.9218 18.7508 20.2787 18.8987C20.6356 19.0465 20.9406 19.2968 21.1552 19.618C21.3698 19.9392 21.4844 20.3168 21.4844 20.7031C21.4838 21.2209 21.2778 21.7174 20.9116 22.0835C20.5455 22.4497 20.0491 22.6556 19.5312 22.6563ZM23.4375 18.3594C23.4375 18.463 23.3963 18.5623 23.3231 18.6356C23.2498 18.7088 23.1505 18.75 23.0469 18.75H21.441C20.9314 18.2493 20.2456 17.9688 19.5312 17.9688C18.8169 17.9688 18.1311 18.2493 17.6215 18.75H17.5781V15.625H21.0938V16.7969C21.0938 16.9005 21.1349 16.9998 21.2082 17.0731C21.2814 17.1463 21.3808 17.1875 21.4844 17.1875H23.4375V18.3594Z" fill="#FF651D"/>
<path d="M13.2812 16.4062H11.7188V17.1875H13.2812V16.4062Z" fill="#FF651D"/>
<path d="M19.5313 19.5313C19.2995 19.5313 19.0729 19.6 18.8802 19.7287C18.6875 19.8575 18.5373 20.0405 18.4486 20.2547C18.3599 20.4688 18.3367 20.7044 18.3819 20.9317C18.4271 21.1591 18.5387 21.3679 18.7026 21.5318C18.8665 21.6957 19.0753 21.8073 19.3026 21.8525C19.53 21.8977 19.7656 21.8745 19.9797 21.7858C20.1938 21.6971 20.3769 21.5469 20.5056 21.3542C20.6344 21.1615 20.7031 20.9349 20.7031 20.7031C20.7031 20.3923 20.5797 20.0943 20.3599 19.8745C20.1401 19.6547 19.8421 19.5313 19.5313 19.5313ZM19.5313 21.0938C19.454 21.0938 19.3785 21.0708 19.3142 21.0279C19.25 20.985 19.1999 20.924 19.1704 20.8526C19.1408 20.7812 19.1331 20.7027 19.1481 20.6269C19.1632 20.5511 19.2004 20.4815 19.255 20.4269C19.3097 20.3723 19.3793 20.3351 19.455 20.32C19.5308 20.3049 19.6094 20.3127 19.6807 20.3422C19.7521 20.3718 19.8131 20.4219 19.856 20.4861C19.899 20.5503 19.9219 20.6259 19.9219 20.7031C19.9219 20.8067 19.8807 20.9061 19.8075 20.9793C19.7342 21.0526 19.6349 21.0938 19.5313 21.0938Z" fill="#FF651D"/>
<path d="M6.25 19.5313C6.01822 19.5313 5.79165 19.6 5.59894 19.7287C5.40623 19.8575 5.25603 20.0405 5.16733 20.2547C5.07863 20.4688 5.05543 20.7044 5.10064 20.9317C5.14586 21.1591 5.25747 21.3679 5.42136 21.5318C5.58525 21.6957 5.79406 21.8073 6.02138 21.8525C6.2487 21.8977 6.48432 21.8745 6.69846 21.7858C6.91259 21.6971 7.09561 21.5469 7.22438 21.3542C7.35314 21.1615 7.42187 20.9349 7.42187 20.7031C7.42187 20.3923 7.29841 20.0943 7.07864 19.8745C6.85887 19.6547 6.5608 19.5313 6.25 19.5313ZM6.25 21.0938C6.17274 21.0938 6.09722 21.0708 6.03298 21.0279C5.96874 20.985 5.91867 20.924 5.88911 20.8526C5.85954 20.7812 5.85181 20.7027 5.86688 20.6269C5.88195 20.5511 5.91916 20.4815 5.97379 20.4269C6.02842 20.3723 6.09802 20.3351 6.17379 20.32C6.24957 20.3049 6.32811 20.3127 6.39948 20.3422C6.47086 20.3718 6.53187 20.4219 6.57479 20.4861C6.61771 20.5503 6.64062 20.6259 6.64062 20.7031C6.64062 20.8067 6.59947 20.9061 6.52621 20.9793C6.45296 21.0526 6.3536 21.0938 6.25 21.0938Z" fill="#FF651D"/>
<path d="M1.95456 14.0625H15.2358C15.5119 14.063 15.7793 13.9658 15.9906 13.7881C16.2019 13.6104 16.3435 13.3636 16.3903 13.0915C16.437 12.8194 16.386 12.5395 16.2462 12.3014C16.1064 12.0633 15.8869 11.8824 15.6264 11.7906V11.7188C15.6236 10.0587 15.0339 8.45314 13.9617 7.18583C12.8895 5.91853 11.4037 5.07111 9.76706 4.79336V3.90625H11.3296C11.4332 3.90625 11.5325 3.86509 11.6058 3.79184C11.679 3.71858 11.7202 3.61923 11.7202 3.51562V1.95312C11.7202 1.84952 11.679 1.75017 11.6058 1.67691C11.5325 1.60366 11.4332 1.5625 11.3296 1.5625H5.86081C5.75721 1.5625 5.65785 1.60366 5.5846 1.67691C5.51134 1.75017 5.47019 1.84952 5.47019 1.95312V3.51562C5.47019 3.61923 5.51134 3.71858 5.5846 3.79184C5.65785 3.86509 5.75721 3.90625 5.86081 3.90625H7.42331V4.79336C5.78667 5.07111 4.30092 5.91853 3.22869 7.18583C2.15646 8.45314 1.5668 10.0587 1.56394 11.7188V11.7906C1.30351 11.8824 1.08396 12.0633 0.944156 12.3014C0.804353 12.5395 0.753327 12.8194 0.800113 13.0915C0.8469 13.3636 0.988481 13.6104 1.19978 13.7881C1.41108 13.9658 1.67846 14.063 1.95456 14.0625ZM6.25144 3.125V2.34375H10.9389V3.125H6.25144ZM8.98581 3.90625V4.70742C8.85573 4.7 8.72722 4.6875 8.59519 4.6875C8.46315 4.6875 8.33464 4.7 8.20456 4.70742V3.90625H8.98581ZM8.59519 5.46875C10.2522 5.47071 11.8408 6.12983 13.0124 7.3015C14.1841 8.47318 14.8432 10.0617 14.8452 11.7188H2.34519C2.34715 10.0617 3.00626 8.47318 4.17794 7.3015C5.34961 6.12983 6.93819 5.47071 8.59519 5.46875ZM1.95456 12.5H15.2358C15.3394 12.5 15.4388 12.5412 15.512 12.6144C15.5853 12.6877 15.6264 12.787 15.6264 12.8906C15.6264 12.9942 15.5853 13.0936 15.512 13.1668C15.4388 13.2401 15.3394 13.2812 15.2358 13.2812H1.95456C1.85096 13.2812 1.7516 13.2401 1.67835 13.1668C1.60509 13.0936 1.56394 12.9942 1.56394 12.8906C1.56394 12.787 1.60509 12.6877 1.67835 12.6144C1.7516 12.5412 1.85096 12.5 1.95456 12.5Z" fill="#FF651D"/>
<path d="M3.41406 9.63555L4.15039 9.8957C4.39553 9.20584 4.81227 8.58975 5.36133 8.10547L4.84375 7.51953C4.19523 8.09202 3.7032 8.82024 3.41406 9.63555Z" fill="#FF651D"/>
</svg>
