<svg width="24" height="24" viewBox="0 0 24 24" fill="none" xmlns="http://www.w3.org/2000/svg">
<path d="M16.668 8.3532C15.5528 7.796 14.4 7.2196 14.4 6.8C14.4 4.9012 15.6 4.1804 15.6 3.2C15.6 3.0068 15.6 2.4192 15.1548 2.2348C14.688 2.0412 14.1948 2.4524 13.5796 3.0548C13.428 1.8108 13.4 0 12 0C10.6 0 10.568 1.84 10.4204 3.056C9.8132 2.4592 9.314 2.04 8.8452 2.2348C8.4 2.4192 8.4 3.0068 8.4 3.2C8.4 4.1876 9.6 4.888 9.6 6.8C9.6 7.2196 8.4472 7.796 7.332 8.3532C4.4124 9.8132 0 12.0196 0 17.6C0 24 9.032 24 12 24C14.968 24 24 24 24 17.6C24 12.0196 19.5876 9.8132 16.668 8.3532ZM12 23.2C9.2296 23.2 0.8 23.2 0.8 17.6C0.8 12.514 4.9464 10.44 7.69 9.0688C9.2632 8.2824 10.4 7.714 10.4 6.8C10.4 4.6052 9.14 3.8672 9.2056 3.0536C9.53001 3.30653 9.83475 3.58373 10.1172 3.8828C10.2678 4.07301 10.5204 4.15011 10.7516 4.0764C11.1424 3.9356 11.1888 3.4564 11.2584 2.7308C11.3524 1.754 11.4872 0.8 12 0.8C12.5128 0.8 12.6476 1.754 12.7416 2.7308C12.8112 3.4564 12.8576 3.9356 13.2484 4.0764C13.4796 4.15011 13.7322 4.07301 13.8828 3.8828C14.1652 3.58373 14.47 3.30653 14.7944 3.0536C14.8604 3.8708 13.6 4.612 13.6 6.8C13.6 7.714 14.7368 8.2824 16.31 9.0688C19.0536 10.44 23.2 12.514 23.2 17.6C23.2 23.2 14.7704 23.2 12 23.2Z" fill="#FF651D"/>
<path d="M8.38021 11.3264C8.44802 11.1222 8.33963 10.9013 8.13661 10.83C7.93154 10.7572 7.70571 10.86 7.62581 11.0624C7.62141 11.0732 7.16621 12.1356 4.2602 13.2252C4.05321 13.3025 3.94808 13.533 4.0254 13.74C4.10272 13.947 4.33321 14.0521 4.5402 13.9748C7.82541 12.7432 8.33341 11.4676 8.38021 11.3264Z" fill="#FF651D"/>
<path d="M18.8448 15.6024C14.2256 15.0892 12.9044 11.3052 12.5348 8.87075C12.4337 7.78353 12.389 6.6918 12.4008 5.59995C12.4008 5.37904 12.2217 5.19995 12.0008 5.19995C11.7799 5.19995 11.6008 5.37904 11.6008 5.59995C11.6133 6.70373 11.5675 7.8074 11.4636 8.90635C11.0892 11.3416 9.76201 15.0908 5.15681 15.6024C5.01476 15.6181 4.89189 15.7084 4.83448 15.8393C4.77707 15.9701 4.79384 16.1217 4.87848 16.2369C4.96312 16.352 5.10276 16.4133 5.24481 16.3976C7.42733 16.2312 9.41349 15.0745 10.6352 13.2584C9.50641 17.0008 7.78681 18.4584 7.75001 18.4884C7.63854 18.5778 7.58327 18.7199 7.60501 18.8612C7.62675 19.0025 7.7222 19.1214 7.85541 19.1732C7.98862 19.225 8.13934 19.2018 8.25081 19.1124C8.37081 19.0156 10.4292 17.3096 11.6008 12.8324V20.4C11.6008 20.6209 11.7799 20.8 12.0008 20.8C12.2217 20.8 12.4008 20.6209 12.4008 20.4V12.8304C13.5724 17.3104 15.63 19.0156 15.7508 19.1104C15.9231 19.2487 16.1749 19.2211 16.3132 19.0488C16.4515 18.8764 16.4239 18.6246 16.2516 18.4864C16.226 18.4656 14.4988 17.0108 13.3668 13.2568C14.5881 15.0734 16.5741 16.2307 18.7568 16.3976C18.9764 16.4219 19.1741 16.2635 19.1984 16.044C19.2227 15.8244 19.0644 15.6267 18.8448 15.6024Z" fill="#FF651D"/>
<path d="M19.74 13.2251C16.876 12.1515 16.3924 11.1051 16.3752 11.0651C16.2979 10.8633 16.0743 10.7594 15.8702 10.8304C15.6661 10.9014 15.5553 11.1217 15.62 11.3279C15.6668 11.4691 16.1748 12.7447 19.46 13.9763C19.667 14.0537 19.8975 13.9485 19.9748 13.7415C20.0521 13.5345 19.947 13.3041 19.74 13.2267V13.2251Z" fill="#FF651D"/>
</svg>
