<svg width="24" height="24" viewBox="0 0 24 24" fill="none" xmlns="http://www.w3.org/2000/svg">
<path d="M11.2458 6.21506C11.2458 5.56786 11.7705 5.04319 12.4177 5.04319C13.0649 5.04319 13.5896 5.56786 13.5896 6.21506C13.5896 6.86227 13.0649 7.38694 12.4177 7.38694C11.7705 7.38694 11.2458 6.86231 11.2458 6.21506ZM13.056 14.8398C12.8675 14.9318 12.7174 14.8561 12.6449 14.8027C12.5762 14.7522 12.4679 14.6417 12.4832 14.4544L13.2274 11.4944C13.2346 11.4656 13.2405 11.4365 13.245 11.4071C13.3729 10.5686 13.0278 9.73556 12.3444 9.23302C11.6609 8.73033 10.7626 8.64923 10.0002 9.02128C9.36478 9.33131 9.23297 9.39553 9.2325 9.39577L10.0536 11.0814C10.0536 11.0814 10.185 11.0175 10.8225 10.7064C11.0111 10.6144 11.161 10.6902 11.2336 10.7436C11.3022 10.794 11.4106 10.9046 11.3953 11.0919L10.6511 14.0519C10.6439 14.0807 10.638 14.1098 10.6335 14.1391C10.5056 14.9775 10.8507 15.8106 11.534 16.3132C11.9328 16.6065 12.4047 16.7563 12.8801 16.7563C13.2195 16.7563 13.5607 16.68 13.8783 16.525L14.5152 16.2142L13.693 14.529L13.056 14.8398ZM24 11.0391C24 12.7357 23.6755 14.2598 23.0354 15.5691C22.4257 16.8164 21.5294 17.873 20.3714 18.7097C18.3189 20.1927 15.4241 20.9766 12 20.9766C11.0418 20.9766 10.1163 20.915 9.24164 20.7933C7.25742 22.7837 4.81716 22.8985 4.28527 22.8985C4.28011 22.8985 4.27514 22.8985 4.27036 22.8985H4.26544L2.58005 22.896L3.46988 21.4654C3.47452 21.4578 3.99056 20.6075 4.3882 19.2045C1.51336 17.5158 0 14.7086 0 11.0391C0 9.34242 0.324516 7.81833 0.964594 6.50902C1.57434 5.26172 2.47069 4.20506 3.62859 3.36844C5.68111 1.88541 8.57592 1.10156 12 1.10156C15.4241 1.10156 18.3189 1.88545 20.3714 3.36844C21.5293 4.20506 22.4256 5.26172 23.0354 6.50902C23.6755 7.81828 24 9.34242 24 11.0391ZM22.125 11.0391C22.125 8.32486 21.1656 6.25542 19.2733 4.88827C17.5424 3.63759 15.0273 2.97656 12 2.97656C8.97267 2.97656 6.45759 3.63764 4.72669 4.88827C2.83444 6.25542 1.875 8.32486 1.875 11.0391C1.875 14.2677 3.22584 16.5711 5.89003 17.8852L6.5497 18.2106L6.39061 18.9287C6.23625 19.6256 6.04491 20.2372 5.85605 20.7468C6.58341 20.5017 7.44033 20.0414 8.18255 19.1793L8.52797 18.7781L9.04997 18.8667C9.96736 19.0225 10.9599 19.1015 12 19.1015C15.0274 19.1015 17.5425 18.4404 19.2734 17.1898C21.1656 15.8227 22.125 13.7532 22.125 11.0391Z" fill="white"/>
</svg>
