<svg width="22" height="18" viewBox="0 0 22 18" fill="none" xmlns="http://www.w3.org/2000/svg">
<path d="M21.0833 8.10012H2.79629L9.79871 1.5518C10.1654 1.2089 10.1796 0.639212 9.83033 0.279216C9.48154 -0.0803296 8.90129 -0.0947295 8.53417 0.248166L0.537167 7.72708C0.191125 8.06727 0 8.51907 0 9.00011C0 9.4807 0.191125 9.93295 0.553208 10.288L8.53463 17.7516C8.712 17.9177 8.93933 18 9.16667 18C9.40867 18 9.65067 17.9064 9.83079 17.7206C10.18 17.3606 10.1658 16.7913 9.79917 16.4484L2.76742 9.9001H21.0833C21.5893 9.9001 22 9.4969 22 9.00011C22 8.50332 21.5893 8.10012 21.0833 8.10012Z" fill="#212121"/>
</svg>
