<svg width="36" height="36" viewBox="0 0 36 36" fill="none" xmlns="http://www.w3.org/2000/svg">
<g clip-path="url(#clip0)">
<path d="M32.3775 31.0303L26.3161 20.5317C28.5585 18.3577 29.9546 15.3156 29.9546 11.9531C29.9546 5.36217 24.5925 0 18.0015 0C11.4104 0 6.04833 5.36217 6.04833 11.9531C6.04833 15.3156 7.44446 18.3577 9.68687 20.5317L3.62544 31.0303C3.48319 31.2768 3.50344 31.5847 3.67683 31.8103C3.85015 32.0359 4.14244 32.1347 4.4173 32.0608L9.08984 30.8019L10.3359 35.4779C10.4092 35.7529 10.6409 35.9566 10.9231 35.994C10.954 35.998 10.9849 36.0001 11.0156 36.0001C11.2643 36.0001 11.4976 35.8679 11.6243 35.6485L18.0015 24.6028L24.3787 35.6484C24.5054 35.8679 24.7387 36 24.9874 36C25.018 36 25.0489 35.998 25.0798 35.9939C25.3619 35.9565 25.5937 35.7529 25.667 35.4779L26.9131 30.8019L31.5857 32.0607C31.8606 32.1349 32.1528 32.0359 32.3262 31.8102C32.4995 31.5847 32.5198 31.2768 32.3775 31.0303ZM7.45458 11.9531C7.45458 6.13758 12.1859 1.40625 18.0015 1.40625C23.817 1.40625 28.5483 6.13758 28.5483 11.9531C28.5483 17.7687 23.817 22.5 18.0015 22.5C12.1859 22.5 7.45458 17.7687 7.45458 11.9531ZM11.2568 33.4724L10.2672 29.7586C10.2191 29.5781 10.1011 29.4241 9.93929 29.3307C9.7775 29.2373 9.58526 29.2121 9.40477 29.2607L5.69368 30.2605L10.7717 21.4652C12.4842 22.7699 14.5576 23.6238 16.8139 23.8474L11.2568 33.4724ZM26.5981 29.2606C26.4177 29.212 26.2254 29.2372 26.0636 29.3306C25.9018 29.4241 25.7839 29.578 25.7358 29.7585L24.7461 33.4723L19.189 23.8473C21.4453 23.6237 23.5187 22.7698 25.2312 21.4651L30.3092 30.2605L26.5981 29.2606Z" fill="white"/>
<path d="M13.5979 10.5194C13.4481 10.981 13.5709 11.4781 13.9186 11.8167L15.043 12.9122L14.778 14.4595C14.6961 14.9379 14.8892 15.4121 15.2819 15.6973C15.5037 15.8584 15.7631 15.9402 16.0243 15.9402C16.2255 15.9402 16.4278 15.8916 16.6147 15.7933L18.004 15.0624L19.3937 15.7925C19.8233 16.0182 20.3341 15.9812 20.7266 15.6958C21.1191 15.4105 21.3119 14.9361 21.2297 14.4578L20.9639 12.9106L22.0878 11.8145C22.4352 11.4757 22.5578 10.9785 22.4077 10.517C22.2576 10.0556 21.8661 9.7256 21.3858 9.65592L19.8322 9.43057L19.1371 8.02298C18.9222 7.58789 18.4875 7.31775 18.0023 7.31775C18.0022 7.31775 18.0021 7.31775 18.002 7.31775C17.5167 7.31789 17.0819 7.58831 16.8672 8.02355L16.1729 9.43148L14.6194 9.65768C14.1392 9.72771 13.7478 10.0578 13.5979 10.5194ZM16.7413 10.7699C16.9703 10.7366 17.1683 10.5926 17.2706 10.3851L18.0025 8.90126L18.7351 10.3848C18.8376 10.5923 19.0356 10.7361 19.2646 10.7692L20.9021 11.0068L19.7177 12.162C19.552 12.3236 19.4764 12.5563 19.5156 12.7844L19.7957 14.4151L18.331 13.6455C18.1261 13.5379 17.8814 13.5379 17.6766 13.6457L16.2122 14.416L16.4915 12.7852C16.5306 12.5571 16.4549 12.3244 16.2892 12.1628L15.104 11.0082L16.7413 10.7699Z" fill="white"/>
<path d="M18 20.8125C22.8851 20.8125 26.8594 16.8382 26.8594 11.9531C26.8594 8.3525 24.7092 5.13739 21.3816 3.76222C21.0225 3.61372 20.6115 3.78458 20.4633 4.14345C20.315 4.50233 20.4856 4.91352 20.8445 5.0618C23.6441 6.2188 25.4531 8.92386 25.4531 11.9531C25.4531 16.0628 22.1097 19.4063 18 19.4063C13.8903 19.4063 10.5469 16.0628 10.5469 11.9531C10.5469 8.91662 12.3618 6.20916 15.1706 5.05562C15.5298 4.9081 15.7014 4.49727 15.5539 4.13811C15.4063 3.77888 14.9956 3.60732 14.6364 3.75477C11.2978 5.12593 9.14062 8.34392 9.14062 11.9531C9.14062 16.8382 13.115 20.8125 18 20.8125Z" fill="white"/>
<path d="M18.0117 4.5C18.1966 4.5 18.378 4.42477 18.5088 4.29398C18.6396 4.1632 18.7148 3.9818 18.7148 3.79688C18.7148 3.61195 18.6396 3.43055 18.5088 3.29977C18.378 3.16898 18.1966 3.09375 18.0117 3.09375C17.8268 3.09375 17.6454 3.16898 17.5146 3.29977C17.3831 3.43055 17.3086 3.61195 17.3086 3.79688C17.3086 3.9818 17.3831 4.1632 17.5146 4.29398C17.6454 4.42477 17.8268 4.5 18.0117 4.5Z" fill="white"/>
</g>
<defs>
<clipPath id="clip0">
<rect width="36" height="36" fill="white"/>
</clipPath>
</defs>
</svg>
