<svg width="36" height="36" viewBox="0 0 36 36" fill="none" xmlns="http://www.w3.org/2000/svg">
<path d="M34.6793 9.79633L34.672 9.78902C34.3722 9.51849 33.9116 9.51849 33.6264 9.80364C33.3413 10.0888 33.3413 10.5494 33.6264 10.8346C34.8255 12.0337 34.8255 13.9786 33.6264 15.1777C32.4273 16.3768 30.4824 16.3768 29.2833 15.1777C29.2686 15.1631 29.2613 15.1558 29.2467 15.1485C28.15 13.613 26.7461 12.3262 25.1302 11.3683C26.8046 7.42004 24.9548 2.86486 21.0065 1.1978C17.0581 -0.469264 12.503 1.37328 10.8359 5.32159C10.4996 6.12587 10.2948 6.98134 10.2363 7.85143C9.46131 7.63208 8.83982 7.52971 8.35725 7.54434C7.58221 7.55165 7.0119 8.03422 6.92416 8.74345C6.87298 9.05785 6.90954 9.51849 7.0777 11.0174L7.23125 12.4505C5.82741 13.5911 4.72334 14.9218 3.92637 16.4134L1.80598 16.8302C0.753103 17.0422 0 17.9708 0 19.0383V23.7397C0 24.8145 0.753103 25.7358 1.80598 25.9478L3.93368 26.3719C4.35045 27.1908 4.86227 27.9585 5.46182 28.6605C4.67216 30.62 5.2571 32.8647 6.89491 34.2027C7.86737 34.9924 9.08842 35.4238 10.3387 35.4165C11.7645 35.4165 13.1391 34.8754 14.1847 33.9029L14.6965 33.4204C16.5829 33.7055 18.5132 33.6397 20.3776 33.2449L21.1015 33.9395C22.1032 34.8827 23.4339 35.4091 24.8085 35.3945H24.9621C24.9694 35.3945 24.9767 35.3945 24.984 35.3945C26.4171 35.358 27.7771 34.7584 28.7715 33.7201C30.3069 32.097 30.4897 29.6549 29.276 27.7392C30.6506 25.8235 31.3744 23.63 31.3744 21.3634V20.8297C31.3744 20.815 31.3744 20.8004 31.3744 20.7858C31.3086 19.6963 31.0234 18.5703 30.5263 17.4297C32.0252 17.7514 33.5898 17.2908 34.672 16.2014C36.4414 14.4319 36.4414 11.5658 34.6793 9.79633ZM17.9867 2.03864C21.4598 2.03133 24.2821 4.83902 24.2894 8.31206C24.2967 10.4105 23.2511 12.3774 21.5036 13.5472C21.4452 13.5911 21.3867 13.6788 21.3428 13.6788H14.6599C14.6307 13.6788 14.5941 13.635 14.5576 13.6057C12.8978 12.5309 11.8449 10.7395 11.6987 8.7727C11.6841 8.60453 11.6841 8.4583 11.6841 8.32669C11.6914 4.86095 14.5064 2.04595 17.9867 2.03864ZM27.8575 27.1981C27.7332 27.3444 27.5431 27.6807 27.7698 28.134C27.7917 28.1779 27.8136 28.2145 27.8429 28.251C28.9031 29.6329 28.8446 31.5047 27.7039 32.7111C26.9801 33.4642 26.0003 33.9322 24.9401 33.9322H24.8012C23.7995 33.9395 22.8344 33.5666 22.1032 32.8793L21.1527 31.9727C20.9845 31.8118 20.7579 31.7241 20.5312 31.7314C20.4727 31.7314 20.4215 31.7387 20.363 31.7533C18.4839 32.1993 16.539 32.2578 14.6307 31.9361C14.5868 31.9288 14.5502 31.9288 14.5064 31.9288C14.2724 31.9215 14.053 32.0092 13.8849 32.1701L13.1683 32.8501C12.4372 33.53 11.494 33.9176 10.4996 33.9614C9.52712 34.0126 8.56197 33.6982 7.80156 33.0913C6.58782 32.097 6.21493 30.3933 6.90954 28.9822C7.01921 28.7994 7.04846 28.5727 6.98996 28.3607C6.96072 28.2291 6.90222 28.1121 6.81448 28.017C6.12719 27.2639 5.54956 26.4085 5.10355 25.4872C5.06699 25.4141 5.02312 25.3483 4.96463 25.2898C4.82571 25.1362 4.64292 25.0412 4.4455 25.0046L2.09114 24.5294C1.72556 24.4562 1.46234 24.1272 1.46234 23.7543V19.0383C1.45502 18.6654 1.71824 18.3364 2.09114 18.2633L4.45281 17.788C4.65023 17.7514 4.83302 17.6564 4.97194 17.5028C5.03043 17.4443 5.0743 17.3859 5.11086 17.3127C5.85665 15.8212 6.96803 14.4904 8.40843 13.3791C8.43036 13.3571 8.4523 13.3425 8.47423 13.3206C8.6424 13.1524 8.73014 12.9257 8.72283 12.6918C8.72283 12.6625 8.72283 12.6406 8.71552 12.6113L8.52542 10.8565C8.45961 10.2935 8.34994 9.2772 8.36456 8.99936C8.37187 8.99936 8.38649 8.99936 8.39381 8.99936C8.68627 8.99205 9.24927 9.04323 10.2875 9.37957C10.5069 11.0028 11.238 12.509 12.3714 13.6861H11.6767C11.2746 13.6861 10.9456 14.0152 10.9456 14.4173C10.9456 14.8195 11.2746 15.1485 11.6767 15.1485H24.3479C24.75 15.1485 25.0791 14.8195 25.0791 14.4173C25.0791 14.0152 24.75 13.6861 24.3479 13.6861H23.5875C23.9092 13.3717 24.1943 13.0208 24.4356 12.6406C26.1246 13.6642 27.5138 15.0388 28.4717 16.6181L28.9908 17.6198C29.5246 18.7239 29.8316 19.8426 29.9048 20.8662V21.3707C29.9048 23.4545 29.1955 25.4653 27.8575 27.1981Z" fill="white"/>
<path d="M10.1257 17.7075C9.08744 17.7075 8.25391 18.5484 8.25391 19.5793C8.25391 20.6176 9.09475 21.4511 10.1257 21.4511C11.1566 21.4511 11.9975 20.6103 11.9975 19.5793C12.0048 18.5484 11.164 17.7075 10.1257 17.7075ZM10.1257 19.9961C9.89903 19.9961 9.71624 19.8133 9.71624 19.5866C9.71624 19.36 9.89903 19.1772 10.1257 19.1772C10.3524 19.1772 10.5351 19.36 10.5351 19.5866C10.5425 19.8133 10.3597 19.9961 10.1257 19.9961Z" fill="white"/>
<path d="M17.9856 3.89575C15.5362 3.89575 13.5547 5.87721 13.5547 8.32662C13.562 10.7687 15.5435 12.7502 17.9856 12.7575C20.435 12.7575 22.4164 10.776 22.4164 8.32662C22.4164 5.87721 20.435 3.89575 17.9856 3.89575ZM17.9856 11.2952C16.3477 11.2952 15.017 9.96444 15.017 8.32662C15.017 6.68881 16.3477 5.35809 17.9856 5.35809C19.6234 5.35809 20.9541 6.68881 20.9541 8.32662C20.9541 9.96444 19.6234 11.2952 17.9856 11.2952Z" fill="white"/>
</svg>
