<svg width="36" height="36" viewBox="0 0 36 36" fill="none" xmlns="http://www.w3.org/2000/svg">
<g clip-path="url(#clip0)">
<path d="M18.0156 30.0392H18.0071C17.8229 30.0412 17.6493 30.1143 17.5184 30.2452C17.3856 30.3781 17.3125 30.5546 17.3125 30.7423C17.3125 31.1297 17.6282 31.4454 18.0156 31.4454H18.0163C18.4036 31.4454 18.7186 31.1297 18.7186 30.7423C18.7186 30.3542 18.4036 30.0392 18.0156 30.0392Z" fill="white"/>
<path d="M29.6412 29.5021C29.5777 29.1709 29.2874 28.9304 28.9514 28.9304C28.907 28.9304 28.8621 28.9347 28.8185 28.9431L28.7482 28.9564C26.1378 29.488 23.4605 29.8276 20.7917 29.9668C20.604 29.9767 20.4311 30.0589 20.3059 30.1982C20.1801 30.3373 20.1161 30.5181 20.126 30.7051C20.1457 31.0792 20.4537 31.3716 20.8276 31.3716C20.841 31.3716 20.853 31.3716 20.8649 31.3709C23.604 31.2282 26.3516 30.8794 29.0302 30.3345L29.0823 30.324C29.2672 30.2889 29.4268 30.1841 29.5323 30.0287C29.6377 29.8733 29.6764 29.6863 29.6412 29.5021Z" fill="white"/>
<path d="M15.7251 30.1994C15.5999 30.0596 15.4271 29.978 15.2393 29.9681C12.5592 29.8303 9.87209 29.49 7.25183 28.9563L7.18363 28.943C7.14004 28.9346 7.09497 28.9303 7.05074 28.9303C6.71394 28.9303 6.42433 29.1701 6.36041 29.5005C6.32526 29.6855 6.36322 29.8725 6.46869 30.0279C6.57416 30.1833 6.7337 30.2887 6.91792 30.3239L6.97136 30.3344C9.66052 30.8821 12.4179 31.2308 15.1676 31.3722C15.1788 31.3729 15.1915 31.3737 15.2042 31.3737C15.5782 31.3737 15.8861 31.0804 15.9058 30.7064C15.9149 30.5187 15.851 30.3387 15.7251 30.1994Z" fill="white"/>
<path d="M27.1406 14.3982C26.7524 14.3982 26.4375 14.7139 26.4375 15.1013C26.4375 15.4887 26.7524 15.8044 27.1406 15.8044C27.5279 15.8044 27.8436 15.4887 27.8436 15.1013C27.8436 14.7139 27.5279 14.3982 27.1406 14.3982Z" fill="white"/>
<path d="M24.3265 14.3982H8.8593C8.47195 14.3982 8.15625 14.7139 8.15625 15.1013C8.15625 15.4887 8.47195 15.8044 8.8593 15.8044H24.3265C24.7139 15.8044 25.0296 15.4887 25.0296 15.1013C25.0296 14.7139 24.7139 14.3982 24.3265 14.3982Z" fill="white"/>
<path d="M35.5395 26.4824C35.2254 25.7758 34.8969 25.0608 34.5793 24.3694C33.1735 21.3089 31.7197 18.1442 31.1726 14.9392C30.862 13.2204 29.554 11.9193 27.9484 11.6416C27.6436 10.0113 26.211 8.77318 24.4938 8.77318H20.1091V7.27792C21.3207 6.96489 22.2183 5.86253 22.2183 4.55444C22.2183 3.00363 20.9567 1.74194 19.4061 1.74194C18.8938 1.74194 18.4136 1.88025 17.9995 2.12058C17.5857 1.88032 17.1058 1.74194 16.5938 1.74194C15.0431 1.74194 13.7816 3.00363 13.7816 4.55444C13.7816 5.86253 14.6792 6.96489 15.8907 7.27792V8.77318H11.506C9.78887 8.77318 8.35626 10.0112 8.05152 11.6415C6.44622 11.9191 5.13785 13.221 4.82622 14.946C4.28018 18.1445 2.82633 21.3094 1.42029 24.3701C1.10283 25.0613 0.774473 25.776 0.460458 26.4823C-0.134455 27.8204 -0.153017 29.0294 0.405474 30.0756C1.4044 31.9472 3.9649 32.7494 5.94011 33.0928C9.9006 33.8659 13.958 34.2579 18 34.2579C22.0421 34.2579 26.0993 33.866 30.0597 33.0929C32.0349 32.7495 34.5955 31.9473 35.5945 30.0758C36.153 29.0295 36.1344 27.8205 35.5395 26.4824ZM19.4061 3.14819C20.1815 3.14819 20.8122 3.77903 20.8122 4.55444C20.8122 5.32984 20.1815 5.96069 19.4061 5.96069C18.6308 5.96069 18 5.32984 18 4.55444C18 3.77903 18.6308 3.14819 19.4061 3.14819ZM17.297 7.27714C17.5462 7.2126 17.7823 7.115 17.9999 6.98872C18.2176 7.11508 18.4535 7.21344 18.7031 7.27792V8.77318H17.297V7.27714ZM15.1878 4.55444C15.1878 3.77903 15.8186 3.14819 16.5939 3.14819C16.7156 3.14819 16.8334 3.16443 16.9459 3.19396C16.722 3.59742 16.5939 4.0612 16.5939 4.55444C16.5939 5.04775 16.7217 5.51174 16.9457 5.91519C16.8331 5.9443 16.7154 5.96069 16.5939 5.96069C15.8186 5.96069 15.1878 5.32984 15.1878 4.55444ZM11.5061 10.1794H24.4939C25.4104 10.1794 26.1919 10.7673 26.4821 11.5857H9.51782C9.80814 10.7673 10.5896 10.1794 11.5061 10.1794ZM34.3541 29.4136C33.5537 30.9129 30.9113 31.518 29.8123 31.7087C29.8074 31.7095 29.8025 31.7103 29.7977 31.7113C25.9236 32.468 21.9542 32.8517 18 32.8517C14.0458 32.8517 10.0764 32.468 6.20238 31.7113C6.19753 31.7103 6.1926 31.7094 6.18775 31.7086C5.08877 31.518 2.44622 30.9127 1.64593 29.4134C1.29725 28.7601 1.32973 27.9882 1.74535 27.0536C2.05592 26.3551 2.38238 25.6444 2.69808 24.9571C4.14201 21.8137 5.6351 18.5634 6.2111 15.1893C6.40832 14.0973 7.32428 12.9919 8.69383 12.9919H27.3068C28.6756 12.9919 29.5915 14.0973 29.7876 15.1825C30.3647 18.5631 31.8577 21.8133 33.3015 24.9564C33.6174 25.6439 33.944 26.3549 34.2546 27.0537C34.6702 27.9884 34.7027 28.7603 34.3541 29.4136Z" fill="white"/>
</g>
<defs>
<clipPath id="clip0">
<rect width="36" height="36" fill="white"/>
</clipPath>
</defs>
</svg>
