<svg width="18" height="18" viewBox="0 0 18 18" fill="none" xmlns="http://www.w3.org/2000/svg">
<path d="M12.8656 3.97214L12.6457 3.31195C12.3401 2.39514 11.3336 2.02456 10.529 2.34121L10.5006 2.25726C10.2818 1.60012 9.69265 1.17578 9 1.17578C8.30735 1.17578 7.7182 1.60012 7.49932 2.25726L7.47098 2.34121C7.21659 2.24182 6.93232 2.20681 6.64752 2.25005C5.63832 2.40006 5.43371 3.07548 5.13436 3.97214C2.10009 5.37495 0 8.24444 0 11.0238C0 14.5478 3.55405 16.8246 9 16.8246C14.4459 16.8246 18 14.5478 18 11.0238C18 8.24444 15.8999 5.37495 12.8656 3.97214ZM7.2283 6.12325L6.17361 7.17794C5.9676 7.38395 5.63393 7.38395 5.42791 7.17794C5.22193 6.97196 5.22193 6.63822 5.42791 6.43224L6.4826 5.37755C6.68858 5.17157 7.02232 5.17157 7.2283 5.37755C7.43428 5.58353 7.43432 5.91723 7.2283 6.12325ZM9.52734 6.80507C9.52734 7.09655 9.29148 7.33241 9 7.33241C8.70852 7.33241 8.47266 7.09655 8.47266 6.80507V5.75038C8.47266 5.4589 8.70852 5.22304 9 5.22304C9.29148 5.22304 9.52734 5.4589 9.52734 5.75038V6.80507ZM12.5721 7.17794C12.366 7.38395 12.0324 7.38395 11.8264 7.17794L10.7717 6.12325C10.5657 5.91727 10.5657 5.58353 10.7717 5.37755C10.9776 5.17157 11.3114 5.17157 11.5174 5.37755L12.5721 6.43224C12.7781 6.63822 12.7781 6.97192 12.5721 7.17794Z" fill="#E6E9ED"/>
</svg>
