<svg width="24" height="22" viewBox="0 0 24 22" fill="none" xmlns="http://www.w3.org/2000/svg">
<path d="M23.7935 19.3094L13.3212 1.17088C13.3211 1.17064 13.321 1.17046 13.3208 1.17022L13.3191 1.16713C13.0437 0.690243 12.5506 0.405518 11.9999 0.405518C11.4492 0.405518 10.9561 0.690243 10.6808 1.16713L8.47662 4.98483C8.37955 5.15295 8.43715 5.36794 8.60527 5.465C8.77334 5.56206 8.98837 5.50442 9.08544 5.33635L11.2896 1.51864C11.4379 1.26185 11.7034 1.10854 11.9999 1.10854C12.2624 1.10854 12.5004 1.22885 12.6545 1.43456L12.2092 6.91764C12.1415 6.90254 12.0716 6.8943 11.9999 6.8943C11.6594 6.8943 11.3545 7.07038 11.1842 7.36523L5.96016 16.4136L1.39346 18.6594L8.31937 6.66333C8.41644 6.49521 8.35884 6.28023 8.19072 6.18316C8.0226 6.08605 7.80762 6.1437 7.71056 6.31182L0.206421 19.3094C0.206421 19.3094 0.206374 19.3094 0.206374 19.3095C0.205578 19.3109 0.204875 19.3123 0.204078 19.3138C-0.0687426 19.7898 -0.0680864 20.3572 0.206421 20.8327C0.481726 21.3095 0.974874 21.5943 1.52558 21.5943H5.11555C5.30968 21.5943 5.46706 21.4369 5.46706 21.2428C5.46706 21.0486 5.30968 20.8912 5.11555 20.8912H1.52553C1.22904 20.8912 0.963485 20.7379 0.815241 20.4811C0.683541 20.253 0.669152 19.9856 0.771419 19.7488L5.8249 17.2637C5.84538 17.3269 5.87243 17.3887 5.90678 17.4481C6.07705 17.743 6.38198 17.9191 6.72248 17.9191H17.1658L21.3685 20.8912H6.64749C6.45336 20.8912 6.29598 21.0486 6.29598 21.2428C6.29598 21.4369 6.45336 21.5943 6.64749 21.5943H22.4737C22.4738 21.5943 22.4739 21.5943 22.4741 21.5943C22.4743 21.5943 22.4744 21.5943 22.4746 21.5943C23.0252 21.5942 23.5182 21.3095 23.7935 20.8327C24.0688 20.3557 24.0688 19.7863 23.7935 19.3094ZM23.1846 20.4811C23.0537 20.7078 22.8314 20.8537 22.577 20.8848L17.9638 17.6224C18.0125 17.5701 18.0561 17.5121 18.0931 17.4481C18.2633 17.1532 18.2634 16.8011 18.0931 16.5062L16.3673 13.517C16.2702 13.3489 16.0552 13.2913 15.8871 13.3883C15.719 13.4854 15.6614 13.7004 15.7585 13.8685L17.4843 16.8577C17.5465 16.9655 17.505 17.0606 17.4842 17.0965C17.4635 17.1324 17.4018 17.216 17.2774 17.216H6.72243C6.59799 17.216 6.53632 17.1324 6.5156 17.0965C6.49488 17.0606 6.45336 16.9655 6.51555 16.8577L6.51565 16.8575C6.51593 16.857 6.51621 16.8565 6.51649 16.8561L11.7931 7.71679C11.8553 7.60899 11.9585 7.59737 11.9999 7.59737C12.0414 7.59737 12.1445 7.60904 12.2068 7.71679L15.016 12.5824C15.113 12.7505 15.328 12.8081 15.4961 12.7111C15.6642 12.614 15.7219 12.399 15.6248 12.2309L12.8704 7.46023L13.2737 2.49477L23.1846 19.6609C23.3329 19.9177 23.3329 20.2243 23.1846 20.4811Z" fill="#FF651D"/>
</svg>
