<svg width="17" height="17" viewBox="0 0 17 17" fill="none" xmlns="http://www.w3.org/2000/svg">
<g clip-path="url(#clip0)">
<path d="M17 16.2488L11.2385 10.4873C12.1795 9.37611 12.75 7.94178 12.75 6.37501C12.75 2.85961 9.89037 0 6.37501 0C2.85964 0 0 2.85961 0 6.37501C0 9.8904 2.85961 12.75 6.37501 12.75C7.94178 12.75 9.37611 12.1795 10.4873 11.2385L16.2488 17L17 16.2488ZM6.37501 11.6875C3.44587 11.6875 1.06251 9.30415 1.06251 6.37501C1.06251 3.44587 3.44587 1.06251 6.37501 1.06251C9.30415 1.06251 11.6875 3.44587 11.6875 6.37501C11.6875 9.30415 9.30415 11.6875 6.37501 11.6875Z" fill="white"/>
</g>
<defs>
<clipPath id="clip0">
<rect width="17" height="17" fill="white"/>
</clipPath>
</defs>
</svg>
