<svg width="15" height="15" viewBox="0 0 15 15" fill="none" xmlns="http://www.w3.org/2000/svg">
<g clip-path="url(#clip0)">
<path d="M14.1673 3.366C13.6715 3.5835 13.1432 3.72766 12.5923 3.79766C13.159 3.45933 13.5915 2.92766 13.7948 2.28683C13.2665 2.60183 12.6832 2.82433 12.0615 2.9485C11.5598 2.41433 10.8448 2.0835 10.0648 2.0835C8.55148 2.0835 7.33315 3.31183 7.33315 4.81766C7.33315 5.03433 7.35148 5.24266 7.39648 5.441C5.12398 5.33016 3.11315 4.241 1.76232 2.58183C1.52648 2.991 1.38815 3.45933 1.38815 3.9635C1.38815 4.91016 1.87565 5.74933 2.60232 6.23516C2.16315 6.22683 1.73232 6.09933 1.36732 5.8985C1.36732 5.90683 1.36732 5.91766 1.36732 5.9285C1.36732 7.25683 2.31482 8.36016 3.55732 8.61433C3.33482 8.67516 3.09232 8.70433 2.84065 8.70433C2.66565 8.70433 2.48898 8.69433 2.32315 8.65766C2.67732 9.74016 3.68232 10.536 4.87732 10.5618C3.94732 11.2893 2.76648 11.7277 1.48815 11.7277C1.26398 11.7277 1.04898 11.7177 0.833984 11.6902C2.04482 12.471 3.47982 12.9168 5.02732 12.9168C10.0573 12.9168 12.8073 8.75016 12.8073 5.1385C12.8073 5.01766 12.8032 4.901 12.7973 4.78516C13.3398 4.40016 13.7957 3.91933 14.1673 3.366Z" fill="white"/>
</g>
<defs>
<clipPath id="clip0">
<rect width="13.3333" height="13.3333" fill="white" transform="translate(0.833984 0.833496)"/>
</clipPath>
</defs>
</svg>
