<svg width="24" height="24" viewBox="0 0 24 24" fill="none" xmlns="http://www.w3.org/2000/svg">
<path d="M11.9 1.94623C13.668 1.94623 15.4389 2.44808 17.0211 3.39765C18.0246 4.00146 18.9264 4.76031 19.6924 5.64642L17.0492 5.55924C16.7388 5.54887 16.4788 5.79232 16.4686 6.10293C16.4584 6.41336 16.7017 6.67351 17.0123 6.68353L20.6694 6.8043C20.8795 6.89078 21.121 6.84244 21.2817 6.6816C21.4422 6.52076 21.4901 6.27924 21.4033 6.06918L21.2829 2.41293C21.2759 2.10232 21.0183 1.85623 20.7077 1.86308C20.3973 1.87011 20.1509 2.12763 20.1579 2.43806C20.1579 2.44228 20.1579 2.44615 20.1582 2.45019L20.2279 4.55957C19.4541 3.73269 18.5697 3.01674 17.5999 2.43261C15.843 1.37845 13.872 0.821228 11.9 0.821228C8.75004 0.821228 5.84578 2.12008 3.7234 4.47836C1.84324 6.56752 0.720703 9.37949 0.720703 12.0006C0.720703 12.3112 0.972422 12.5631 1.2832 12.5631C1.59398 12.5631 1.8457 12.3112 1.8457 12.0006C1.8457 9.64984 2.86014 7.11912 4.55959 5.23105C6.46611 3.11306 9.07277 1.94623 11.9 1.94623Z" fill="white"/>
<path d="M22.657 11.438C22.3462 11.438 22.0945 11.6897 22.0945 12.0005C22.0945 14.351 21.08 16.8819 19.3806 18.7702C17.4741 20.8882 14.8674 22.0546 12.0401 22.0546C10.2721 22.0546 8.5013 21.5531 6.91909 20.6036C5.91556 19.9996 5.0138 19.2407 4.24774 18.3548L6.89097 18.442C7.2014 18.452 7.46138 18.2086 7.47157 17.8981C7.48177 17.5877 7.23848 17.3277 6.92788 17.3173L3.27075 17.1968C3.06069 17.1103 2.81917 17.1588 2.6585 17.3195C2.49802 17.4803 2.45003 17.7216 2.53686 17.9317L2.65727 21.5879C2.66431 21.8987 2.92182 22.145 3.23243 22.138C3.54286 22.1311 3.78931 21.8736 3.78227 21.563C3.78227 21.5589 3.78227 21.5551 3.78192 21.5509L3.71231 19.4415C4.4861 20.2685 5.37046 20.9841 6.34024 21.5686C8.09718 22.6229 10.0682 23.18 12.0401 23.18C15.1901 23.18 18.0944 21.8813 20.2168 19.523C22.0969 17.4337 23.2195 14.6217 23.2195 12.0005C23.2195 11.6897 22.9677 11.438 22.657 11.438Z" fill="white"/>
</svg>
