<svg width="14" height="14" viewBox="0 0 14 14" fill="none" xmlns="http://www.w3.org/2000/svg">
<g clip-path="url(#clip0)">
<path d="M6.91601 0.833496C3.48317 0.833496 0.666016 3.65065 0.666016 7.0835C0.666016 8.21646 0.971477 9.31939 1.55074 10.2843L0.666016 13.3335L3.7152 12.4488C4.68013 13.028 5.78305 13.3335 6.91601 13.3335C10.3489 13.3335 13.166 10.5163 13.166 7.0835C13.166 3.65065 10.3489 0.833496 6.91601 0.833496ZM10.8236 9.72432L10.5328 10.0151C10.1214 10.4265 9.17527 10.3939 8.5673 10.2765C6.5458 9.88606 4.18898 7.60163 3.73446 5.62333C3.5094 4.64333 3.63366 3.79132 3.95867 3.46621L4.24945 3.17543C4.40995 3.01503 4.67068 3.01522 4.831 3.17543L5.99429 4.33882C6.07192 4.41645 6.11445 4.51935 6.11445 4.6295C6.11445 4.73965 6.07192 4.84265 5.99429 4.91999L5.70361 5.21105C5.38317 5.53225 5.38317 6.054 5.70361 6.37444L7.62459 8.27015C7.94598 8.59154 8.46612 8.59192 8.78798 8.27015L9.07876 7.97947C9.22887 7.82851 9.50925 7.82803 9.66059 7.97947L10.8236 9.14248C10.9815 9.29974 10.9875 9.56028 10.8236 9.72432Z" fill="white"/>
</g>
<defs>
<clipPath id="clip0">
<rect width="12.5" height="12.5" fill="white" transform="translate(0.666016 0.833496)"/>
</clipPath>
</defs>
</svg>
