<svg width="60" height="44" viewBox="0 0 60 44" fill="none" xmlns="http://www.w3.org/2000/svg">
<path d="M54.0573 0.891022H2.86908C1.74513 0.891022 0.833984 1.78336 0.833984 2.88411V5.24323C0.833984 6.34398 1.74513 7.23632 2.86908 7.23632H54.0573C55.1812 7.23632 56.0924 6.34398 56.0924 5.24323V2.88411C56.0924 1.78336 55.1812 0.891022 54.0573 0.891022Z" fill="#FF651D"/>
<path d="M54.0602 7.54466H2.86892C2.24615 7.54384 1.64911 7.30119 1.20874 6.86991C0.768372 6.43863 0.520606 5.85392 0.519775 5.24399V2.88489C0.520606 2.27497 0.768372 1.69026 1.20874 1.25898C1.64911 0.827694 2.24615 0.585042 2.86892 0.584229H54.0602C54.6825 0.585855 55.2787 0.828864 55.7184 1.26006C56.1581 1.69125 56.4054 2.2755 56.4062 2.88489V5.24399C56.4062 5.85363 56.1592 6.43835 55.7193 6.86972C55.2794 7.30109 54.6827 7.54384 54.0602 7.54466ZM2.86892 1.19938C2.41273 1.20019 1.97546 1.37803 1.65289 1.69395C1.33031 2.00987 1.14872 2.43811 1.14789 2.88489V5.24399C1.14872 5.69077 1.33031 6.11901 1.65289 6.43493C1.97546 6.75085 2.41273 6.92869 2.86892 6.92951H54.0602C54.5161 6.92869 54.9531 6.75075 55.2752 6.43474C55.5972 6.11874 55.7781 5.69049 55.7781 5.24399V2.88489C55.7781 2.4384 55.5972 2.01015 55.2752 1.69414C54.9531 1.37813 54.5161 1.20019 54.0602 1.19938H2.86892Z" fill="#212121"/>
<path d="M51.6232 39.5318H5.30602C4.69186 39.5318 4.10281 39.2931 3.66824 38.8681C3.23367 38.443 2.98911 37.8665 2.98828 37.265V7.23635C2.98828 7.15477 3.02137 7.07654 3.08027 7.01886C3.13916 6.96118 3.21905 6.92877 3.30234 6.92877H53.6269C53.7102 6.92877 53.79 6.96118 53.8489 7.01886C53.9078 7.07654 53.9409 7.15477 53.9409 7.23635V37.265C53.9401 37.8665 53.6955 38.443 53.261 38.8681C52.8264 39.2931 52.2373 39.5318 51.6232 39.5318ZM3.61954 7.54392V37.265C3.62037 37.7033 3.79875 38.1234 4.11553 38.4331C4.4323 38.7427 4.86159 38.9167 5.30916 38.9167H51.6232C52.0705 38.9158 52.4993 38.7417 52.8159 38.4322C53.1325 38.1227 53.3111 37.7031 53.3128 37.265V7.54392H3.61954Z" fill="#212121"/>
<path d="M32.3494 0.891022V14.7196L31.0523 13.3817L29.7584 14.7196L28.4645 13.3817L27.1706 14.7196L25.8735 13.3817L24.5796 14.7196V0.891022H32.3494Z" fill="#FF651D"/>
<path d="M24.5797 15.0272C24.5399 15.0273 24.5005 15.02 24.4635 15.0057C24.405 14.9829 24.3549 14.9435 24.3197 14.8925C24.2844 14.8415 24.2656 14.7813 24.2656 14.7197V0.878743C24.2656 0.797169 24.2987 0.718935 24.3576 0.661254C24.4165 0.603572 24.4964 0.571167 24.5797 0.571167H32.3495C32.4328 0.571167 32.5126 0.603572 32.5715 0.661254C32.6304 0.718935 32.6635 0.797169 32.6635 0.878743V14.7197C32.6639 14.7815 32.6453 14.8421 32.61 14.8934C32.5748 14.9447 32.5245 14.9844 32.4658 15.0074C32.4071 15.0303 32.3428 15.0353 32.2811 15.0219C32.2195 15.0084 32.1634 14.977 32.1202 14.9319L31.0524 13.8277L30.0003 14.9257C29.9711 14.9557 29.936 14.9796 29.8972 14.996C29.8583 15.0124 29.8165 15.0209 29.7742 15.0211C29.7314 15.0213 29.6889 15.013 29.6495 14.9966C29.6101 14.9802 29.5745 14.9561 29.5449 14.9257L28.4803 13.8215L27.4125 14.9257C27.3831 14.956 27.3478 14.9801 27.3087 14.9965C27.2695 15.013 27.2274 15.0215 27.1848 15.0215C27.1422 15.0215 27.1 15.013 27.0609 14.9965C27.0218 14.9801 26.9864 14.956 26.9571 14.9257L25.8893 13.8215L24.8089 14.9257C24.7799 14.9572 24.7446 14.9825 24.7051 14.9999C24.6657 15.0174 24.623 15.0267 24.5797 15.0272ZM25.8736 13.0741C25.9159 13.0743 25.9577 13.0828 25.9966 13.0992C26.0355 13.1156 26.0705 13.1395 26.0997 13.1695L27.1675 14.2737L28.2385 13.1695C28.2676 13.1395 28.3027 13.1156 28.3416 13.0992C28.3804 13.0828 28.4223 13.0743 28.4646 13.0741C28.5074 13.0739 28.5498 13.0822 28.5893 13.0986C28.6287 13.115 28.6643 13.1391 28.6938 13.1695L29.7585 14.2737L30.8263 13.1695C30.8556 13.1392 30.8909 13.1151 30.9301 13.0987C30.9692 13.0822 31.0114 13.0737 31.054 13.0737C31.0966 13.0737 31.1387 13.0822 31.1779 13.0987C31.217 13.1151 31.2523 13.1392 31.2817 13.1695L32.0354 13.9476V1.19862H24.8937V13.9476L25.6443 13.1695C25.6739 13.1391 25.7095 13.115 25.7489 13.0986C25.7883 13.0822 25.8308 13.0739 25.8736 13.0741Z" fill="#212121"/>
<path d="M18.267 34.955H7.6644C7.58111 34.955 7.50123 34.9226 7.44233 34.865C7.38343 34.8073 7.35034 34.729 7.35034 34.6475V27.3518C7.35034 27.2702 7.38343 27.192 7.44233 27.1343C7.50123 27.0766 7.58111 27.0442 7.6644 27.0442H18.267C18.3503 27.0442 18.4302 27.0766 18.4891 27.1343C18.548 27.192 18.581 27.2702 18.581 27.3518V34.6475C18.581 34.729 18.548 34.8073 18.4891 34.865C18.4302 34.9226 18.3503 34.955 18.267 34.955Z" fill="#FF651D"/>
<path d="M18.267 34.955H7.6644C7.58111 34.955 7.50123 34.9226 7.44233 34.865C7.38343 34.8073 7.35034 34.729 7.35034 34.6475V27.3518C7.35034 27.2702 7.38343 27.192 7.44233 27.1343C7.50123 27.0766 7.58111 27.0442 7.6644 27.0442H18.267C18.3503 27.0442 18.4302 27.0766 18.4891 27.1343C18.548 27.192 18.581 27.2702 18.581 27.3518V34.6475C18.581 34.729 18.548 34.8073 18.4891 34.865C18.4302 34.9226 18.3503 34.955 18.267 34.955ZM7.97846 34.3399H17.9529V27.6594H7.97846V34.3399Z" fill="#212121"/>
<path d="M18.0441 25.2265H7.88437C7.80108 25.2265 7.72119 25.1941 7.6623 25.1364C7.6034 25.0787 7.57031 25.0005 7.57031 24.9189C7.57031 24.8373 7.6034 24.7591 7.6623 24.7014C7.72119 24.6437 7.80108 24.6113 7.88437 24.6113H18.0441C18.1274 24.6113 18.2073 24.6437 18.2662 24.7014C18.3251 24.7591 18.3582 24.8373 18.3582 24.9189C18.3582 25.0005 18.3251 25.0787 18.2662 25.1364C18.2073 25.1941 18.1274 25.2265 18.0441 25.2265Z" fill="#212121"/>
<path d="M58.033 43.1089H34.507C34.3582 43.1089 34.2107 43.0802 34.0732 43.0244C33.9356 42.9686 33.8106 42.8868 33.7054 42.7837C33.6001 42.6806 33.5166 42.5582 33.4596 42.4234C33.4026 42.2887 33.3733 42.1443 33.3733 41.9985V20.0591L38.5395 14.0706H58.033C58.3337 14.0706 58.6221 14.1876 58.8347 14.3959C59.0473 14.6041 59.1668 14.8865 59.1668 15.181V41.9924C59.1676 42.1387 59.1389 42.2838 59.0823 42.4192C59.0257 42.5546 58.9423 42.6777 58.8369 42.7815C58.7316 42.8852 58.6063 42.9676 58.4683 43.0238C58.3304 43.08 58.1824 43.1089 58.033 43.1089Z" fill="white"/>
<path d="M58.033 43.4165H34.5069C34.1232 43.4157 33.7554 43.266 33.4841 43.0003C33.2128 42.7345 33.06 42.3744 33.0591 41.9986V20.0592C33.0578 19.9808 33.087 19.9049 33.1408 19.8469L38.307 13.8615C38.3362 13.8272 38.3727 13.7995 38.4139 13.7804C38.4551 13.7613 38.5001 13.7512 38.5457 13.7508H58.0393C58.423 13.7516 58.7908 13.9013 59.0621 14.167C59.3335 14.4327 59.4863 14.7929 59.4871 15.1687V41.9924C59.4875 42.1795 59.4502 42.3649 59.3773 42.5378C59.3043 42.7108 59.1972 42.868 59.0621 43.0003C58.927 43.1326 58.7666 43.2375 58.59 43.3089C58.4134 43.3803 58.2241 43.4169 58.033 43.4165ZM33.6872 20.1699V42.0078C33.6872 42.1132 33.7084 42.2176 33.7496 42.315C33.7908 42.4124 33.8512 42.5009 33.9273 42.5754C34.0034 42.65 34.0938 42.7091 34.1933 42.7494C34.2927 42.7898 34.3993 42.8105 34.5069 42.8105H58.033C58.1407 42.8105 58.2472 42.7898 58.3467 42.7494C58.4461 42.7091 58.5365 42.65 58.6126 42.5754C58.6887 42.5009 58.7491 42.4124 58.7903 42.315C58.8315 42.2176 58.8527 42.1132 58.8527 42.0078V15.181C58.8527 14.9681 58.7663 14.7639 58.6126 14.6134C58.4589 14.4628 58.2504 14.3782 58.033 14.3782H38.687L33.6872 20.1699Z" fill="#212121"/>
<path d="M33.3733 20.0591H37.4089C37.7091 20.0583 37.9966 19.941 38.2086 19.7328C38.4205 19.5247 38.5395 19.2427 38.5395 18.9488V14.0706L33.3733 20.0591Z" fill="white"/>
<path d="M37.4088 20.3667H33.3731C33.3112 20.3677 33.2504 20.3508 33.1983 20.318C33.1462 20.2852 33.1052 20.2381 33.0803 20.1826C33.0555 20.127 33.048 20.0655 33.0587 20.0058C33.0695 19.9461 33.098 19.8908 33.1407 19.8469L38.307 13.8615C38.3485 13.8139 38.4039 13.7799 38.4657 13.7639C38.5276 13.748 38.5929 13.7509 38.653 13.7723C38.7131 13.7937 38.7651 13.8326 38.802 13.8837C38.8389 13.9348 38.8591 13.9957 38.8597 14.0584V18.9365C38.8614 19.124 38.825 19.31 38.7528 19.4836C38.6806 19.6573 38.5739 19.8152 38.439 19.9482C38.3041 20.0812 38.1435 20.1867 37.9667 20.2585C37.7898 20.3304 37.6002 20.3672 37.4088 20.3667ZM34.0515 19.7516H37.4088C37.6256 19.7508 37.8333 19.6658 37.9863 19.5154C38.1394 19.3649 38.2253 19.1612 38.2253 18.9488V14.9257L34.0515 19.7516Z" fill="#212121"/>
<path d="M43.3854 29.9416L38.8536 25.0542C38.6872 24.8735 38.6004 24.6357 38.6121 24.3926C38.6239 24.1495 38.7333 23.9208 38.9164 23.7563L40.1726 22.6336C40.3572 22.4706 40.6 22.3856 40.8482 22.3971C41.0964 22.4087 41.33 22.5158 41.498 22.6951L44.2271 25.6386L51.7456 18.7951C51.9282 18.6301 52.1698 18.5424 52.418 18.5511C52.6662 18.5597 52.9009 18.664 53.071 18.8412L54.2298 20.0715C54.3992 20.2504 54.4893 20.4877 54.4805 20.7315C54.4717 20.9754 54.3646 21.2058 54.1827 21.3725L44.7045 29.997C44.5211 30.1588 44.2801 30.2437 44.0334 30.2334C43.7867 30.223 43.554 30.1183 43.3854 29.9416Z" fill="#FF651D"/>
<path d="M44.0733 30.5444H44.0199C43.8556 30.5384 43.6943 30.5003 43.5454 30.4321C43.3965 30.3639 43.2631 30.2672 43.1531 30.1476L38.6212 25.2603C38.3991 25.0191 38.2834 24.7017 38.2993 24.3773C38.3152 24.0529 38.4614 23.7478 38.706 23.5286L39.9623 22.4059C40.2085 22.1884 40.5326 22.0751 40.8638 22.0907C41.195 22.1062 41.5065 22.2494 41.7304 22.489L44.2429 25.2018L51.529 18.5705C51.7726 18.3493 52.0956 18.2316 52.4276 18.2431C52.7595 18.2547 53.0733 18.3945 53.3003 18.632L54.4591 19.8623C54.6846 20.1012 54.8042 20.4179 54.7918 20.743C54.7795 21.0681 54.6361 21.3752 54.3932 21.597L44.9181 30.2215C44.6874 30.4284 44.3861 30.5435 44.0733 30.5444ZM40.8071 22.7043C40.6518 22.7038 40.5019 22.7597 40.3862 22.8612L39.13 23.9838C39.0093 24.0935 38.9374 24.2452 38.9298 24.4062C38.9221 24.5673 38.9794 24.7249 39.0892 24.845L43.621 29.7324C43.7332 29.8484 43.887 29.917 44.0499 29.9239C44.2129 29.9308 44.3722 29.8754 44.4941 29.7693L53.9755 21.1357C54.0958 21.0251 54.1669 20.8726 54.1733 20.7112C54.1794 20.5488 54.1195 20.3907 54.0069 20.2714L52.848 19.0411C52.7347 18.9232 52.5784 18.8539 52.4132 18.8482C52.248 18.8424 52.0872 18.9007 51.9655 19.0103L44.447 25.8631C44.4168 25.8909 44.3812 25.9125 44.3424 25.9268C44.3036 25.941 44.2623 25.9476 44.2209 25.9461C44.1792 25.9444 44.1383 25.9345 44.1005 25.9171C44.0628 25.8996 44.029 25.875 44.001 25.8446L41.2719 22.9042C41.2129 22.8411 41.1411 22.7906 41.061 22.7562C40.981 22.7218 40.8945 22.7041 40.8071 22.7043Z" fill="#212121"/>
<path d="M55.2507 34.3369H52.5436C52.4603 34.3369 52.3804 34.3045 52.3215 34.2468C52.2626 34.1891 52.2295 34.1109 52.2295 34.0293C52.2295 33.9477 52.2626 33.8695 52.3215 33.8118C52.3804 33.7541 52.4603 33.7217 52.5436 33.7217H55.2507C55.334 33.7217 55.4139 33.7541 55.4728 33.8118C55.5317 33.8695 55.5648 33.9477 55.5648 34.0293C55.5648 34.1109 55.5317 34.1891 55.4728 34.2468C55.4139 34.3045 55.334 34.3369 55.2507 34.3369Z" fill="#DFEAEF"/>
<path d="M49.6131 34.3369H37.8517C37.7684 34.3369 37.6885 34.3045 37.6296 34.2468C37.5707 34.1891 37.5376 34.1109 37.5376 34.0293C37.5376 33.9477 37.5707 33.8695 37.6296 33.8118C37.6885 33.7541 37.7684 33.7217 37.8517 33.7217H49.6194C49.7027 33.7217 49.7826 33.7541 49.8415 33.8118C49.9004 33.8695 49.9334 33.9477 49.9334 34.0293C49.9334 34.1109 49.9004 34.1891 49.8415 34.2468C49.7826 34.3045 49.7027 34.3369 49.6194 34.3369H49.6131Z" fill="#DFEAEF"/>
<path d="M55.2505 37.0496H45.2823C45.199 37.0496 45.1191 37.0172 45.0602 36.9596C45.0013 36.9019 44.9683 36.8236 44.9683 36.7421C44.9683 36.6605 45.0013 36.5823 45.0602 36.5246C45.1191 36.4669 45.199 36.4345 45.2823 36.4345H55.2505C55.3338 36.4345 55.4137 36.4669 55.4726 36.5246C55.5315 36.5823 55.5646 36.6605 55.5646 36.7421C55.5646 36.8236 55.5315 36.9019 55.4726 36.9596C55.4137 37.0172 55.3338 37.0496 55.2505 37.0496Z" fill="#DFEAEF"/>
<path d="M42.5437 37.0496H37.8517C37.7684 37.0496 37.6885 37.0172 37.6296 36.9596C37.5707 36.9019 37.5376 36.8236 37.5376 36.7421C37.5376 36.6605 37.5707 36.5823 37.6296 36.5246C37.6885 36.4669 37.7684 36.4345 37.8517 36.4345H42.5625C42.6458 36.4345 42.7257 36.4669 42.7846 36.5246C42.8435 36.5823 42.8766 36.6605 42.8766 36.7421C42.8766 36.8236 42.8435 36.9019 42.7846 36.9596C42.7257 37.0172 42.6458 37.0496 42.5625 37.0496H42.5437Z" fill="#DFEAEF"/>
<path d="M48.9756 39.7625H37.8517C37.7684 39.7625 37.6885 39.7301 37.6296 39.6724C37.5707 39.6147 37.5376 39.5365 37.5376 39.4549C37.5376 39.3733 37.5707 39.2951 37.6296 39.2374C37.6885 39.1797 37.7684 39.1473 37.8517 39.1473H48.9818C49.0651 39.1473 49.145 39.1797 49.2039 39.2374C49.2628 39.2951 49.2959 39.3733 49.2959 39.4549C49.2959 39.5365 49.2628 39.6147 49.2039 39.6724C49.145 39.7301 49.0651 39.7625 48.9818 39.7625H48.9756Z" fill="#DFEAEF"/>
</svg>
