<svg width="78" height="70" viewBox="0 0 78 70" fill="none" xmlns="http://www.w3.org/2000/svg">
<path d="M61.6827 29.019C61.2995 29.0195 60.9264 28.8969 60.6198 28.6696C60.3132 28.4424 60.0896 28.1228 59.9827 27.759L54.7255 9.32945C54.4094 8.15961 53.7177 7.12271 52.7544 6.37447C51.7911 5.62622 50.6082 5.20703 49.3832 5.17985H21.941C20.7135 5.20249 19.5267 5.61917 18.56 6.36699C17.5932 7.1148 16.8988 8.15314 16.5817 9.32525L11.3415 27.7423C11.1976 28.168 10.8935 28.5227 10.4922 28.7328C10.0908 28.943 9.62304 28.9924 9.18581 28.8709C8.74858 28.7493 8.37545 28.4662 8.14378 28.0801C7.91211 27.694 7.83967 27.2347 7.94148 26.7973L13.1817 8.38025C13.71 6.47749 14.8502 4.79615 16.4303 3.59C18.0104 2.38384 19.9446 1.71831 21.941 1.69385H49.3832C51.3771 1.72287 53.3075 2.39092 54.8841 3.59751C56.4607 4.8041 57.5982 6.48398 58.1255 8.38445L63.3657 26.8014C63.4912 27.247 63.4329 27.7235 63.2035 28.1266C62.974 28.5297 62.5922 28.8265 62.1417 28.9519C61.9926 28.9952 61.8381 29.0178 61.6827 29.019Z" fill="white"/>
<path d="M61.6819 29.4391C61.2017 29.4415 60.734 29.2883 60.3502 29.0032C59.9665 28.718 59.6878 28.3164 59.5569 27.8599L54.3294 9.44287C54.0389 8.35833 53.399 7.39673 52.5065 6.7034C51.614 6.01008 50.5174 5.62271 49.3824 5.59987H21.9401C20.8051 5.62224 19.7083 6.00884 18.8151 6.70132C17.922 7.3938 17.281 8.35458 16.9889 9.43867L11.7486 27.8599C11.5768 28.3962 11.2008 28.8455 10.6999 29.1128C10.1991 29.3801 9.61267 29.4445 9.06466 29.2923C8.51665 29.1401 8.04998 28.7834 7.76329 28.2974C7.4766 27.8114 7.39236 27.2343 7.52837 26.6881L12.7729 8.27107C13.3241 6.27881 14.517 4.51821 16.171 3.2557C17.8251 1.99318 19.8503 1.29748 21.9401 1.27386H49.3824C51.4718 1.29885 53.4964 1.99507 55.1501 3.25737C56.8039 4.51967 57.9972 6.2795 58.5496 8.27107L63.7899 26.6881C63.8693 26.9609 63.8929 27.2467 63.8593 27.5286C63.8257 27.8106 63.7357 28.0831 63.5944 28.3303C63.4024 28.6649 63.1245 28.9436 62.7887 29.1383C62.4529 29.333 62.0711 29.4367 61.6819 29.4391ZM21.9401 4.75987H49.3824C50.7029 4.78303 51.98 5.23041 53.0205 6.03436C54.061 6.83832 54.8083 7.95516 55.1496 9.21607L60.3899 27.6331C60.4907 27.9692 60.7205 28.253 61.0302 28.4241C61.3398 28.5951 61.7048 28.6398 62.0474 28.5487C62.3884 28.4518 62.677 28.2259 62.8505 27.92C63.0239 27.6141 63.0683 27.2529 62.9739 26.9149L57.7294 8.49787C57.2283 6.68233 56.1428 5.07736 54.6368 3.92559C53.1309 2.77381 51.2865 2.13786 49.3824 2.11386H21.9401C20.0357 2.13832 18.1909 2.77438 16.6844 3.92601C15.1779 5.07764 14.0914 6.68234 13.5889 8.49787L8.34862 26.9149C8.29966 27.0818 8.28534 27.2567 8.30652 27.4292C8.3277 27.6017 8.38394 27.7682 8.47187 27.9187C8.55673 28.0711 8.67146 28.2054 8.80937 28.3135C8.94728 28.4217 9.10561 28.5016 9.27512 28.5487C9.6172 28.6431 9.9832 28.5998 10.293 28.4282C10.6029 28.2566 10.8313 27.9707 10.9284 27.6331L16.1729 9.21607C16.5142 7.95516 17.2615 6.83832 18.302 6.03436C19.3425 5.23041 20.6196 4.78303 21.9401 4.75987Z" fill="#212121"/>
<path d="M58.5069 66.9198H12.8152C11.9367 66.9197 11.0883 66.6033 10.4288 66.0296C9.76938 65.456 9.34405 64.6646 9.23243 63.8034L4.98242 30.7242H66.3227L62.0727 63.8034C61.9632 64.6625 61.5408 65.4526 60.8845 66.0262C60.2282 66.5998 59.383 66.9174 58.5069 66.9198Z" fill="#FF651D"/>
<path d="M58.5074 67.34H12.8114C11.8306 67.3388 10.8838 66.9847 10.1478 66.3439C9.41187 65.7032 8.93709 64.8196 8.81217 63.8582L4.57492 30.8C4.56823 30.7411 4.57423 30.6815 4.59254 30.625C4.61086 30.5685 4.64106 30.5165 4.68117 30.4724C4.721 30.4276 4.77002 30.3917 4.82498 30.3671C4.87994 30.3425 4.93957 30.3297 4.99992 30.3297H66.3232C66.3835 30.3297 66.4431 30.3425 66.4981 30.3671C66.5531 30.3917 66.6021 30.4276 66.6419 30.4724C66.6813 30.5169 66.7107 30.569 66.7283 30.6255C66.7458 30.6819 66.7512 30.7414 66.7439 30.8L62.4939 63.8834C62.3644 64.8385 61.8893 65.7148 61.1564 66.3503C60.4235 66.9858 59.4824 67.3374 58.5074 67.34ZM5.48017 31.1612L9.67492 63.7658C9.77209 64.525 10.1459 65.223 10.7264 65.7294C11.3068 66.2358 12.0541 66.5157 12.8284 66.5168H58.5074C59.2821 66.5159 60.03 66.2361 60.6112 65.7298C61.1923 65.2235 61.567 64.5253 61.6651 63.7658L65.8386 31.1612H5.48017Z" fill="#212121"/>
<path d="M66.7789 26.3981H4.54622C2.57691 26.3981 0.980469 27.9757 0.980469 29.9219V30.2285C0.980469 32.1746 2.57691 33.7523 4.54622 33.7523H66.7789C68.7483 33.7523 70.3447 32.1746 70.3447 30.2285V29.9219C70.3447 27.9757 68.7483 26.3981 66.7789 26.3981Z" fill="#FF651D"/>
<path d="M66.7739 34.1598H4.54544C3.48698 34.1576 2.47258 33.7408 1.72453 33.0008C0.976488 32.2608 0.55581 31.2578 0.554688 30.2118V29.9136C0.55581 28.8676 0.976488 27.8647 1.72453 27.1247C2.47258 26.3847 3.48698 25.9679 4.54544 25.9656H66.7739C67.8331 25.9667 68.8486 26.3831 69.5976 27.1232C70.3465 27.8634 70.7678 28.8669 70.7689 29.9136V30.2118C70.7678 31.2586 70.3465 32.2621 69.5976 33.0023C68.8486 33.7424 67.8331 34.1587 66.7739 34.1598ZM4.54544 26.8182C3.71241 26.8205 2.91421 27.1488 2.32557 27.7313C1.73693 28.3138 1.40581 29.103 1.40469 29.9262V30.2244C1.40581 31.0477 1.73693 31.8369 2.32557 32.4194C2.91421 33.0019 3.71241 33.3302 4.54544 33.3324H66.7739C67.6077 33.3313 68.407 33.0035 68.9966 32.4209C69.5861 31.8383 69.9178 31.0484 69.9189 30.2244V29.9262C69.9178 29.1023 69.5861 28.3124 68.9966 27.7298C68.407 27.1472 67.6077 26.8193 66.7739 26.8182H4.54544Z" fill="#212121"/>
<path d="M17.9965 36.3861H17.9923C16.4713 36.3861 15.2383 37.6046 15.2383 39.1077V59.3013C15.2383 60.8044 16.4713 62.0229 17.9923 62.0229H17.9965C19.5175 62.0229 20.7505 60.8044 20.7505 59.3013V39.1077C20.7505 37.6046 19.5175 36.3861 17.9965 36.3861Z" fill="white"/>
<path d="M17.9977 62.4428C17.1542 62.4428 16.3452 62.1119 15.7483 61.5229C15.1515 60.9338 14.8156 60.1347 14.8145 59.3012V39.1117C14.8145 38.2763 15.1503 37.4751 15.7481 36.8843C16.3458 36.2936 17.1566 35.9617 18.002 35.9617C18.8473 35.9617 19.6581 36.2936 20.2559 36.8843C20.8536 37.4751 21.1895 38.2763 21.1895 39.1117V59.3012C21.1889 59.7146 21.1059 60.1239 20.9451 60.5057C20.7844 60.8874 20.549 61.2341 20.2526 61.5258C19.9562 61.8176 19.6044 62.0488 19.2175 62.2061C18.8306 62.3634 18.4161 62.4439 17.9977 62.4428ZM17.9977 36.8227C17.6913 36.8227 17.3879 36.8824 17.1048 36.9983C16.8217 37.1141 16.5645 37.284 16.3478 37.4981C16.1312 37.7122 15.9593 37.9664 15.8421 38.2461C15.7248 38.5259 15.6645 38.8257 15.6645 39.1285V59.318C15.6645 59.9306 15.9107 60.5182 16.3491 60.9514C16.7875 61.3846 17.382 61.628 18.002 61.628C18.6219 61.628 19.2165 61.3846 19.6548 60.9514C20.0932 60.5182 20.3395 59.9306 20.3395 59.318V39.1117C20.3395 38.8082 20.2788 38.5077 20.161 38.2274C20.0433 37.9471 19.8706 37.6925 19.6531 37.4783C19.4355 37.2641 19.1773 37.0944 18.8932 36.979C18.6091 36.8637 18.3048 36.8048 17.9977 36.8059V36.8227Z" fill="#212121"/>
<path d="M29.7739 36.3861H29.7696C28.2486 36.3861 27.0156 37.6046 27.0156 39.1077V59.3013C27.0156 60.8044 28.2486 62.0229 29.7696 62.0229H29.7739C31.2949 62.0229 32.5279 60.8044 32.5279 59.3013V39.1077C32.5279 37.6046 31.2949 36.3861 29.7739 36.3861Z" fill="white"/>
<path d="M29.7731 62.4428C28.9296 62.4428 28.1205 62.1119 27.5237 61.5229C26.9268 60.9338 26.591 60.1347 26.5898 59.3012V39.1117C26.5898 38.2763 26.9257 37.4751 27.5234 36.8843C28.1212 36.2936 28.932 35.9617 29.7773 35.9617C30.6227 35.9617 31.4335 36.2936 32.0313 36.8843C32.629 37.4751 32.9649 38.2763 32.9649 39.1117V59.3012C32.9643 59.7146 32.8813 60.1239 32.7205 60.5057C32.5598 60.8874 32.3244 61.2341 32.028 61.5258C31.7316 61.8176 31.3798 62.0488 30.9929 62.2061C30.606 62.3634 30.1915 62.4439 29.7731 62.4428ZM29.7731 36.8227C29.4667 36.8227 29.1633 36.8824 28.8802 36.9983C28.5971 37.1141 28.3399 37.284 28.1232 37.4981C27.9066 37.7122 27.7347 37.9664 27.6174 38.2461C27.5002 38.5259 27.4398 38.8257 27.4398 39.1285V59.318C27.4398 59.9306 27.6861 60.5182 28.1245 60.9514C28.5629 61.3846 29.1574 61.628 29.7773 61.628C30.3973 61.628 30.9918 61.3846 31.4302 60.9514C31.8686 60.5182 32.1149 59.9306 32.1149 59.318V39.1117C32.1149 38.8082 32.0542 38.5077 31.9364 38.2274C31.8186 37.9471 31.646 37.6925 31.4285 37.4783C31.2109 37.2641 30.9527 37.0944 30.6686 36.979C30.3845 36.8637 30.0802 36.8048 29.7731 36.8059V36.8227Z" fill="#212121"/>
<path d="M41.5532 36.3861H41.5489C40.0279 36.3861 38.7949 37.6046 38.7949 39.1077V59.3013C38.7949 60.8044 40.0279 62.0229 41.5489 62.0229H41.5532C43.0742 62.0229 44.3072 60.8044 44.3072 59.3013V39.1077C44.3072 37.6046 43.0742 36.3861 41.5532 36.3861Z" fill="white"/>
<path d="M41.5501 62.4427C40.707 62.4427 39.8984 62.1117 39.3022 61.5226C38.706 60.9334 38.3711 60.1343 38.3711 59.3011V39.1117C38.3711 38.2763 38.7069 37.4751 39.3047 36.8843C39.9025 36.2936 40.7132 35.9617 41.5586 35.9617C42.404 35.9617 43.2147 36.2936 43.8125 36.8843C44.4103 37.4751 44.7461 38.2763 44.7461 39.1117V59.3011C44.7455 59.715 44.6624 60.1246 44.5013 60.5066C44.3403 60.8886 44.1046 61.2355 43.8077 61.5273C43.5108 61.8191 43.1586 62.0502 42.7712 62.2073C42.3838 62.3644 41.9688 62.4444 41.5501 62.4427ZM41.5501 36.8227C40.932 36.8238 40.3396 37.0673 39.903 37.4996C39.4663 37.9319 39.2211 38.5177 39.2211 39.1285V59.3179C39.2211 59.9306 39.4674 60.5182 39.9057 60.9514C40.3441 61.3846 40.9387 61.6279 41.5586 61.6279C42.1785 61.6279 42.7731 61.3846 43.2115 60.9514C43.6498 60.5182 43.8961 59.9306 43.8961 59.3179V39.1117C43.8961 38.8079 43.8353 38.507 43.7173 38.2264C43.5992 37.9458 43.4262 37.6911 43.2082 37.4768C42.9902 37.2625 42.7315 37.093 42.4469 36.9778C42.1624 36.8627 41.8576 36.8043 41.5501 36.8059V36.8227Z" fill="#212121"/>
<path d="M53.3305 36.3861H53.3263C51.8053 36.3861 50.5723 37.6046 50.5723 39.1077V59.3013C50.5723 60.8044 51.8053 62.0229 53.3263 62.0229H53.3305C54.8515 62.0229 56.0845 60.8044 56.0845 59.3013V39.1077C56.0845 37.6046 54.8515 36.3861 53.3305 36.3861Z" fill="white"/>
<path d="M53.3274 62.4428C52.4843 62.4428 51.6757 62.1118 51.0795 61.5226C50.4834 60.9334 50.1484 60.1344 50.1484 59.3011V39.1117C50.1484 38.2763 50.4843 37.4751 51.082 36.8843C51.6798 36.2936 52.4906 35.9617 53.3359 35.9617C54.1813 35.9617 54.9921 36.2936 55.5898 36.8843C56.1876 37.4751 56.5234 38.2763 56.5234 39.1117V59.3011C56.5235 59.7151 56.4407 60.125 56.2798 60.5073C56.119 60.8895 55.8833 61.2366 55.5863 61.5286C55.2893 61.8205 54.9369 62.0516 54.5492 62.2084C54.1616 62.3653 53.7463 62.445 53.3274 62.4428ZM53.3274 36.8227C52.7094 36.8238 52.117 37.0673 51.6803 37.4996C51.2437 37.9319 50.9984 38.5177 50.9984 39.1285V59.3179C50.9984 59.9306 51.2447 60.5182 51.6831 60.9514C52.1214 61.3846 52.716 61.6279 53.3359 61.6279C53.9559 61.6279 54.5504 61.3846 54.9888 60.9514C55.4272 60.5182 55.6734 59.9306 55.6734 59.3179V39.1117C55.6734 38.8079 55.6127 38.507 55.4946 38.2264C55.3766 37.9458 55.2036 37.6911 54.9855 37.4768C54.7675 37.2625 54.5088 37.093 54.2243 36.9778C53.9397 36.8627 53.6349 36.8043 53.3274 36.8059V36.8227Z" fill="#212121"/>
<path d="M43.9219 0.438232H27.4021C25.7098 0.438232 24.3379 1.794 24.3379 3.46643V3.47063C24.3379 5.14306 25.7098 6.49883 27.4021 6.49883H43.9219C45.6142 6.49883 46.9862 5.14306 46.9862 3.47063V3.46643C46.9862 1.794 45.6142 0.438232 43.9219 0.438232Z" fill="#FF651D"/>
<path d="M43.9184 6.91875H27.4029C26.498 6.88755 25.6407 6.51037 25.0118 5.86672C24.3828 5.22307 24.0312 4.36324 24.0312 3.46845C24.0312 2.57367 24.3828 1.71383 25.0118 1.07018C25.6407 0.426533 26.498 0.0493569 27.4029 0.0181524H43.9184C44.3872 0.00198807 44.8544 0.0792665 45.2923 0.245382C45.7301 0.411498 46.1297 0.663049 46.4671 0.985035C46.8045 1.30702 47.0728 1.69285 47.256 2.11951C47.4393 2.54618 47.5338 3.00494 47.5338 3.46845C47.5338 3.93196 47.4393 4.39073 47.256 4.81739C47.0728 5.24406 46.8045 5.62988 46.4671 5.95187C46.1297 6.27385 45.7301 6.52541 45.2923 6.69152C44.8544 6.85764 44.3872 6.93492 43.9184 6.91875ZM27.4029 0.858152C26.7207 0.885201 26.0756 1.17204 25.6026 1.65861C25.1296 2.14518 24.8654 2.79373 24.8654 3.46845C24.8654 4.14317 25.1296 4.79173 25.6026 5.27829C26.0756 5.76486 26.7207 6.0517 27.4029 6.07875H43.9184C44.2742 6.09286 44.6292 6.03579 44.9621 5.91096C45.295 5.78614 45.599 5.59614 45.8558 5.35236C46.1126 5.10858 46.3169 4.81605 46.4564 4.49232C46.596 4.16859 46.6679 3.82033 46.6679 3.46845C46.6679 3.11657 46.596 2.76831 46.4564 2.44458C46.3169 2.12085 46.1126 1.82832 45.8558 1.58455C45.599 1.34077 45.295 1.15076 44.9621 1.02594C44.6292 0.901115 44.2742 0.844046 43.9184 0.858152H27.4029Z" fill="#212121"/>
<path d="M61.8826 69.5576C70.2434 69.5576 77.0211 62.8596 77.0211 54.5972C77.0211 46.3348 70.2434 39.6368 61.8826 39.6368C53.5219 39.6368 46.7441 46.3348 46.7441 54.5972C46.7441 62.8596 53.5219 69.5576 61.8826 69.5576Z" fill="white"/>
<path d="M61.8825 69.9816C58.8034 69.9824 55.7931 69.0809 53.2324 67.3909C50.6718 65.7009 48.6757 63.2985 47.4968 60.4874C46.3179 57.6763 46.009 54.5828 46.6092 51.5982C47.2094 48.6136 48.6917 45.8719 50.8687 43.7199C53.0458 41.5679 55.8197 40.1023 58.8396 39.5083C61.8596 38.9144 64.99 39.2188 67.8348 40.3831C70.6797 41.5474 73.1113 43.5193 74.8221 46.0493C76.5329 48.5794 77.446 51.554 77.446 54.597C77.4415 58.6752 75.8005 62.5851 72.8829 65.4692C69.9653 68.3533 66.0092 69.9761 61.8825 69.9816ZM61.8825 40.0566C58.9713 40.0558 56.1252 40.9082 53.7042 42.5061C51.2832 44.1039 49.3962 46.3754 48.2817 49.0333C47.1672 51.6911 46.8754 54.6159 47.4431 57.4377C48.0109 60.2595 49.4127 62.8514 51.4713 64.8858C53.5299 66.9202 56.1527 68.3055 59.008 68.8666C61.8634 69.4276 64.823 69.1392 67.5125 68.0379C70.202 66.9365 72.5005 65.0716 74.1174 62.6791C75.7343 60.2867 76.5969 57.474 76.596 54.597C76.596 50.7391 75.0464 47.039 72.2876 44.3095C69.5288 41.5799 65.7864 40.0443 61.8825 40.0398V40.0566Z" fill="#212121"/>
<path d="M57.8328 62.569L51.8063 56.0002C51.5839 55.7578 51.4679 55.4381 51.4839 55.1113C51.4998 54.7845 51.6463 54.4773 51.8913 54.2572L53.5658 52.7536C53.8111 52.5338 54.1346 52.4192 54.4653 52.4349C54.796 52.4507 55.1068 52.5955 55.3295 52.8376L58.959 56.7856L68.9551 47.6002C69.1976 47.3778 69.5195 47.2595 69.8501 47.2713C70.1807 47.2831 70.4932 47.424 70.7188 47.6632L72.2573 49.3012C72.3693 49.4196 72.4564 49.5587 72.5139 49.7105C72.5713 49.8623 72.5978 50.0238 72.5919 50.1858C72.5859 50.3477 72.5477 50.5069 72.4793 50.6542C72.411 50.8015 72.3139 50.9341 72.1936 51.0442L59.588 62.6278C59.4692 62.7384 59.3294 62.8247 59.1766 62.8817C59.0239 62.9387 58.8612 62.9652 58.698 62.9597C58.5348 62.9542 58.3744 62.9169 58.2259 62.8498C58.0774 62.7828 57.9438 62.6873 57.8328 62.569Z" fill="#FF651D"/>
<path d="M58.7465 63.3879H58.6742C58.4551 63.3802 58.2399 63.3291 58.0413 63.2374C57.8427 63.1458 57.6648 63.0155 57.5182 62.8545L51.4917 56.2941C51.3438 56.1335 51.2294 55.9456 51.155 55.7412C51.0807 55.5368 51.0479 55.3199 51.0586 55.1029C51.0693 54.886 51.1231 54.6733 51.2172 54.4769C51.3112 54.2806 51.4435 54.1046 51.6065 53.9589L53.281 52.4553C53.6092 52.1605 54.0423 52.0065 54.4853 52.027C54.9283 52.0474 55.345 52.2408 55.644 52.5645L58.9845 56.1975L68.666 47.3061C68.8266 47.1581 69.0152 47.0428 69.221 46.9669C69.4267 46.891 69.6456 46.8559 69.8651 46.8637C70.0846 46.8715 70.3004 46.922 70.5001 47.0124C70.6998 47.1027 70.8795 47.231 71.029 47.3901L72.5717 49.0281C72.7212 49.1871 72.8375 49.3737 72.914 49.5772C72.9904 49.7807 73.0255 49.9971 73.0172 50.214C73.0089 50.4309 72.9574 50.644 72.8657 50.8413C72.7739 51.0385 72.6437 51.2159 72.4825 51.3633L59.877 62.9469C59.5707 63.2308 59.1664 63.3885 58.7465 63.3879ZM54.4072 52.8669C54.2028 52.8652 54.0053 52.9403 53.8547 53.0769L52.176 54.5805C52.0171 54.7273 51.9213 54.9287 51.9082 55.1433C51.9031 55.2496 51.9192 55.3559 51.9557 55.4561C51.9922 55.5562 52.0482 55.6483 52.1207 55.7271L58.1472 62.3001C58.2929 62.4586 58.4961 62.5537 58.7125 62.5647C58.8191 62.5694 58.9256 62.5529 59.0256 62.5161C59.1257 62.4793 59.2172 62.423 59.2947 62.3505L71.9045 50.7669C72.0644 50.6198 72.1587 50.4159 72.1667 50.2002C72.1746 49.9844 72.0956 49.7743 71.947 49.6161L70.4085 47.9781C70.2563 47.8258 70.0511 47.7367 69.8346 47.7288C69.6182 47.721 69.4069 47.7952 69.244 47.9361L59.248 57.1215C59.2068 57.1592 59.1585 57.1886 59.1057 57.2077C59.053 57.2269 58.997 57.2356 58.9409 57.2333C58.8848 57.2309 58.8297 57.2176 58.7788 57.1941C58.7279 57.1706 58.6823 57.1373 58.6445 57.0963L55.015 53.1483C54.9395 53.0617 54.8463 52.9918 54.7415 52.9433C54.6368 52.8948 54.5229 52.8688 54.4072 52.8669Z" fill="#212121"/>
</svg>
