<svg width="65" height="74" viewBox="0 0 65 74" fill="none" xmlns="http://www.w3.org/2000/svg">
<path d="M8.30923 15.8971C8.22795 15.8965 8.14887 15.8706 8.08303 15.8229L3.48103 12.4846C3.39725 12.4235 3.34114 12.3317 3.32505 12.2293C3.30896 12.1269 3.33421 12.0223 3.39523 11.9386C3.45626 11.8548 3.54807 11.7987 3.65046 11.7826C3.75286 11.7665 3.85745 11.7917 3.94123 11.8528L8.55103 15.1912C8.63449 15.2514 8.69076 15.3422 8.70756 15.4437C8.72436 15.5453 8.70034 15.6493 8.64073 15.7333C8.60334 15.7858 8.55349 15.8283 8.49563 15.8569C8.43777 15.8855 8.37373 15.8993 8.30923 15.8971Z" fill="#DFEAEF"/>
<path d="M2.37871 44.7651C2.31947 44.7654 2.26094 44.7522 2.20756 44.7265C2.15417 44.7009 2.10734 44.6634 2.07061 44.6169C2.00728 44.5356 1.9787 44.4325 1.99113 44.3302C2.00355 44.2279 2.05596 44.1347 2.13691 44.0709L6.75061 40.4556C6.83238 40.4008 6.93182 40.379 7.029 40.3945C7.12618 40.41 7.2139 40.4617 7.27459 40.5391C7.33528 40.6166 7.36444 40.7141 7.35623 40.8122C7.34802 40.9103 7.30304 41.0016 7.23031 41.0679L2.62051 44.6832C2.55139 44.7368 2.46622 44.7657 2.37871 44.7651Z" fill="#DFEAEF"/>
<path d="M8.31162 26.7158H0.843125C0.739691 26.7158 0.640492 26.6747 0.567353 26.6016C0.494214 26.5284 0.453125 26.4292 0.453125 26.3258C0.453125 26.2224 0.494214 26.1232 0.567353 26.05C0.640492 25.9769 0.739691 25.9358 0.843125 25.9358H8.31162C8.41506 25.9358 8.51426 25.9769 8.5874 26.05C8.66054 26.1232 8.70162 26.2224 8.70162 26.3258C8.70162 26.4292 8.66054 26.5284 8.5874 26.6016C8.51426 26.6747 8.41506 26.7158 8.31162 26.7158Z" fill="#DFEAEF"/>
<path d="M56.9109 15.897C56.8284 15.8973 56.7479 15.8714 56.681 15.8231C56.6141 15.7747 56.5643 15.7064 56.5387 15.6279C56.5132 15.5494 56.5131 15.4649 56.5387 15.3864C56.5642 15.3079 56.614 15.2395 56.6808 15.1911L61.2945 11.8527C61.3358 11.8202 61.3833 11.7964 61.434 11.7827C61.4848 11.7691 61.5378 11.7658 61.5898 11.7731C61.6419 11.7804 61.6919 11.7981 61.7369 11.8253C61.7819 11.8524 61.821 11.8883 61.8518 11.9309C61.8825 11.9736 61.9044 12.0219 61.916 12.0732C61.9276 12.1245 61.9287 12.1775 61.9193 12.2293C61.9099 12.281 61.8901 12.3302 61.8611 12.3741C61.8322 12.418 61.7947 12.4555 61.7508 12.4845L57.1527 15.8229C57.0826 15.8738 56.9975 15.8999 56.9109 15.897Z" fill="#DFEAEF"/>
<path d="M62.8476 44.7648C62.7614 44.7645 62.6778 44.7357 62.6097 44.6829L57.996 41.0676C57.9558 41.0359 57.9222 40.9965 57.8972 40.9518C57.8722 40.907 57.8563 40.8578 57.8503 40.807C57.8443 40.7561 57.8484 40.7045 57.8624 40.6552C57.8764 40.6059 57.8999 40.5599 57.9316 40.5197C57.9634 40.4795 58.0028 40.4459 58.0475 40.4209C58.0922 40.3959 58.1414 40.38 58.1923 40.374C58.2432 40.368 58.2947 40.3721 58.344 40.3861C58.3933 40.4 58.4394 40.4236 58.4796 40.4553L63.0894 44.0706C63.1703 44.1344 63.2228 44.2276 63.2352 44.3299C63.2476 44.4322 63.219 44.5353 63.1557 44.6166C63.119 44.6631 63.0721 44.7006 63.0187 44.7263C62.9654 44.752 62.9068 44.7651 62.8476 44.7648Z" fill="#DFEAEF"/>
<path d="M64.3897 26.7158H56.9095C56.8061 26.7158 56.7069 26.6747 56.6338 26.6016C56.5606 26.5284 56.5195 26.4292 56.5195 26.3258C56.5195 26.2224 56.5606 26.1232 56.6338 26.05C56.7069 25.9769 56.8061 25.9358 56.9095 25.9358H64.378C64.4815 25.9358 64.5807 25.9769 64.6538 26.05C64.727 26.1232 64.768 26.2224 64.768 26.3258C64.768 26.4292 64.727 26.5284 64.6538 26.6016C64.5807 26.6747 64.4815 26.7158 64.378 26.7158H64.3897Z" fill="#DFEAEF"/>
<path d="M23.3697 22.96C23.3697 22.96 15.8583 25.0894 15.3591 26.665C15.3591 26.665 12.3015 30.5299 11.6931 35.3503C11.3967 37.6903 12.2313 42.8149 13.3779 45.0574C15.7179 49.6282 17.9994 53.8636 17.9994 53.8636L16.5564 60.6379L38.0376 66.1954L40.3776 56.9524C40.3776 56.9524 44.8665 54.2224 46.4694 50.2639C48.0723 46.3054 47.3508 23.2798 44.8665 20.3119C42.3822 17.344 23.3697 22.96 23.3697 22.96Z" fill="#FFC9B0"/>
<path d="M38.0288 66.5856C37.9964 66.5897 37.9637 66.5897 37.9313 66.5856L16.4501 61.0281C16.3523 61.0031 16.2681 60.9412 16.215 60.8554C16.1619 60.7696 16.1441 60.6665 16.1654 60.5679L17.5772 53.9379C17.1872 53.1969 15.1085 49.3359 13.022 45.2526C11.8832 43.0257 10.9823 37.8426 11.2982 35.3193C11.8832 30.6822 14.6288 26.9772 15.0071 26.4858C15.7013 24.8166 21.9803 22.9758 23.2517 22.5858C25.2329 22.0008 42.5723 16.9893 45.1463 20.0625C47.6579 23.0616 48.4886 46.2549 46.8116 50.4084C45.3179 54.1095 41.4881 56.6952 40.6964 57.1983L38.4071 66.2931C38.3812 66.393 38.3166 66.4786 38.2277 66.531C38.1671 66.5657 38.0987 66.5845 38.0288 66.5856ZM17.0039 60.3456L37.7441 65.712L39.9788 56.8473C40.0038 56.748 40.0669 56.6626 40.1543 56.6094C40.1972 56.5821 44.5535 53.9106 46.0862 50.1081C47.6657 46.2081 46.8857 23.3463 44.5457 20.5539C44.0231 19.9299 41.8586 19.1421 33.2357 20.8971C28.2476 21.915 23.4857 23.3112 23.4506 23.3268C20.4164 24.1887 16.0094 25.8267 15.7091 26.7744C15.6925 26.8187 15.6702 26.8606 15.6428 26.8992C15.6116 26.9343 12.6437 30.7407 12.0548 35.3934C11.7584 37.7334 12.6359 42.8034 13.7006 44.8743C16.0055 49.3866 18.2948 53.6259 18.3182 53.6688C18.3618 53.7514 18.3742 53.8469 18.3533 53.9379L17.0039 60.3456Z" fill="#093F68"/>
<path d="M45.7687 0.398438H21.4678C19.7813 0.398438 18.4141 1.76562 18.4141 3.45214V50.8059C18.4141 52.4925 19.7813 53.8596 21.4678 53.8596H45.7687C47.4552 53.8596 48.8224 52.4925 48.8224 50.8059V3.45214C48.8224 1.76562 47.4552 0.398438 45.7687 0.398438Z" fill="white"/>
<path d="M45.768 54.2537H21.4671C20.5538 54.2516 19.6785 53.8876 19.033 53.2414C18.3875 52.5951 18.0245 51.7194 18.0234 50.806V3.46005C18.0245 2.54668 18.3875 1.67096 19.033 1.02475C19.6785 0.37853 20.5538 0.0145147 21.4671 0.0124512H45.768C46.6814 0.0145147 47.5567 0.37853 48.2022 1.02475C48.8477 1.67096 49.2107 2.54668 49.2117 3.46005V50.806C49.2107 51.7194 48.8477 52.5951 48.2022 53.2414C47.5567 53.8876 46.6814 54.2516 45.768 54.2537ZM21.4671 0.788552C20.76 0.790617 20.0825 1.07299 19.5831 1.57377C19.0838 2.07455 18.8034 2.75287 18.8034 3.46005V50.806C18.8045 51.5125 19.0853 52.1899 19.5845 52.6898C20.0837 53.1898 20.7606 53.4716 21.4671 53.4736H45.768C46.4749 53.4726 47.1524 53.1911 47.6518 52.6909C48.1512 52.1908 48.4317 51.5129 48.4317 50.806V3.46005C48.4317 2.75323 48.1512 2.07531 47.6518 1.57515C47.1524 1.07499 46.4749 0.793485 45.768 0.792451L21.4671 0.788552Z" fill="#093F68"/>
<path d="M45.4322 6.29517H21.8021C20.919 6.29517 20.2031 7.01107 20.2031 7.89417V45.4356C20.2031 46.3187 20.919 47.0346 21.8021 47.0346H45.4322C46.3153 47.0346 47.0312 46.3187 47.0312 45.4356V7.89417C47.0312 7.01107 46.3153 6.29517 45.4322 6.29517Z" fill="#FF651D"/>
<path d="M45.4355 47.4247H21.8093C21.2821 47.4236 20.7768 47.2138 20.404 46.841C20.0312 46.4682 19.8213 45.9629 19.8203 45.4357V7.89037C19.8213 7.36354 20.0314 6.85863 20.4043 6.48646C20.7772 6.11429 21.2825 5.90527 21.8093 5.90527H45.4433C45.9698 5.90527 46.4747 6.11442 46.847 6.4867C47.2193 6.85898 47.4284 7.36389 47.4284 7.89037V45.4357C47.4284 45.6972 47.3768 45.9562 47.2766 46.1977C47.1764 46.4393 47.0296 46.6587 46.8445 46.8435C46.6594 47.0282 46.4396 47.1747 46.1979 47.2744C45.9561 47.3741 45.697 47.4252 45.4355 47.4247ZM21.8093 6.68527C21.6507 6.68476 21.4936 6.71555 21.3469 6.77589C21.2003 6.83622 21.067 6.9249 20.9547 7.03686C20.8423 7.14881 20.7532 7.28184 20.6924 7.4283C20.6316 7.57476 20.6003 7.73179 20.6003 7.89037V45.4357C20.6003 45.7563 20.7277 46.0638 20.9544 46.2906C21.1812 46.5173 21.4887 46.6447 21.8093 46.6447H45.4433C45.7633 46.6436 46.0698 46.5158 46.2957 46.2892C46.5216 46.0626 46.6484 45.7556 46.6484 45.4357V7.89037C46.6484 7.57076 46.5215 7.26424 46.2955 7.03824C46.0695 6.81224 45.7629 6.68527 45.4433 6.68527H21.8093Z" fill="#093F68"/>
<path d="M28.7609 4.14247C29.0323 4.14247 29.2523 3.92246 29.2523 3.65107C29.2523 3.37967 29.0323 3.15967 28.7609 3.15967C28.4895 3.15967 28.2695 3.37967 28.2695 3.65107C28.2695 3.92246 28.4895 4.14247 28.7609 4.14247Z" fill="#093F68"/>
<path d="M38.9712 4.04123H31.1088C31.0053 4.04123 30.9061 4.00014 30.833 3.927C30.7598 3.85386 30.7188 3.75466 30.7188 3.65123C30.7188 3.54779 30.7598 3.4486 30.833 3.37546C30.9061 3.30232 31.0053 3.26123 31.1088 3.26123H38.9712C39.0746 3.26123 39.1738 3.30232 39.2469 3.37546C39.3201 3.4486 39.3612 3.54779 39.3612 3.65123C39.3612 3.75466 39.3201 3.85386 39.2469 3.927C39.1738 4.00014 39.0746 4.04123 38.9712 4.04123Z" fill="#093F68"/>
<path d="M33.6183 51.9954C34.5747 51.9954 35.3499 51.2202 35.3499 50.2638C35.3499 49.3075 34.5747 48.5322 33.6183 48.5322C32.662 48.5322 31.8867 49.3075 31.8867 50.2638C31.8867 51.2202 32.662 51.9954 33.6183 51.9954Z" fill="white"/>
<path d="M33.6177 52.3855C33.197 52.3863 32.7855 52.2622 32.4353 52.0289C32.0852 51.7957 31.8122 51.4638 31.6508 51.0752C31.4895 50.6867 31.447 50.259 31.5289 49.8463C31.6108 49.4336 31.8133 49.0546 32.1108 48.7571C32.4083 48.4596 32.7874 48.2571 33.2001 48.1752C33.6127 48.0933 34.0404 48.1357 34.429 48.2971C34.8175 48.4584 35.1494 48.7315 35.3827 49.0816C35.6159 49.4317 35.74 49.8432 35.7393 50.2639C35.7382 50.8263 35.5144 51.3653 35.1167 51.763C34.7191 52.1606 34.18 52.3845 33.6177 52.3855ZM33.6177 48.9184C33.3514 48.9176 33.0909 48.9959 32.8691 49.1433C32.6473 49.2907 32.4743 49.5005 32.3718 49.7463C32.2694 49.9921 32.2422 50.2628 32.2937 50.524C32.3451 50.7853 32.473 51.0254 32.661 51.2139C32.849 51.4025 33.0887 51.531 33.3498 51.5833C33.611 51.6355 33.8817 51.6091 34.1278 51.5074C34.3739 51.4056 34.5842 51.2332 34.7322 51.0118C34.8803 50.7905 34.9593 50.5302 34.9593 50.2639C34.9583 49.9081 34.8167 49.567 34.5654 49.315C34.3142 49.063 33.9735 48.9205 33.6177 48.9184Z" fill="#DFEAEF"/>
<path d="M50.1025 21.1155H45.3328C44.2364 21.1155 43.3477 22.0042 43.3477 23.1006V24.3408C43.3477 25.4371 44.2364 26.3259 45.3328 26.3259H50.1025C51.1988 26.3259 52.0876 25.4371 52.0876 24.3408V23.1006C52.0876 22.0042 51.1988 21.1155 50.1025 21.1155Z" fill="#FFC9B0"/>
<path d="M50.0979 26.7157H45.3321C44.7022 26.7157 44.0981 26.4655 43.6527 26.0201C43.2073 25.5747 42.957 24.9706 42.957 24.3406V23.1004C42.957 22.4705 43.2073 21.8664 43.6527 21.421C44.0981 20.9756 44.7022 20.7253 45.3321 20.7253H50.0979C50.7282 20.7253 51.3327 20.9754 51.7788 21.4208C52.2248 21.8661 52.4759 22.4702 52.4769 23.1004V24.3406C52.4759 24.9709 52.2248 25.575 51.7788 26.0203C51.3327 26.4656 50.7282 26.7157 50.0979 26.7157ZM45.3321 21.5053C44.9091 21.5053 44.5034 21.6734 44.2042 21.9725C43.9051 22.2717 43.737 22.6774 43.737 23.1004V24.3406C43.7381 24.7634 43.9064 25.1685 44.2054 25.4674C44.5043 25.7663 44.9094 25.9347 45.3321 25.9357H50.0979C50.5213 25.9357 50.9275 25.7678 51.2272 25.4688C51.527 25.1698 51.6959 24.7641 51.6969 24.3406V23.1004C51.6959 22.677 51.527 22.2713 51.2272 21.9723C50.9275 21.6733 50.5213 21.5053 50.0979 21.5053H45.3321Z" fill="#093F68"/>
<path d="M51.253 27.1331H45.4771C44.301 27.1331 43.3477 28.0864 43.3477 29.2625V30.2141C43.3477 31.3901 44.301 32.3435 45.4771 32.3435H51.253C52.429 32.3435 53.3824 31.3901 53.3824 30.2141V29.2625C53.3824 28.0864 52.429 27.1331 51.253 27.1331Z" fill="#FFC9B0"/>
<path d="M51.2562 32.7336H45.4764C44.8086 32.7325 44.1683 32.4668 43.6961 31.9945C43.2238 31.5223 42.9581 30.882 42.957 30.2142V29.2587C42.9581 28.5912 43.224 27.9513 43.6963 27.4797C44.1687 27.0081 44.8089 26.7432 45.4764 26.7432H51.2562C51.9234 26.7432 52.5632 27.0082 53.035 27.4799C53.5067 27.9517 53.7717 28.5915 53.7717 29.2587V30.2142C53.7717 30.8817 53.5068 31.5219 53.0352 31.9943C52.5636 32.4666 51.9237 32.7325 51.2562 32.7336ZM45.4764 27.5232C45.0158 27.5232 44.574 27.7059 44.2479 28.0312C43.9218 28.3566 43.7381 28.798 43.737 29.2587V30.2142C43.737 30.6755 43.9203 31.1179 44.2465 31.4441C44.5727 31.7703 45.0151 31.9536 45.4764 31.9536H51.2562C51.4856 31.9551 51.7131 31.9113 51.9255 31.8245C52.1379 31.7378 52.331 31.6099 52.4937 31.4483C52.6565 31.2866 52.7857 31.0943 52.8738 30.8825C52.962 30.6707 53.0073 30.4436 53.0073 30.2142V29.2587C53.0063 28.7987 52.8231 28.3579 52.4979 28.0326C52.1726 27.7074 51.7318 27.5242 51.2718 27.5232H45.4764Z" fill="#093F68"/>
<path d="M51.253 33.1467H45.4771C44.301 33.1467 43.3477 34.1001 43.3477 35.2761V36.2277C43.3477 37.4038 44.301 38.3571 45.4771 38.3571H51.253C52.429 38.3571 53.3824 37.4038 53.3824 36.2277V35.2761C53.3824 34.1001 52.429 33.1467 51.253 33.1467Z" fill="#FFC9B0"/>
<path d="M51.2562 38.7511H45.4764C44.8086 38.7501 44.1683 38.4843 43.6961 38.0121C43.2238 37.5398 42.9581 36.8996 42.957 36.2317V35.2762C42.9581 34.6084 43.2238 33.9681 43.6961 33.4959C44.1683 33.0236 44.8086 32.7579 45.4764 32.7568H51.2562C51.9237 32.7579 52.5636 33.0238 53.0352 33.4961C53.5068 33.9685 53.7717 34.6087 53.7717 35.2762V36.22C53.7733 36.5515 53.7094 36.8801 53.5837 37.1869C53.458 37.4936 53.273 37.7726 53.0393 38.0077C52.8057 38.2428 52.5279 38.4296 52.2219 38.5571C51.9159 38.6847 51.5877 38.7506 51.2562 38.7511ZM45.4764 33.5368C45.0151 33.5368 44.5727 33.7201 44.2465 34.0463C43.9203 34.3725 43.737 34.8149 43.737 35.2762V36.22C43.737 36.6814 43.9203 37.1238 44.2465 37.45C44.5727 37.7762 45.0151 37.9594 45.4764 37.9594H51.2562C51.4856 37.961 51.7131 37.9171 51.9255 37.8304C52.1378 37.7437 52.331 37.6158 52.4937 37.4541C52.6565 37.2925 52.7857 37.1002 52.8738 36.8884C52.962 36.6766 53.0073 36.4494 53.0073 36.22V35.2645C53.0073 34.8039 52.8246 34.3621 52.4992 34.036C52.1739 33.7099 51.7325 33.5262 51.2718 33.5251L45.4764 33.5368Z" fill="#093F68"/>
<path d="M50.1025 39.1646H45.3328C44.2364 39.1646 43.3477 40.0533 43.3477 41.1496V42.3899C43.3477 43.4862 44.2364 44.375 45.3328 44.375H50.1025C51.1988 44.375 52.0876 43.4862 52.0876 42.3899V41.1496C52.0876 40.0533 51.1988 39.1646 50.1025 39.1646Z" fill="#FFC9B0"/>
<path d="M50.0979 44.7648H45.3321C44.7022 44.7648 44.0981 44.5146 43.6527 44.0692C43.2073 43.6237 42.957 43.0196 42.957 42.3897V41.1495C42.957 40.5196 43.2073 39.9155 43.6527 39.4701C44.0981 39.0246 44.7022 38.7744 45.3321 38.7744H50.0979C50.7282 38.7744 51.3327 39.0245 51.7788 39.4698C52.2248 39.9151 52.4759 40.5192 52.4769 41.1495V42.3897C52.4759 43.02 52.2248 43.6241 51.7788 44.0694C51.3327 44.5147 50.7282 44.7648 50.0979 44.7648ZM45.3321 39.5544C44.9094 39.5554 44.5043 39.7238 44.2054 40.0227C43.9064 40.3217 43.7381 40.7268 43.737 41.1495V42.3897C43.737 42.8128 43.9051 43.2185 44.2042 43.5176C44.5034 43.8168 44.9091 43.9848 45.3321 43.9848H50.0979C50.5213 43.9848 50.9275 43.8169 51.2272 43.5179C51.527 43.2188 51.6959 42.8131 51.6969 42.3897V41.1495C51.6959 40.7261 51.527 40.3204 51.2272 40.0214C50.9275 39.7223 50.5213 39.5544 50.0979 39.5544H45.3321Z" fill="#093F68"/>
<path d="M16.5572 36.3681C16.5572 36.3681 23.9945 26.9769 25.457 23.0535C26.2838 20.8266 23.6786 19.3758 22.8713 19.446C20.0516 19.6995 15.7031 26.1735 15.7031 26.1735" fill="#FFC9B0"/>
<path d="M16.5561 36.7584C16.4826 36.7588 16.4106 36.7384 16.3482 36.6997C16.2858 36.6609 16.2356 36.6053 16.2034 36.5393C16.1712 36.4733 16.1583 36.3995 16.1662 36.3265C16.1741 36.2535 16.2024 36.1842 16.248 36.1266C16.3221 36.033 23.658 26.7393 25.0893 22.9173C25.2198 22.5949 25.2602 22.2431 25.2059 21.8995C25.1516 21.556 25.0048 21.2337 24.7812 20.9673C24.2001 20.1873 23.2212 19.7973 22.9053 19.8207C20.7447 20.0157 17.2074 24.6177 16.0257 26.3766C15.9679 26.4614 15.879 26.5201 15.7782 26.5398C15.6774 26.5595 15.573 26.5387 15.4875 26.4819C15.4446 26.4535 15.4078 26.417 15.379 26.3744C15.3503 26.3318 15.3303 26.2839 15.3202 26.2335C15.31 26.1831 15.3099 26.1313 15.3199 26.0808C15.3299 26.0304 15.3497 25.9825 15.3783 25.9398C15.5616 25.6707 19.8633 19.3098 22.8351 19.0446C23.4747 18.9861 24.6954 19.5672 25.4013 20.4915C25.7029 20.8606 25.9005 21.3035 25.9739 21.7744C26.0472 22.2454 25.9936 22.7274 25.8186 23.1708C24.3561 27.1098 17.1645 36.2124 16.8486 36.5946C16.8151 36.6419 16.7714 36.6812 16.7208 36.7095C16.6702 36.7378 16.6139 36.7545 16.5561 36.7584Z" fill="#093F68"/>
<path d="M39.8954 66.8079L13.6445 61.0944L15.0602 56.0127L41.0186 61.4298L39.8954 66.8079Z" fill="white"/>
<path d="M39.8967 67.1977C39.8695 67.2015 39.842 67.2015 39.8148 67.1977L13.5639 61.4803C13.5118 61.4702 13.4625 61.449 13.4194 61.418C13.3763 61.387 13.3404 61.3471 13.3143 61.3009C13.2869 61.2557 13.269 61.2055 13.2616 61.1532C13.2543 61.1009 13.2576 61.0476 13.2714 60.9967L14.6871 55.9267C14.7137 55.8312 14.7757 55.7494 14.8605 55.6979C14.9452 55.6465 15.0464 55.6293 15.1434 55.6498L41.1018 61.0669C41.2026 61.0881 41.291 61.1484 41.3475 61.2346C41.4036 61.321 41.4233 61.4262 41.4021 61.5271L40.2789 66.9091C40.2576 67.0099 40.1974 67.0983 40.1112 67.1548C40.0452 67.1893 39.9708 67.2041 39.8967 67.1977ZM14.1333 60.79L39.5964 66.3358L40.5597 61.7221L15.3423 56.461L14.1333 60.79Z" fill="#093F68"/>
<path d="M41.7679 73.5975L42.349 66.8076L11.0554 60.6924L6.61328 73.5975H41.7679Z" fill="#FF651D"/>
<path d="M41.7695 73.9915H6.5993C6.53676 73.9919 6.47507 73.9771 6.41941 73.9486C6.36375 73.9201 6.31576 73.8787 6.27949 73.8277C6.24328 73.7769 6.21977 73.7182 6.21095 73.6564C6.20213 73.5947 6.20825 73.5317 6.2288 73.4728L10.6709 60.5638C10.702 60.4751 10.7641 60.4005 10.8458 60.3539C10.9275 60.3074 11.0233 60.2919 11.1155 60.3103L42.4091 66.4255C42.5041 66.4435 42.5891 66.4962 42.6474 66.5733C42.7058 66.6504 42.7335 66.7465 42.725 66.8428L42.14 73.6327C42.1325 73.7274 42.0907 73.816 42.0225 73.8821C41.9543 73.9482 41.8643 73.9871 41.7695 73.9915ZM7.1609 73.2115H41.4107L41.9333 67.1236L11.3144 61.141L7.1609 73.2115Z" fill="#093F68"/>
<path d="M25.6166 29.59C25.5417 29.5907 25.4682 29.5699 25.4048 29.53C25.3415 29.4901 25.2909 29.4328 25.2592 29.3649C25.2276 29.297 25.2161 29.2215 25.2262 29.1473C25.2363 29.0731 25.2676 29.0034 25.3163 28.9465L42.0551 9.22417C42.0884 9.18524 42.129 9.15326 42.1747 9.13003C42.2203 9.10681 42.2701 9.09281 42.3212 9.08883C42.3722 9.08484 42.4236 9.09096 42.4723 9.10682C42.521 9.12268 42.5661 9.14798 42.605 9.18127C42.6439 9.21456 42.6759 9.25519 42.6991 9.30084C42.7223 9.34649 42.7363 9.39627 42.7403 9.44733C42.7443 9.4984 42.7382 9.54974 42.7223 9.59844C42.7065 9.64714 42.6812 9.69224 42.6479 9.73117L25.913 29.4535C25.8764 29.4963 25.8309 29.5306 25.7798 29.5542C25.7286 29.5778 25.6729 29.59 25.6166 29.59Z" fill="white"/>
<path d="M24.9299 43.2128C24.8313 43.2125 24.7366 43.1749 24.6647 43.1075C24.5888 43.0376 24.5438 42.9405 24.5394 42.8374C24.535 42.7343 24.5716 42.6337 24.6413 42.5576L39.8513 26.0606C39.9216 25.9846 40.0193 25.9396 40.1228 25.9356C40.2262 25.9316 40.3271 25.9688 40.4031 26.0392C40.4791 26.1095 40.5241 26.2072 40.5281 26.3106C40.5322 26.4141 40.4949 26.515 40.4246 26.591L25.2146 43.088C25.1782 43.1272 25.1342 43.1585 25.0852 43.18C25.0362 43.2015 24.9833 43.2126 24.9299 43.2128Z" fill="white"/>
<path d="M27.3356 15.2653C27.2352 15.2649 27.1388 15.2258 27.0665 15.1561C26.9939 15.083 26.9531 14.9842 26.9531 14.8812C26.9531 14.7781 26.9939 14.6793 27.0665 14.6062L32.2262 9.193C32.2625 9.15644 32.3056 9.12743 32.3532 9.10763C32.4007 9.08783 32.4517 9.07764 32.5031 9.07764C32.5546 9.07764 32.6056 9.08783 32.6531 9.10763C32.7006 9.12743 32.7438 9.15644 32.78 9.193C32.8527 9.26607 32.8934 9.36491 32.8934 9.46795C32.8934 9.57098 32.8527 9.66983 32.78 9.7429L27.6164 15.16C27.5789 15.1952 27.5348 15.2226 27.4866 15.2407C27.4384 15.2588 27.3871 15.2671 27.3356 15.2653Z" fill="white"/>
<path d="M15.3364 68.9488C16.5103 68.9488 17.4619 67.9971 17.4619 66.8233C17.4619 65.6494 16.5103 64.6978 15.3364 64.6978C14.1626 64.6978 13.2109 65.6494 13.2109 66.8233C13.2109 67.9971 14.1626 68.9488 15.3364 68.9488Z" fill="#FFBC0E"/>
<path d="M15.3358 69.3389C14.8381 69.3396 14.3514 69.1928 13.9372 68.9168C13.523 68.6409 13.2 68.2483 13.009 67.7887C12.818 67.3291 12.7676 66.8232 12.8643 66.335C12.9609 65.8468 13.2002 65.3982 13.5518 65.046C13.9034 64.6938 14.3517 64.4539 14.8397 64.3565C15.3278 64.2591 15.8338 64.3087 16.2936 64.499C16.7535 64.6892 17.1466 65.0117 17.4232 65.4254C17.6998 65.8392 17.8474 66.3257 17.8474 66.8234C17.8474 67.4898 17.5829 68.1291 17.112 68.6007C16.6411 69.0723 16.0023 69.3378 15.3358 69.3389ZM15.3358 65.0918C14.9922 65.091 14.6561 65.1922 14.3701 65.3826C14.0842 65.573 13.8611 65.844 13.7293 66.1613C13.5974 66.4786 13.5627 66.8279 13.6296 67.1649C13.6964 67.5019 13.8618 67.8115 14.1047 68.0544C14.3477 68.2974 14.6573 68.4628 14.9943 68.5296C15.3313 68.5964 15.6806 68.5617 15.9979 68.4299C16.3151 68.2981 16.5861 68.075 16.7766 67.789C16.967 67.503 17.0682 67.1669 17.0674 66.8234C17.069 66.595 17.0253 66.3685 16.939 66.1571C16.8526 65.9457 16.7253 65.7534 16.5644 65.5914C16.4034 65.4293 16.212 65.3007 16.0012 65.213C15.7903 65.1252 15.5642 65.0801 15.3358 65.0801V65.0918Z" fill="#093F68"/>
</svg>
