<svg width="110" height="110" viewBox="0 0 110 110" fill="none" xmlns="http://www.w3.org/2000/svg">
<path d="M55 110C85.3757 110 110 85.3752 110 54.9995C110 24.6239 85.3757 -0.000488281 55 -0.000488281C24.6243 -0.000488281 0 24.6239 0 54.9995C0 85.3752 24.6243 110 55 110Z" fill="#F3F7F9"/>
<path d="M54.9987 99.1546C79.3848 99.1546 99.1536 79.3858 99.1536 54.9997C99.1536 30.6136 79.3848 10.8447 54.9987 10.8447C30.6126 10.8447 10.8438 30.6136 10.8438 54.9997C10.8438 79.3858 30.6126 99.1546 54.9987 99.1546Z" fill="#DDE8EC"/>
<path d="M55.0013 88.3092C73.3978 88.3092 88.3111 73.3958 88.3111 54.9993C88.3111 36.6028 73.3978 21.6895 55.0013 21.6895C36.6047 21.6895 21.6914 36.6028 21.6914 54.9993C21.6914 73.3958 36.6047 88.3092 55.0013 88.3092Z" fill="#CEDEE1"/>
<path d="M77.5 81.8745V81.887C73.35 81.887 70 78.5258 70 74.3745V74.362C70 66.2108 63.5 59.5745 55.3875 59.3745H54.6125C46.5 59.5745 40 66.212 40 74.362V74.3745C40 78.5245 36.65 81.887 32.5 81.887V81.8745C28.35 81.8745 25 85.2245 25 89.3745V94.3745H85V89.3745C85 85.2245 81.65 81.8745 77.5 81.8745Z" fill="#DA4453"/>
<path d="M60.0021 68.2154C64.7771 70.9779 66.4271 77.0903 63.6646 81.8778C60.9021 86.6528 54.7783 88.2903 50.0021 85.5403C45.2271 82.7778 43.5771 76.6541 46.3396 71.8779C49.1021 67.1016 55.2146 65.4529 60.0021 68.2154Z" fill="#D3374E"/>
<path d="M93.75 59.3745V64.3745C93.75 65.7495 92.625 66.8745 91.25 66.8745H76.25C74.875 66.8745 73.75 65.7495 73.75 64.3745V59.3745C73.75 57.9995 74.875 56.8745 76.25 56.8745H91.25C92.625 56.8745 93.75 57.9995 93.75 59.3745Z" fill="#656D78"/>
<path d="M36.25 59.3745V64.3745C36.25 65.7495 35.125 66.8745 33.75 66.8745H18.75C17.375 66.8745 16.25 65.7495 16.25 64.3745V59.3745C16.25 57.9995 17.375 56.8745 18.75 56.8745H33.75C35.125 56.8745 36.25 57.9995 36.25 59.3745Z" fill="#656D78"/>
<path d="M91.25 55.6245V56.8745H76.25V55.6245C76.25 53.5495 74.575 51.8745 72.5 51.8745H69.6875C69.8875 51.0745 70 50.237 70 49.3745H66.25C66.25 50.262 66.0625 51.112 65.725 51.8745H44.275C43.9375 51.112 43.75 50.262 43.75 49.3745H40C40 50.237 40.1125 51.0745 40.3125 51.8745H37.5C35.425 51.8745 33.75 53.5495 33.75 55.6245V56.8745H18.75V55.6245C18.75 45.262 27.1375 36.8745 37.5 36.8745H72.5C82.8625 36.8745 91.25 45.262 91.25 55.6245Z" fill="#545C66"/>
<path d="M69.6875 51.8745C68.575 56.187 64.6625 59.3745 60 59.3745H55.3875C55.2625 59.362 55.125 59.362 55 59.362C54.875 59.362 54.7375 59.362 54.6125 59.3745H50C45.3375 59.3745 41.425 56.187 40.3125 51.8745C40.1125 51.0745 40 50.237 40 49.3745H43.75C43.75 50.262 43.9375 51.112 44.275 51.8745C45.2387 54.0745 47.4375 55.6245 50 55.6245H60C62.5625 55.6245 64.7625 54.0745 65.725 51.8745C66.0625 51.112 66.25 50.262 66.25 49.3745H70C70 50.237 69.8875 51.0745 69.6875 51.8745Z" fill="#656D78"/>
<path d="M60.0021 65.7124C64.7771 68.4749 66.4271 74.5874 63.6646 79.3749C60.9021 84.1499 54.7783 85.7874 50.0021 83.0374C45.2271 80.2749 43.5771 74.1512 46.3396 69.3749C49.1021 64.5987 55.2146 62.9499 60.0021 65.7124Z" fill="#E6E9ED"/>
<path d="M87.5 96.8745V100.625C87.5 102 86.375 103.125 85 103.125H25C23.625 103.125 22.5 102 22.5 100.625V96.8745C22.5 95.4995 23.625 94.3745 25 94.3745H85C86.375 94.3745 87.5 95.4995 87.5 96.8745Z" fill="#ED5565"/>
<path d="M55.0336 69.373C54.3423 69.373 53.7773 68.8143 53.7773 68.123C53.7773 67.4318 54.3298 66.873 55.0199 66.873H55.0336C55.7236 66.873 56.2836 67.4318 56.2836 68.123C56.2836 68.8143 55.7236 69.373 55.0336 69.373Z" fill="#656D78"/>
<path d="M51.9125 70.2109C51.2213 70.2109 50.6562 69.6522 50.6562 68.9609C50.6562 68.2697 51.2088 67.7109 51.8988 67.7109H51.9125C52.6025 67.7109 53.1625 68.2697 53.1625 68.9609C53.1625 69.6522 52.6025 70.2109 51.9125 70.2109Z" fill="#656D78"/>
<path d="M49.6273 72.4966C48.9361 72.4966 48.3711 71.9378 48.3711 71.2466C48.3711 70.5553 48.9236 69.9966 49.6136 69.9966H49.6273C50.3173 69.9966 50.8773 70.5553 50.8773 71.2466C50.8773 71.9378 50.3173 72.4966 49.6273 72.4966Z" fill="#656D78"/>
<path d="M48.7875 75.6201C48.0962 75.6201 47.5312 75.0614 47.5312 74.3701C47.5312 73.6789 48.0837 73.1201 48.7737 73.1201H48.7875C49.4775 73.1201 50.0375 73.6789 50.0375 74.3701C50.0375 75.0614 49.4775 75.6201 48.7875 75.6201Z" fill="#656D78"/>
<path d="M49.6273 78.7437C48.9361 78.7437 48.3711 78.1849 48.3711 77.4937C48.3711 76.8024 48.9236 76.2437 49.6136 76.2437H49.6273C50.3173 76.2437 50.8773 76.8024 50.8773 77.4937C50.8773 78.1849 50.3173 78.7437 49.6273 78.7437Z" fill="#656D78"/>
<path d="M51.9125 81.0312C51.2212 81.0312 50.6562 80.4725 50.6562 79.7812C50.6562 79.09 51.2087 78.5312 51.8987 78.5312H51.9125C52.6025 78.5312 53.1625 79.09 53.1625 79.7812C53.1625 80.4725 52.6025 81.0312 51.9125 81.0312Z" fill="#656D78"/>
<path d="M55.0375 81.8657C54.3463 81.8657 53.7812 81.307 53.7812 80.6157C53.7812 79.9245 54.3338 79.3657 55.0238 79.3657H55.0375C55.7275 79.3657 56.2875 79.9245 56.2875 80.6157C56.2875 81.307 55.7275 81.8657 55.0375 81.8657Z" fill="#656D78"/>
<path d="M58.1586 81.0298C57.4673 81.0298 56.9023 80.471 56.9023 79.7798C56.9023 79.0885 57.4548 78.5298 58.1448 78.5298H58.1586C58.8486 78.5298 59.4086 79.0885 59.4086 79.7798C59.4086 80.471 58.8486 81.0298 58.1586 81.0298Z" fill="#656D78"/>
<path d="M58.1586 70.208C57.4673 70.208 56.9023 69.6493 56.9023 68.958C56.9023 68.2668 57.4548 67.708 58.1448 67.708H58.1586C58.8486 67.708 59.4086 68.2668 59.4086 68.958C59.4086 69.6493 58.8486 70.208 58.1586 70.208Z" fill="#656D78"/>
<path d="M22.0758 24.0138C24.001 24.0138 25.5617 22.4531 25.5617 20.5279C25.5617 18.6027 24.001 17.042 22.0758 17.042C20.1505 17.042 18.5898 18.6027 18.5898 20.5279C18.5898 22.4531 20.1505 24.0138 22.0758 24.0138Z" stroke="#FC6930" stroke-width="2"/>
<path d="M97.2164 106.126C99.1416 106.126 100.702 104.565 100.702 102.64C100.702 100.715 99.1416 99.1543 97.2164 99.1543C95.2912 99.1543 93.7305 100.715 93.7305 102.64C93.7305 104.565 95.2912 106.126 97.2164 106.126Z" stroke="#FFCE54" stroke-width="2"/>
<path d="M64.6827 25.5627C65.7523 25.5627 66.6193 24.6956 66.6193 23.6261C66.6193 22.5565 65.7523 21.6895 64.6827 21.6895C63.6131 21.6895 62.7461 22.5565 62.7461 23.6261C62.7461 24.6956 63.6131 25.5627 64.6827 25.5627Z" stroke="#A0D468" stroke-width="2"/>
<path d="M80.9496 14.7179C82.4469 14.7179 83.6608 13.5041 83.6608 12.0067C83.6608 10.5093 82.4469 9.29541 80.9496 9.29541C79.4522 9.29541 78.2383 10.5093 78.2383 12.0067C78.2383 13.5041 79.4522 14.7179 80.9496 14.7179Z" stroke="#FFCE54" stroke-width="2"/>
<path d="M41.8304 10.072L45.7036 13.9419" stroke="#ED5565" stroke-width="2" stroke-linecap="round"/>
<path d="M41.832 13.9424L45.7052 10.0725" stroke="#ED5565" stroke-width="2" stroke-linecap="round"/>
<path d="M103.799 60.424L107.672 64.2939" stroke="#ED5565" stroke-width="2" stroke-linecap="round"/>
<path d="M103.801 64.2939L107.674 60.424" stroke="#ED5565" stroke-width="2" stroke-linecap="round"/>
<path d="M2.32258 46.4802L6.19578 50.3501" stroke="#FFCE54" stroke-width="2" stroke-linecap="round"/>
<path d="M2.32422 50.3501L6.19742 46.4802" stroke="#FFCE54" stroke-width="2" stroke-linecap="round"/>
</svg>
