<svg width="110" height="110" viewBox="0 0 110 110" fill="none" xmlns="http://www.w3.org/2000/svg">
<g clip-path="url(#clip0)">
<path d="M55 109.784C85.3757 109.784 110 85.2077 110 54.8917C110 24.5756 85.3757 -0.000488281 55 -0.000488281C24.6243 -0.000488281 0 24.5756 0 54.8917C0 85.2077 24.6243 109.784 55 109.784Z" fill="#F3F7F9"/>
<path d="M54.9987 98.9599C79.3848 98.9599 99.1536 79.2299 99.1536 54.8916C99.1536 30.5533 79.3848 10.8232 54.9987 10.8232C30.6126 10.8232 10.8438 30.5533 10.8438 54.8916C10.8438 79.2299 30.6126 98.9599 54.9987 98.9599Z" fill="#DDE8EC"/>
<path d="M55.0013 88.1365C73.3978 88.1365 88.3111 73.2525 88.3111 54.892C88.3111 36.5315 73.3978 21.6475 55.0013 21.6475C36.6047 21.6475 21.6914 36.5315 21.6914 54.892C21.6914 73.2525 36.6047 88.1365 55.0013 88.1365Z" fill="#CEDEE1"/>
<path d="M28.275 23.9669C30.2002 23.9669 31.7609 22.4093 31.7609 20.4879C31.7609 18.5664 30.2002 17.0088 28.275 17.0088C26.3498 17.0088 24.7891 18.5664 24.7891 20.4879C24.7891 22.4093 26.3498 23.9669 28.275 23.9669Z" stroke="#ED5565" stroke-width="2"/>
<path d="M8.90779 92.7755C10.833 92.7755 12.3937 91.2179 12.3937 89.2965C12.3937 87.375 10.833 85.8174 8.90779 85.8174C6.98257 85.8174 5.42188 87.375 5.42188 89.2965C5.42188 91.2179 6.98257 92.7755 8.90779 92.7755Z" stroke="#A0D468" stroke-width="2"/>
<path d="M70.878 14.6889C71.9476 14.6889 72.8146 13.8235 72.8146 12.7561C72.8146 11.6886 71.9476 10.8232 70.878 10.8232C69.8085 10.8232 68.9414 11.6886 68.9414 12.7561C68.9414 13.8235 69.8085 14.6889 70.878 14.6889Z" stroke="#A0D468" stroke-width="2"/>
<path d="M93.3441 41.7488C94.8415 41.7488 96.0554 40.5373 96.0554 39.0429C96.0554 37.5484 94.8415 36.3369 93.3441 36.3369C91.8467 36.3369 90.6328 37.5484 90.6328 39.0429C90.6328 40.5373 91.8467 41.7488 93.3441 41.7488Z" stroke="#FFCE54" stroke-width="2"/>
<path d="M61.1937 28.6071L65.0631 32.4732" stroke="#ED5565" stroke-width="2" stroke-linecap="round"/>
<path d="M61.1953 32.4697L65.0685 28.6074" stroke="#ED5565" stroke-width="2" stroke-linecap="round"/>
<path d="M101.479 67.2634L105.348 71.1295" stroke="#FC6930" stroke-width="2" stroke-linecap="round"/>
<path d="M101.48 71.126L105.354 67.2636" stroke="#FC6930" stroke-width="2" stroke-linecap="round"/>
<path d="M6.97101 46.3888L10.8404 50.255" stroke="#FFCE54" stroke-width="2" stroke-linecap="round"/>
<path d="M6.97266 50.2515L10.8459 46.3891" stroke="#FFCE54" stroke-width="2" stroke-linecap="round"/>
<path d="M74.955 43.7495V36.2495H27.455V59.8995V67.4995L27.4062 67.562L54.955 88.7495L82.455 67.5995V59.912V43.7495H74.955Z" fill="#E6E9ED"/>
<path d="M27.4531 59.8989V67.4989L27.4044 67.5614L22.4531 63.7489L27.4531 59.8989Z" fill="#F6BB42"/>
<path d="M87.4531 63.7491L82.4531 67.5991V59.9116L87.4531 63.7491Z" fill="#F6BB42"/>
<path d="M82.4531 43.7495H74.9531V36.2495L82.4531 43.7495Z" fill="#F5F7FA"/>
<path d="M71.2031 51.2495C71.8919 51.2495 72.4531 51.812 72.4531 52.4995V54.9995C72.4531 55.687 71.8919 56.2495 71.2031 56.2495H38.7031C38.0169 56.2495 37.4531 55.687 37.4531 54.9995V52.4995C37.4531 51.812 38.0169 51.2495 38.7031 51.2495H71.2031Z" fill="#656D78"/>
<path d="M87.4531 103.75H79.9406H74.9531H22.4531V63.7495L27.4044 67.562L54.9531 88.7495L82.4531 67.5995L87.4531 63.7495V89.9995C87.4531 89.9995 87.6781 89.4995 87.4406 89.9995L87.4531 95.4995V103.75Z" fill="#FFCE54"/>
<path d="M71.2006 62.4995H38.7031C38.0119 62.4995 37.4531 61.9395 37.4531 61.2495C37.4531 60.5583 38.0119 59.9995 38.7031 59.9995H71.2006C71.8919 59.9995 72.4506 60.5583 72.4506 61.2495C72.4506 61.9395 71.8919 62.4995 71.2006 62.4995Z" fill="#CCD1D9"/>
<path d="M71.2006 67.4995H38.7031C38.0119 67.4995 37.4531 66.9395 37.4531 66.2495C37.4531 65.5583 38.0119 64.9995 38.7031 64.9995H71.2006C71.8919 64.9995 72.4506 65.5583 72.4506 66.2495C72.4506 66.9395 71.8919 67.4995 71.2006 67.4995Z" fill="#CCD1D9"/>
<path d="M62.4506 72.4966H47.4531C46.7619 72.4966 46.2031 71.9378 46.2031 71.2466C46.2031 70.5566 46.7619 69.9966 47.4531 69.9966H62.4506C63.1419 69.9966 63.7006 70.5566 63.7006 71.2466C63.7006 71.9378 63.1419 72.4966 62.4506 72.4966Z" fill="#CCD1D9"/>
</g>
<defs>
<clipPath id="clip0">
<rect width="110" height="110" fill="white" transform="translate(0 -0.000488281)"/>
</clipPath>
</defs>
</svg>
