<svg width="180" height="135" viewBox="0 0 180 135" fill="none" xmlns="http://www.w3.org/2000/svg">
<path d="M141.854 110.137H38.1469C38.0876 110.136 38.031 110.112 37.9891 110.07C37.9471 110.028 37.923 109.972 37.9219 109.912C37.9219 109.853 37.9456 109.796 37.9878 109.753C38.03 109.711 38.0872 109.688 38.1469 109.688H141.854C141.914 109.688 141.971 109.711 142.013 109.753C142.055 109.796 142.079 109.853 142.079 109.912C142.078 109.972 142.054 110.028 142.012 110.07C141.97 110.112 141.913 110.136 141.854 110.137Z" fill="#D1D3D4"/>
<path d="M140.436 32.751V95.238C140.435 96.3984 139.973 97.511 139.152 98.3311C138.331 99.1513 137.218 99.612 136.058 99.612H43.943C42.7825 99.612 41.6695 99.1513 40.8485 98.3311C40.0275 97.511 39.5656 96.3984 39.5645 95.238V32.751C39.5645 32.1762 39.6777 31.607 39.8978 31.0761C40.1179 30.5451 40.4405 30.0627 40.8472 29.6565C41.2538 29.2503 41.7365 28.9282 42.2677 28.7086C42.7989 28.4891 43.3682 28.3764 43.943 28.377H136.058C136.633 28.3764 137.202 28.4891 137.733 28.7086C138.264 28.9282 138.747 29.2503 139.154 29.6565C139.56 30.0627 139.883 30.5451 140.103 31.0761C140.323 31.607 140.436 32.1762 140.436 32.751Z" fill="white"/>
<path d="M136.062 99.819H43.9378C42.724 99.8167 41.5607 99.3331 40.7028 98.4744C39.8449 97.6157 39.3625 96.4519 39.3613 95.238V32.751C39.3613 31.5369 39.8434 30.3724 40.7015 29.5134C41.5596 28.6544 42.7237 28.1712 43.9378 28.17H136.062C137.276 28.1712 138.44 28.6544 139.298 29.5134C140.156 30.3724 140.638 31.5369 140.638 32.751V95.238C140.637 96.4519 140.155 97.6157 139.297 98.4744C138.439 99.3331 137.276 99.8167 136.062 99.819ZM43.9378 28.5795C42.8326 28.5819 41.7734 29.0223 40.9924 29.8042C40.2113 30.5862 39.772 31.6458 39.7708 32.751V95.238C39.772 96.3428 40.2114 97.402 40.9926 98.1832C41.7738 98.9644 42.833 99.4038 43.9378 99.405H136.062C137.167 99.4038 138.226 98.9644 139.007 98.1832C139.788 97.402 140.228 96.3428 140.229 95.238V32.751C140.228 31.6458 139.788 30.5862 139.007 29.8042C138.226 29.0223 137.167 28.5819 136.062 28.5795H43.9378Z" fill="#231F20"/>
<path d="M140.436 32.751V88.236H39.5645V32.751C39.5645 32.1762 39.6777 31.607 39.8978 31.0761C40.1179 30.5451 40.4405 30.0627 40.8472 29.6565C41.2538 29.2503 41.7365 28.9282 42.2677 28.7086C42.7989 28.4891 43.3682 28.3764 43.943 28.377H136.058C136.633 28.3764 137.202 28.4891 137.733 28.7086C138.264 28.9282 138.747 29.2503 139.154 29.6565C139.56 30.0627 139.883 30.5451 140.103 31.0761C140.323 31.607 140.436 32.1762 140.436 32.751Z" fill="#231F20"/>
<path d="M135.095 33.5656H43.709V84.1096H135.095V33.5656Z" fill="white"/>
<path d="M135.095 84.3165H43.709C43.6818 84.3165 43.6549 84.3112 43.6297 84.3008C43.6046 84.2904 43.5818 84.2751 43.5626 84.2559C43.5434 84.2367 43.5281 84.2139 43.5177 84.1887C43.5073 84.1636 43.502 84.1367 43.502 84.1095V33.5655C43.502 33.5106 43.5238 33.458 43.5626 33.4192C43.6014 33.3803 43.6541 33.3585 43.709 33.3585H135.095C135.149 33.3597 135.201 33.382 135.238 33.4207C135.276 33.4594 135.297 33.5114 135.297 33.5655V84.1095C135.297 84.1637 135.276 84.2156 135.238 84.2543C135.201 84.293 135.149 84.3153 135.095 84.3165ZM43.9115 83.9025H134.888V33.75H43.9115V83.9025Z" fill="#231F20"/>
<path d="M89.9997 96.2415C89.5403 96.2415 89.0912 96.1052 88.7092 95.8499C88.3273 95.5945 88.0297 95.2316 87.8541 94.8071C87.6784 94.3825 87.6327 93.9154 87.7227 93.4649C87.8126 93.0143 88.0342 92.6006 88.3594 92.276C88.6846 91.9515 89.0988 91.7307 89.5495 91.6416C90.0002 91.5525 90.4672 91.5991 90.8914 91.7756C91.3157 91.952 91.678 92.2503 91.9326 92.6328C92.1872 93.0152 92.3226 93.4646 92.3217 93.924C92.3205 94.5391 92.0754 95.1285 91.64 95.563C91.2047 95.9975 90.6148 96.2415 89.9997 96.2415ZM89.9997 92.052C89.6295 92.052 89.2676 92.1618 88.9597 92.3675C88.6519 92.5732 88.4119 92.8656 88.2702 93.2076C88.1285 93.5497 88.0915 93.9261 88.1637 94.2892C88.2359 94.6524 88.4142 94.9859 88.676 95.2477C88.9378 95.5095 89.2714 95.6878 89.6345 95.76C89.9977 95.8323 90.3741 95.7952 90.7161 95.6535C91.0582 95.5118 91.3505 95.2719 91.5562 94.9641C91.7619 94.6562 91.8717 94.2943 91.8717 93.924C91.8705 93.4279 91.6729 92.9525 91.3221 92.6016C90.9713 92.2508 90.4959 92.0532 89.9997 92.052Z" fill="#D1D3D4"/>
<path d="M104.684 107.55C103.492 106.128 103.289 99.621 103.289 99.621H76.712C76.712 99.621 76.5095 106.128 75.317 107.55C74.1245 108.972 69.4355 111.289 69.4355 112.113C69.4355 112.936 70.133 113.238 73.5215 113.238H106.48C109.868 113.238 110.566 112.936 110.566 112.113C110.566 111.289 105.881 108.963 104.684 107.55Z" fill="white"/>
<path d="M106.48 113.432H73.5215C70.151 113.432 69.2285 113.148 69.2285 112.104C69.2285 111.582 70.25 110.894 72.059 109.715C73.3145 108.9 74.615 108.054 75.1595 107.411C76.2935 106.061 76.5095 99.6705 76.5095 99.6075C76.5107 99.5534 76.533 99.5019 76.5717 99.4641C76.6104 99.4262 76.6624 99.405 76.7165 99.405H103.294C103.348 99.405 103.4 99.4262 103.438 99.4641C103.477 99.5019 103.499 99.5534 103.501 99.6075C103.501 99.6705 103.712 106.056 104.851 107.411C105.395 108.054 106.696 108.9 107.951 109.715C109.751 110.894 110.782 111.582 110.782 112.104C110.773 113.148 109.85 113.432 106.48 113.432ZM76.91 99.819C76.865 100.949 76.595 106.34 75.4745 107.672C74.894 108.365 73.5665 109.229 72.284 110.061C71.231 110.745 69.6425 111.78 69.6425 112.104C69.6425 112.644 69.917 113.004 73.5215 113.004H106.48C110.08 113.004 110.359 112.626 110.359 112.104C110.359 111.78 108.77 110.754 107.717 110.061C106.435 109.229 105.107 108.365 104.527 107.672C103.406 106.322 103.136 100.949 103.091 99.819H76.91Z" fill="#231F20"/>
<path d="M47.0885 18.8684H132.912C134.012 18.8684 135.066 19.3051 135.843 20.0823C136.62 20.8596 137.057 21.9137 137.057 23.0129V24.7499H42.9395V23.0129C42.9395 22.4683 43.0468 21.929 43.2554 21.4258C43.4639 20.9227 43.7696 20.4656 44.1549 20.0807C44.5403 19.6958 44.9977 19.3906 45.501 19.1826C46.0044 18.9746 46.5438 18.8678 47.0885 18.8684Z" fill="#FF651D"/>
<path d="M137.061 24.939H42.939C42.8902 24.9349 42.8445 24.9137 42.8099 24.8791C42.7753 24.8445 42.7541 24.7988 42.75 24.75V23.013C42.7512 21.8593 43.21 20.7531 44.0258 19.9373C44.8416 19.1215 45.9478 18.6627 47.1015 18.6615H132.912C134.063 18.6663 135.166 19.1267 135.979 19.9421C136.792 20.7575 137.249 21.8616 137.25 23.013V24.75C137.246 24.7988 137.225 24.8445 137.19 24.8791C137.155 24.9137 137.11 24.9349 137.061 24.939ZM43.146 24.525H136.854V23.013C136.853 21.9679 136.437 20.9659 135.698 20.2269C134.959 19.4879 133.957 19.0722 132.912 19.071H47.088C46.0429 19.0722 45.0409 19.4879 44.3019 20.2269C43.5629 20.9659 43.1472 21.9679 43.146 23.013V24.525Z" fill="#231F20"/>
<path d="M117.171 70.65H62.8285C62.7688 70.65 62.7116 70.6263 62.6694 70.5841C62.6272 70.5419 62.6035 70.4846 62.6035 70.425V53.352C62.6035 53.2923 62.6272 53.235 62.6694 53.1929C62.7116 53.1507 62.7688 53.127 62.8285 53.127H117.171C117.23 53.127 117.287 53.1507 117.33 53.1929C117.372 53.235 117.396 53.2923 117.396 53.352V70.425C117.396 70.4846 117.372 70.5419 117.33 70.5841C117.287 70.6263 117.23 70.65 117.171 70.65ZM63.0535 70.2H116.946V53.577H63.0535V70.2Z" fill="#D1D3D4"/>
<path d="M117.171 83.7631C117.111 83.7631 117.054 83.7394 117.011 83.6972C116.969 83.655 116.946 83.5977 116.946 83.5381V72.8326H63.0535V83.5381C63.0535 83.5977 63.0298 83.655 62.9876 83.6972C62.9454 83.7394 62.8882 83.7631 62.8285 83.7631C62.7688 83.7631 62.7116 83.7394 62.6694 83.6972C62.6272 83.655 62.6035 83.5977 62.6035 83.5381V72.6076C62.6035 72.5479 62.6272 72.4907 62.6694 72.4485C62.7116 72.4063 62.7688 72.3826 62.8285 72.3826H117.171C117.23 72.3826 117.287 72.4063 117.33 72.4485C117.372 72.4907 117.396 72.5479 117.396 72.6076V83.5381C117.396 83.5977 117.372 83.655 117.33 83.6972C117.287 83.7394 117.23 83.7631 117.171 83.7631Z" fill="#D1D3D4"/>
<path d="M145.498 112.208H124.686L127.377 95.6655H142.807L145.498 112.208Z" fill="white"/>
<path d="M145.499 112.433H124.686C124.653 112.433 124.621 112.426 124.59 112.413C124.56 112.4 124.533 112.38 124.511 112.356C124.491 112.33 124.476 112.301 124.467 112.269C124.459 112.237 124.457 112.204 124.461 112.172L127.161 95.6296C127.171 95.5767 127.199 95.5289 127.24 95.4943C127.281 95.4598 127.333 95.4408 127.386 95.4406H142.817C142.871 95.4408 142.923 95.4598 142.964 95.4943C143.005 95.5289 143.032 95.5767 143.042 95.6296L145.742 112.172C145.747 112.204 145.745 112.238 145.736 112.27C145.726 112.302 145.71 112.331 145.688 112.356C145.665 112.383 145.636 112.404 145.603 112.417C145.57 112.431 145.534 112.436 145.499 112.433ZM124.947 111.983H145.238L142.619 95.8906H127.566L124.947 111.983Z" fill="#231F20"/>
<path d="M130.419 98.1H130.383C130.324 98.089 130.272 98.0556 130.237 98.0069C130.203 97.9582 130.189 97.898 130.198 97.839C130.243 97.569 131.337 91.1655 135.094 91.1655C138.852 91.1655 139.941 97.569 139.986 97.839C139.995 97.898 139.981 97.9582 139.946 98.0069C139.912 98.0556 139.86 98.089 139.801 98.1C139.742 98.1092 139.682 98.0951 139.633 98.0607C139.584 98.0262 139.551 97.9742 139.54 97.9155C139.54 97.8525 138.465 91.6155 135.094 91.6155C131.724 91.6155 130.653 97.8525 130.644 97.9155C130.633 97.9675 130.605 98.0144 130.564 98.048C130.523 98.0816 130.472 98.1 130.419 98.1Z" fill="#231F20"/>
<path d="M131.031 113.58H116.703L118.553 102.191H129.177L131.031 113.58Z" fill="white"/>
<path d="M131.031 113.805H116.703C116.671 113.804 116.639 113.796 116.61 113.782C116.58 113.768 116.554 113.748 116.533 113.724C116.512 113.699 116.496 113.671 116.487 113.64C116.477 113.609 116.474 113.576 116.478 113.544L118.35 102.15C118.358 102.097 118.384 102.049 118.425 102.014C118.465 101.979 118.517 101.96 118.571 101.961H129.195C129.249 101.96 129.3 101.979 129.341 102.014C129.381 102.049 129.408 102.097 129.416 102.15L131.27 113.535C131.275 113.567 131.273 113.6 131.264 113.631C131.256 113.662 131.24 113.691 131.219 113.716C131.198 113.741 131.172 113.761 131.143 113.775C131.114 113.788 131.082 113.796 131.049 113.796L131.031 113.805ZM116.969 113.355H130.766L128.988 102.42H118.746L116.969 113.355Z" fill="#231F20"/>
<path d="M127.08 103.95C127.027 103.95 126.976 103.93 126.935 103.896C126.895 103.861 126.868 103.813 126.86 103.761C126.86 103.716 126.131 99.486 123.867 99.486C121.604 99.486 120.879 103.716 120.87 103.761C120.86 103.819 120.828 103.871 120.78 103.906C120.732 103.94 120.672 103.955 120.614 103.946C120.585 103.941 120.557 103.931 120.531 103.916C120.506 103.9 120.484 103.88 120.467 103.856C120.45 103.832 120.438 103.805 120.431 103.776C120.425 103.748 120.424 103.718 120.429 103.689C120.461 103.5 121.221 99.036 123.867 99.036C126.513 99.036 127.274 103.5 127.305 103.689C127.31 103.718 127.308 103.748 127.301 103.777C127.294 103.806 127.281 103.833 127.264 103.856C127.246 103.88 127.224 103.9 127.199 103.916C127.174 103.931 127.145 103.941 127.116 103.946L127.08 103.95Z" fill="#231F20"/>
<path d="M114.597 57.96H86.3324C86.2727 57.96 86.2155 57.9363 86.1733 57.8941C86.1311 57.8519 86.1074 57.7947 86.1074 57.735C86.1086 57.6757 86.1326 57.6191 86.1746 57.5772C86.2165 57.5352 86.2731 57.5112 86.3324 57.51H114.597C114.656 57.5112 114.713 57.5352 114.755 57.5772C114.797 57.6191 114.821 57.6757 114.822 57.735C114.822 57.7947 114.798 57.8519 114.756 57.8941C114.714 57.9363 114.657 57.96 114.597 57.96Z" fill="#D1D3D4"/>
<path d="M114.597 61.0831H86.3324C86.2727 61.0831 86.2155 61.0593 86.1733 61.0172C86.1311 60.975 86.1074 60.9177 86.1074 60.8581C86.1086 60.7987 86.1326 60.7422 86.1746 60.7002C86.2165 60.6583 86.2731 60.6342 86.3324 60.6331H114.597C114.656 60.6342 114.713 60.6583 114.755 60.7002C114.797 60.7422 114.821 60.7987 114.822 60.8581C114.822 60.9177 114.798 60.975 114.756 61.0172C114.714 61.0593 114.657 61.0831 114.597 61.0831Z" fill="#D1D3D4"/>
<path d="M79.8034 83.763H79.7584C79.7296 83.7576 79.7022 83.7465 79.6777 83.7304C79.6533 83.7143 79.6322 83.6936 79.6159 83.6693C79.5996 83.645 79.5882 83.6177 79.5826 83.5889C79.5769 83.5602 79.577 83.5306 79.5829 83.502L80.1364 80.7165C80.1433 80.679 80.1598 80.644 80.1842 80.6148C80.2086 80.5857 80.2402 80.5633 80.2759 80.55C80.3117 80.5373 80.3501 80.5335 80.3878 80.539C80.4254 80.5445 80.4611 80.5591 80.4919 80.5815L81.8419 81.5895L83.6194 79.605C82.8655 78.6393 82.0233 77.746 81.1039 76.9365C80.3138 76.252 79.4109 75.7099 78.4354 75.3345C77.3863 75.8323 76.2396 76.0906 75.0784 76.0906C73.9171 76.0906 72.7705 75.8323 71.7214 75.3345C70.9315 75.6515 70.166 76.026 69.4309 76.455C68.3425 77.163 67.4137 78.0902 66.7039 79.1775L68.1574 81.1305L69.7864 80.361C69.8171 80.3455 69.851 80.3375 69.8854 80.3375C69.9198 80.3375 69.9537 80.3455 69.9844 80.361C70.0156 80.3776 70.0424 80.4013 70.0628 80.4302C70.0831 80.4592 70.0963 80.4925 70.1014 80.5275L70.5514 83.5065C70.5605 83.5649 70.5462 83.6245 70.5117 83.6725C70.4772 83.7205 70.4252 83.753 70.3669 83.763C70.3074 83.7709 70.2472 83.7557 70.1987 83.7205C70.1501 83.6854 70.1169 83.6329 70.1059 83.574L69.6919 80.874L68.1709 81.594C68.1236 81.6161 68.0702 81.6215 68.0195 81.6092C67.9688 81.5969 67.9238 81.5678 67.8919 81.5265L66.2359 79.2765C66.2095 79.2397 66.1953 79.1957 66.1953 79.1505C66.1953 79.1053 66.2095 79.0612 66.2359 79.0245C66.2899 78.939 67.5364 76.959 69.2104 76.023C69.9946 75.5529 70.82 75.1552 71.6764 74.835C71.7092 74.8236 71.7442 74.8201 71.7786 74.8248C71.813 74.8294 71.8458 74.8422 71.8744 74.862C71.8744 74.862 72.9859 75.6 75.0739 75.6C77.1619 75.6 78.2689 74.871 78.2779 74.862C78.3058 74.8428 78.3376 74.83 78.3711 74.8245C78.4045 74.8191 78.4388 74.8211 78.4714 74.8305C79.5456 75.2149 80.5378 75.7981 81.3964 76.5495C82.3888 77.4217 83.2932 78.3894 84.0964 79.4385C84.1292 79.4793 84.1472 79.5301 84.1472 79.5825C84.1472 79.6349 84.1292 79.6857 84.0964 79.7265L82.0579 82.0035C82.0193 82.0448 81.967 82.0708 81.9108 82.0766C81.8545 82.0824 81.7981 82.0676 81.7519 82.035L80.5324 81.135L80.0464 83.565C80.0436 83.594 80.035 83.6221 80.0213 83.6478C80.0075 83.6735 79.9888 83.6963 79.9662 83.7147C79.9436 83.7331 79.9176 83.7468 79.8896 83.7551C79.8617 83.7634 79.8324 83.7661 79.8034 83.763Z" fill="#D1D3D4"/>
<path d="M74.7006 78.201C72.4506 78.201 71.5821 75.2715 71.5506 75.1455C71.5353 75.0876 71.5432 75.0261 71.5726 74.9739C71.602 74.9218 71.6507 74.8833 71.7081 74.8665C71.7654 74.851 71.8264 74.8582 71.8784 74.8868C71.9304 74.9153 71.9694 74.9629 71.9871 75.0195C71.9871 75.0465 72.7926 77.7195 74.6871 77.751C76.7931 77.751 78.1881 75.0105 78.2016 74.9835C78.2146 74.9568 78.2326 74.933 78.2548 74.9134C78.277 74.8938 78.3028 74.8787 78.3309 74.8691C78.3589 74.8595 78.3885 74.8555 78.4181 74.8574C78.4476 74.8592 78.4765 74.8669 78.5031 74.88C78.5553 74.9078 78.5947 74.9547 78.6131 75.0109C78.6315 75.067 78.6276 75.1281 78.6021 75.1815C78.5436 75.3075 77.0721 78.201 74.7006 78.201Z" fill="#D1D3D4"/>
<path d="M113.152 63.2925H105.124C104.326 63.2925 103.68 63.9392 103.68 64.737V64.7415C103.68 65.5393 104.326 66.186 105.124 66.186H113.152C113.95 66.186 114.597 65.5393 114.597 64.7415V64.737C114.597 63.9392 113.95 63.2925 113.152 63.2925Z" fill="#D1D3D4"/>
<path d="M114.597 77.7286H86.3324C86.2727 77.7286 86.2155 77.7049 86.1733 77.6627C86.1311 77.6205 86.1074 77.5632 86.1074 77.5036C86.1086 77.4443 86.1326 77.3877 86.1746 77.3457C86.2165 77.3038 86.2731 77.2797 86.3324 77.2786H114.597C114.656 77.2797 114.713 77.3038 114.755 77.3457C114.797 77.3877 114.821 77.4443 114.822 77.5036C114.822 77.5632 114.798 77.6205 114.756 77.6627C114.714 77.7049 114.657 77.7286 114.597 77.7286Z" fill="#D1D3D4"/>
<path d="M109.138 80.8515H86.3324C86.2727 80.8515 86.2155 80.8278 86.1733 80.7856C86.1311 80.7434 86.1074 80.6862 86.1074 80.6265C86.1086 80.5672 86.1326 80.5106 86.1746 80.4687C86.2165 80.4267 86.2731 80.4026 86.3324 80.4015H109.138C109.198 80.4026 109.254 80.4267 109.296 80.4687C109.338 80.5106 109.362 80.5672 109.363 80.6265C109.363 80.6862 109.34 80.7434 109.298 80.7856C109.255 80.8278 109.198 80.8515 109.138 80.8515Z" fill="#D1D3D4"/>
<path d="M80.9279 67.311H75.3479C75.2924 67.3112 75.2388 67.2904 75.198 67.2529C75.1571 67.2154 75.1319 67.1638 75.1274 67.1085L74.8304 64.3275L74.3444 67.1265C74.3357 67.1785 74.3088 67.2258 74.2683 67.2596C74.2279 67.2935 74.1766 67.3117 74.1239 67.311H68.8949C68.8626 67.3107 68.8308 67.3038 68.8014 67.2906C68.7719 67.2774 68.7456 67.2583 68.7239 67.2345C68.7028 67.2108 68.687 67.1829 68.6777 67.1526C68.6684 67.1223 68.6657 67.0904 68.6699 67.059L69.8984 56.808C69.905 56.7531 69.9316 56.7026 69.9731 56.6661C70.0146 56.6296 70.0681 56.6096 70.1234 56.61H79.7174C79.7724 56.6105 79.8253 56.6308 79.8666 56.6672C79.9079 56.7035 79.9348 56.7535 79.9424 56.808L81.1529 67.05C81.157 67.0814 81.1543 67.1133 81.145 67.1436C81.1357 67.1739 81.1199 67.2018 81.0989 67.2255C81.078 67.251 81.052 67.2718 81.0225 67.2865C80.993 67.3012 80.9608 67.3096 80.9279 67.311ZM75.5279 66.861H80.6534L79.4969 57.06H70.3214L69.1469 66.861H73.9304L74.6594 62.667C74.6688 62.6141 74.6965 62.5663 74.7376 62.5318C74.7787 62.4972 74.8307 62.4782 74.8844 62.478C74.9388 62.4799 74.9906 62.5015 75.0304 62.5387C75.0701 62.5759 75.0949 62.6263 75.1004 62.6805L75.5279 66.861Z" fill="#D1D3D4"/>
<path d="M79.8066 58.7026H69.9066C69.847 58.7026 69.7897 58.6789 69.7475 58.6367C69.7053 58.5945 69.6816 58.5372 69.6816 58.4776C69.6816 58.4179 69.7053 58.3607 69.7475 58.3185C69.7897 58.2763 69.847 58.2526 69.9066 58.2526H79.8066C79.8663 58.2526 79.9235 58.2763 79.9657 58.3185C80.0079 58.3607 80.0316 58.4179 80.0316 58.4776C80.0305 58.5369 80.0064 58.5934 79.9645 58.6354C79.9225 58.6773 79.866 58.7014 79.8066 58.7026Z" fill="#D1D3D4"/>
<path d="M76.0495 59.9805C76.0052 59.9797 75.9621 59.9661 75.9254 59.9413C75.8887 59.9166 75.8599 59.8817 75.8425 59.841L75.1495 58.05L74.1505 59.7195C74.1181 59.7692 74.068 59.8048 74.0104 59.819C73.9527 59.8332 73.8918 59.825 73.84 59.796C73.8145 59.7807 73.7922 59.7605 73.7746 59.7366C73.7569 59.7127 73.7441 59.6856 73.737 59.6567C73.7299 59.6278 73.7286 59.5978 73.7331 59.5684C73.7377 59.539 73.748 59.5108 73.7635 59.4855L74.992 57.4335C75.0119 57.3959 75.0429 57.3655 75.0807 57.3461C75.1186 57.3268 75.1614 57.3196 75.2035 57.3255C75.2456 57.3283 75.286 57.3428 75.3203 57.3675C75.3545 57.3921 75.3811 57.4259 75.397 57.465L76.297 59.679C76.308 59.7065 76.3134 59.7358 76.313 59.7654C76.3126 59.795 76.3064 59.8242 76.2947 59.8514C76.283 59.8785 76.266 59.9031 76.2448 59.9237C76.2236 59.9443 76.1985 59.9606 76.171 59.9715C76.1327 59.9881 76.0899 59.9913 76.0495 59.9805Z" fill="#D1D3D4"/>
<path d="M77.6568 82.2735C77.413 82.2735 77.1746 82.2012 76.9718 82.0657C76.769 81.9302 76.611 81.7376 76.5177 81.5123C76.4244 81.287 76.3999 81.0391 76.4475 80.7999C76.4951 80.5608 76.6125 80.3411 76.785 80.1686C76.9574 79.9962 77.1771 79.8788 77.4163 79.8312C77.6555 79.7836 77.9034 79.808 78.1287 79.9013C78.354 79.9947 78.5465 80.1527 78.682 80.3555C78.8175 80.5582 78.8898 80.7966 78.8898 81.0405C78.8898 81.2024 78.8579 81.3627 78.796 81.5123C78.734 81.6619 78.6432 81.7978 78.5287 81.9123C78.4142 82.0268 78.2783 82.1177 78.1287 82.1796C77.9791 82.2416 77.8188 82.2735 77.6568 82.2735ZM77.6568 80.2575C77.502 80.2575 77.3506 80.3034 77.2218 80.3895C77.0931 80.4755 76.9927 80.5978 76.9334 80.7408C76.8742 80.8839 76.8587 81.0414 76.8889 81.1932C76.9191 81.3451 76.9937 81.4846 77.1032 81.5941C77.2127 81.7036 77.3522 81.7782 77.5041 81.8084C77.656 81.8386 77.8134 81.8231 77.9565 81.7639C78.0995 81.7046 78.2218 81.6043 78.3079 81.4755C78.3939 81.3467 78.4398 81.1953 78.4398 81.0405C78.4398 80.9377 78.4196 80.8358 78.3802 80.7408C78.3409 80.6459 78.2832 80.5595 78.2105 80.4868C78.1378 80.4141 78.0515 80.3564 77.9565 80.3171C77.8615 80.2777 77.7597 80.2575 77.6568 80.2575Z" fill="#D1D3D4"/>
<path d="M92.0975 37.7639C99.3785 63.2924 91.1975 75.0824 88.142 84.1139H43.709V39.8114L92.0975 37.7639Z" fill="white"/>
<path d="M88.142 84.3164H43.709C43.6818 84.3164 43.6549 84.3111 43.6298 84.3007C43.6047 84.2903 43.5819 84.275 43.5626 84.2558C43.5434 84.2366 43.5282 84.2137 43.5178 84.1886C43.5074 84.1635 43.502 84.1366 43.502 84.1094V39.8114C43.5014 39.7848 43.5061 39.7584 43.5157 39.7336C43.5253 39.7088 43.5397 39.6861 43.5581 39.6669C43.5765 39.6477 43.5985 39.6323 43.6228 39.6215C43.6472 39.6108 43.6734 39.605 43.7 39.6044L92.0885 37.5569C92.135 37.5504 92.1821 37.5623 92.2199 37.59C92.2578 37.6178 92.2833 37.6592 92.291 37.7054C98.4335 59.2154 93.6185 71.0054 90.104 79.5959C89.447 81.2114 88.8215 82.7459 88.3355 84.1769C88.3222 84.2177 88.2963 84.2531 88.2615 84.2782C88.2267 84.3032 88.1849 84.3166 88.142 84.3164ZM43.9115 83.9024H88.0115C88.493 82.4939 89.1005 81.0089 89.744 79.4384C93.227 70.9154 97.9925 59.2514 91.958 37.9754L43.9115 40.0094V83.9024Z" fill="#231F20"/>
<path d="M81.8641 82.2735C81.8356 82.2744 81.8072 82.2692 81.7809 82.2583C81.7545 82.2475 81.7307 82.2312 81.7111 82.2105C81.69 82.1896 81.6733 82.1647 81.6618 82.1373C81.6504 82.1099 81.6445 82.0805 81.6445 82.0508C81.6445 82.0211 81.6504 81.9916 81.6618 81.9642C81.6733 81.9368 81.69 81.9119 81.7111 81.891C85.9084 77.1036 88.7103 71.2554 89.8111 64.9845C89.8159 64.9553 89.8266 64.9274 89.8425 64.9024C89.8583 64.8775 89.8791 64.8559 89.9034 64.8392C89.9278 64.8224 89.9552 64.8106 89.9842 64.8047C90.0132 64.7987 90.0431 64.7987 90.0721 64.8045C90.1304 64.8144 90.1824 64.8469 90.2169 64.8949C90.2515 64.9429 90.2657 65.0026 90.2566 65.061C89.136 71.4222 86.2888 77.3532 82.0261 82.206C81.9832 82.2491 81.9249 82.2734 81.8641 82.2735Z" fill="#D1D3D4"/>
<path d="M92.4665 38.871C92.5025 39.6585 80.8205 57.5415 91.859 84.1095H135.091V39.8115L92.4665 38.871Z" fill="white"/>
<path d="M135.094 84.3165H91.8579C91.8169 84.3165 91.7769 84.304 91.7431 84.2807C91.7094 84.2574 91.6835 84.2244 91.6689 84.186C87.2049 73.44 83.6139 57.006 91.8714 39.7395C92.0189 39.4478 92.1482 39.1473 92.2584 38.8395C92.2579 38.8128 92.2629 38.7863 92.2729 38.7615C92.283 38.7368 92.2979 38.7143 92.3169 38.6955C92.3375 38.6767 92.3616 38.6622 92.3879 38.6529C92.4142 38.6436 92.4421 38.6398 92.4699 38.6415L135.094 39.6C135.148 39.6012 135.2 39.6235 135.237 39.6622C135.275 39.7009 135.296 39.7529 135.296 39.807V84.105C135.297 84.1322 135.292 84.1593 135.282 84.1846C135.273 84.2099 135.258 84.2331 135.239 84.2527C135.22 84.2724 135.198 84.2881 135.173 84.2991C135.148 84.31 135.121 84.3159 135.094 84.3165ZM91.9974 83.9025H134.887V40.014L92.6229 39.078C92.5644 39.2355 92.4474 39.483 92.2404 39.915C84.0819 56.979 87.5874 73.233 91.9974 83.9025Z" fill="#231F20"/>
<path d="M98.4654 80.8514C98.4175 80.851 98.3708 80.8356 98.3321 80.8074C98.2934 80.7791 98.2644 80.7395 98.2494 80.6939C97.2009 77.1659 98.2224 75.0689 98.2494 74.9835C98.2697 74.9431 98.3014 74.9096 98.3406 74.8872C98.3799 74.8648 98.4248 74.8544 98.4699 74.8575C98.5147 74.862 98.557 74.8799 98.5915 74.9088C98.626 74.9376 98.651 74.9762 98.6634 75.0195C99.4491 77.207 100.898 79.0947 102.808 80.4194C102.857 80.4524 102.892 80.5036 102.903 80.5617C102.915 80.6199 102.903 80.6803 102.871 80.7299C102.837 80.7796 102.785 80.8139 102.726 80.8257C102.667 80.8375 102.606 80.8257 102.556 80.7929C100.728 79.5354 99.3023 77.7756 98.4519 75.7259C98.0728 77.3193 98.1461 78.9869 98.6634 80.5409C98.6803 80.5976 98.6742 80.6587 98.6464 80.7109C98.6186 80.7631 98.5714 80.8023 98.5149 80.8199C98.5003 80.8331 98.4836 80.8438 98.4654 80.8514Z" fill="#D1D3D4"/>
<path d="M42.4479 24.7321L30.7344 37.7641H39.1989L49.2384 24.7321H42.4479Z" fill="white"/>
<path d="M39.1991 37.9665H30.7346C30.6947 37.9666 30.6557 37.9552 30.6221 37.9337C30.5886 37.9121 30.562 37.8813 30.5456 37.845C30.5304 37.8086 30.5257 37.7686 30.5321 37.7296C30.5384 37.6907 30.5556 37.6543 30.5816 37.6245L42.2996 24.597C42.3182 24.5745 42.3415 24.5563 42.368 24.5439C42.3944 24.5314 42.4233 24.525 42.4525 24.525H49.2431C49.2818 24.5248 49.3197 24.5358 49.3524 24.5565C49.3851 24.5772 49.4112 24.6069 49.4275 24.642C49.4485 24.6742 49.4596 24.7117 49.4596 24.75C49.4596 24.7884 49.4485 24.8259 49.4275 24.858L39.3926 37.908C39.3677 37.9332 39.337 37.9517 39.3032 37.9619C39.2694 37.9721 39.2336 37.9737 39.1991 37.9665ZM31.1936 37.557H39.1001L48.82 24.957H42.5201L31.1936 37.557Z" fill="#231F20"/>
<path d="M49.2387 24.7321L39.1992 37.7641H47.6682L56.0337 24.7321H49.2387Z" fill="#FF651D"/>
<path d="M47.6681 37.9666H39.1991C39.1611 37.9661 39.1239 37.9555 39.0914 37.9357C39.0589 37.9159 39.0324 37.8877 39.0146 37.8541C38.9961 37.8211 38.9863 37.7839 38.9863 37.7461C38.9863 37.7083 38.9961 37.6711 39.0146 37.6381L49.0541 24.5881C49.0734 24.5634 49.098 24.5434 49.126 24.5294C49.154 24.5154 49.1848 24.5077 49.2161 24.5071H56.0111C56.0481 24.5076 56.0843 24.518 56.1159 24.5372C56.1475 24.5564 56.1734 24.5838 56.1908 24.6164C56.2083 24.649 56.2167 24.6857 56.2152 24.7227C56.2136 24.7596 56.2022 24.7955 56.1821 24.8266L47.8391 37.8721C47.8209 37.901 47.7956 37.9248 47.7657 37.9413C47.7358 37.9578 47.7022 37.9665 47.6681 37.9666ZM39.5996 37.5571H47.5376L55.6376 24.9571H49.3376L39.5996 37.5571Z" fill="#231F20"/>
<path d="M56.0335 24.7321L47.668 37.7641H56.1325L62.8285 24.7321H56.0335Z" fill="white"/>
<path d="M56.1325 37.9666H47.668C47.6316 37.9667 47.5957 37.9572 47.5641 37.939C47.5325 37.9209 47.5063 37.8947 47.488 37.8631C47.469 37.8311 47.459 37.7946 47.459 37.7573C47.459 37.7201 47.469 37.6836 47.488 37.6516L55.8535 24.6016C55.8728 24.5726 55.8988 24.5488 55.9295 24.5324C55.9601 24.5159 55.9943 24.5072 56.029 24.5071H62.824C62.8585 24.508 62.8923 24.5176 62.9221 24.5349C62.952 24.5522 62.9771 24.5766 62.995 24.6061C63.0128 24.6369 63.0222 24.6718 63.0222 24.7073C63.0222 24.7429 63.0128 24.7778 62.995 24.8086L56.3035 37.8586C56.2867 37.8897 56.2621 37.916 56.2321 37.9349C56.2022 37.9538 56.1679 37.9647 56.1325 37.9666ZM48.0325 37.5571H55.9975L62.482 24.9571H56.137L48.0325 37.5571Z" fill="#231F20"/>
<path d="M62.8288 24.7321L56.1328 37.7641H64.6018L69.6193 24.7321H62.8288Z" fill="#FF651D"/>
<path d="M64.6013 37.9666H56.1323C56.0975 37.9665 56.0633 37.9578 56.0327 37.9413C56.0021 37.9248 55.976 37.901 55.9568 37.8721C55.939 37.8413 55.9297 37.8064 55.9297 37.7708C55.9297 37.7353 55.939 37.7004 55.9568 37.6696L62.6483 24.6196C62.6657 24.5857 62.6922 24.5572 62.7247 24.5373C62.7573 24.5175 62.7947 24.507 62.8328 24.5071H69.6233C69.6567 24.5072 69.6895 24.5153 69.719 24.5308C69.7485 24.5463 69.7738 24.5687 69.7928 24.5961C69.8118 24.6235 69.8239 24.6551 69.8281 24.6882C69.8323 24.7212 69.8284 24.7548 69.8168 24.7861L64.7993 37.8361C64.7855 37.8767 64.7585 37.9116 64.7227 37.9352C64.6868 37.9588 64.6441 37.9699 64.6013 37.9666ZM56.4698 37.5571H64.4573L69.3173 24.9571H62.9498L56.4698 37.5571Z" fill="#231F20"/>
<path d="M69.6191 24.7321L64.6016 37.7641H73.0661L76.4141 24.7321H69.6191Z" fill="white"/>
<path d="M73.0656 37.9665H64.6011C64.5674 37.9675 64.534 37.9601 64.5039 37.9449C64.4737 37.9297 64.4479 37.9072 64.4287 37.8795C64.4095 37.8518 64.3975 37.8197 64.3938 37.7862C64.3901 37.7527 64.3949 37.7187 64.4076 37.6875L69.4251 24.66C69.4398 24.6205 69.4662 24.5864 69.5008 24.5623C69.5353 24.5381 69.5765 24.5251 69.6186 24.525H76.4136C76.4449 24.5257 76.4757 24.5333 76.5037 24.5473C76.5317 24.5613 76.5563 24.5814 76.5756 24.606C76.5944 24.6307 76.6074 24.6593 76.6136 24.6897C76.6198 24.7201 76.6191 24.7514 76.6116 24.7815L73.2636 37.8315C73.2493 37.8722 73.2223 37.9072 73.1867 37.9315C73.1511 37.9557 73.1087 37.968 73.0656 37.9665ZM64.8981 37.557H72.8991L76.1391 24.957H69.7491L64.8981 37.557Z" fill="#231F20"/>
<path d="M76.4144 24.7321L73.0664 37.7641H81.5354L83.2049 24.7321H76.4144Z" fill="#FF651D"/>
<path d="M81.5358 37.9665H73.0668C73.0358 37.9667 73.0052 37.9599 72.9771 37.9467C72.9491 37.9335 72.9244 37.9141 72.9048 37.89C72.8851 37.865 72.8715 37.8356 72.8653 37.8043C72.859 37.7731 72.8602 37.7407 72.8688 37.71L76.2168 24.6825C76.2278 24.6381 76.2531 24.5985 76.289 24.57C76.3248 24.5415 76.3691 24.5257 76.4148 24.525H83.2053C83.2351 24.5255 83.2645 24.5322 83.2916 24.5445C83.3187 24.5569 83.343 24.5748 83.3628 24.597C83.399 24.6429 83.4166 24.7007 83.4123 24.759L81.7383 37.809C81.7279 37.8546 81.7021 37.8952 81.6652 37.9239C81.6283 37.9526 81.5826 37.9677 81.5358 37.9665ZM73.3503 37.557H81.3693L82.9893 24.957H76.5723L73.3503 37.557Z" fill="#231F20"/>
<path d="M83.2047 24.7321L81.5352 37.7641H89.9996V24.7321H83.2047Z" fill="white"/>
<path d="M90.0003 37.9665H81.5358C81.5062 37.9674 81.4767 37.9619 81.4495 37.9502C81.4223 37.9385 81.398 37.921 81.3783 37.899C81.3421 37.853 81.3245 37.7952 81.3288 37.737L83.0028 24.687C83.0083 24.6372 83.0321 24.5913 83.0695 24.5581C83.1069 24.5249 83.1552 24.5067 83.2053 24.507H90.0003C90.0548 24.5081 90.1068 24.5303 90.1454 24.5689C90.1839 24.6074 90.2061 24.6594 90.2073 24.714V37.764C90.2061 37.8181 90.1838 37.8696 90.1451 37.9074C90.1064 37.9453 90.0544 37.9665 90.0003 37.9665ZM81.7698 37.557H89.7933V24.957H83.3898L81.7698 37.557Z" fill="#231F20"/>
<path d="M90 24.7321V37.7641H98.4645L96.795 24.7321H90Z" fill="#FF651D"/>
<path d="M98.4645 37.9665H90C89.9458 37.9665 89.8939 37.9453 89.8552 37.9074C89.8165 37.8696 89.7941 37.8181 89.793 37.764V24.75C89.7941 24.6954 89.8163 24.6434 89.8549 24.6049C89.8934 24.5663 89.9454 24.5441 90 24.543H96.795C96.845 24.5427 96.8934 24.5609 96.9308 24.5941C96.9681 24.6274 96.9919 24.6733 96.9975 24.723L98.6715 37.773C98.6758 37.8313 98.6581 37.889 98.622 37.935C98.5993 37.9507 98.5736 37.9616 98.5465 37.967C98.5194 37.9724 98.4915 37.9722 98.4645 37.9665ZM90.207 37.557H98.2305L96.6105 24.957H90.207V37.557Z" fill="#231F20"/>
<path d="M96.7949 24.7321L98.4644 37.7641H106.933L103.585 24.7321H96.7949Z" fill="white"/>
<path d="M106.934 37.9666H98.465C98.4157 37.967 98.3679 37.9494 98.3306 37.9171C98.2933 37.8848 98.2691 37.84 98.2625 37.7911L96.5885 24.7411C96.5842 24.6828 96.6019 24.625 96.638 24.5791C96.6579 24.5569 96.6821 24.539 96.7092 24.5266C96.7364 24.5142 96.7657 24.5076 96.7955 24.5071H103.586C103.632 24.5077 103.676 24.5236 103.712 24.5521C103.748 24.5806 103.773 24.6201 103.784 24.6646L107.132 37.6921C107.141 37.7228 107.142 37.7551 107.136 37.7864C107.129 37.8177 107.116 37.847 107.096 37.8721C107.078 37.8995 107.054 37.9223 107.026 37.9387C106.998 37.9551 106.967 37.9647 106.934 37.9666ZM98.6495 37.5571H106.651L103.411 24.9571H97.0295L98.6495 37.5571Z" fill="#231F20"/>
<path d="M103.586 24.7321L106.934 37.7641H115.398L110.381 24.7321H103.586Z" fill="#FF651D"/>
<path d="M115.398 37.9666H106.933C106.888 37.967 106.843 37.9521 106.808 37.9243C106.772 37.8966 106.746 37.8576 106.735 37.8136L103.387 24.7636C103.38 24.7335 103.379 24.7021 103.385 24.6717C103.391 24.6414 103.404 24.6128 103.423 24.5881C103.442 24.5634 103.467 24.5434 103.495 24.5294C103.523 24.5154 103.554 24.5077 103.585 24.5071H110.38C110.422 24.5072 110.463 24.5202 110.498 24.5443C110.532 24.5684 110.559 24.6025 110.574 24.6421L115.591 37.6921C115.604 37.7233 115.609 37.7572 115.605 37.7908C115.601 37.8243 115.589 37.8564 115.57 37.8841C115.551 37.9118 115.525 37.9343 115.495 37.9495C115.465 37.9647 115.431 37.9721 115.398 37.9711V37.9666ZM107.1 37.5571H115.11L110.25 24.9571H103.86L107.1 37.5571Z" fill="#231F20"/>
<path d="M110.381 24.7321L115.398 37.7641H123.867L117.171 24.7321H110.381Z" fill="white"/>
<path d="M123.867 37.9666H115.398C115.356 37.9679 115.316 37.9559 115.282 37.9324C115.248 37.9089 115.222 37.8752 115.209 37.8361L110.187 24.7861C110.175 24.7548 110.171 24.7212 110.175 24.6882C110.18 24.6551 110.192 24.6235 110.211 24.5961C110.23 24.5687 110.255 24.5463 110.285 24.5308C110.314 24.5153 110.347 24.5072 110.38 24.5071H117.171C117.209 24.507 117.246 24.5175 117.279 24.5373C117.311 24.5572 117.338 24.5857 117.355 24.6196L124.047 37.6696C124.065 37.7004 124.074 37.7353 124.074 37.7708C124.074 37.8064 124.065 37.8413 124.047 37.8721C124.027 37.9017 124 37.9259 123.969 37.9424C123.937 37.9589 123.902 37.9672 123.867 37.9666ZM115.542 37.5571H123.529L117.049 24.9571H110.7L115.542 37.5571Z" fill="#231F20"/>
<path d="M117.172 24.7321L123.868 37.7641H132.332L123.967 24.7321H117.172Z" fill="#FF651D"/>
<path d="M132.331 37.9665H123.867C123.829 37.967 123.792 37.9572 123.76 37.9382C123.727 37.9191 123.7 37.8916 123.682 37.8585L117 24.8265C116.982 24.7957 116.973 24.7608 116.973 24.7253C116.973 24.6897 116.982 24.6548 117 24.624C117.018 24.5946 117.043 24.5701 117.073 24.5528C117.103 24.5355 117.136 24.526 117.171 24.525H123.966C124.001 24.5251 124.035 24.5338 124.065 24.5503C124.096 24.5668 124.122 24.5906 124.141 24.6195L132.507 37.6695C132.526 37.7015 132.536 37.738 132.536 37.7753C132.536 37.8125 132.526 37.849 132.507 37.881C132.487 37.9086 132.46 37.9308 132.43 37.9458C132.399 37.9607 132.365 37.9678 132.331 37.9665ZM123.993 37.557H131.958L123.858 24.957H117.513L123.993 37.557Z" fill="#231F20"/>
<path d="M123.967 24.7321L132.332 37.7641H140.801L130.762 24.7321H123.967Z" fill="white"/>
<path d="M140.8 37.9665H132.331C132.297 37.9665 132.264 37.9578 132.234 37.9413C132.204 37.9247 132.179 37.9009 132.16 37.872L123.795 24.8445C123.775 24.8135 123.763 24.7776 123.762 24.7406C123.76 24.7037 123.769 24.6669 123.786 24.6343C123.804 24.6017 123.83 24.5744 123.861 24.5551C123.893 24.5359 123.929 24.5255 123.966 24.525H130.761C130.792 24.5257 130.823 24.5333 130.851 24.5473C130.879 24.5613 130.904 24.5814 130.923 24.606L140.962 37.656C140.985 37.687 140.998 37.7232 141.002 37.7611C141.006 37.7989 141 37.8371 140.985 37.872C140.965 37.9023 140.937 37.9269 140.905 37.9434C140.873 37.96 140.837 37.9679 140.8 37.9665ZM132.444 37.557H140.4L130.675 24.957H124.375L132.444 37.557Z" fill="#231F20"/>
<path d="M130.762 24.7321L140.801 37.7641H149.266L137.552 24.7321H130.762Z" fill="#FF651D"/>
<path d="M149.265 37.9665H140.801C140.769 37.967 140.738 37.9605 140.709 37.9472C140.68 37.934 140.655 37.9144 140.634 37.89L130.595 24.84C130.575 24.8075 130.564 24.7701 130.564 24.732C130.564 24.6939 130.575 24.6565 130.595 24.624C130.611 24.5885 130.637 24.5586 130.67 24.5377C130.702 24.5169 130.741 24.5062 130.779 24.507H137.57C137.599 24.507 137.628 24.5134 137.654 24.5258C137.681 24.5383 137.704 24.5564 137.723 24.579L149.423 37.629C149.449 37.6587 149.466 37.6951 149.472 37.7341C149.479 37.7731 149.474 37.813 149.459 37.8495C149.441 37.8857 149.414 37.916 149.38 37.9367C149.345 37.9575 149.306 37.9679 149.265 37.9665ZM140.9 37.557H148.806L137.462 24.957H131.162L140.9 37.557Z" fill="#231F20"/>
<path d="M30.7344 37.7639H39.1989V44.9144C39.1989 46.0112 38.7632 47.0631 37.9876 47.8387C37.2121 48.6142 36.1602 49.0499 35.0634 49.0499H34.8699C33.7731 49.0499 32.7212 48.6142 31.9456 47.8387C31.1701 47.0631 30.7344 46.0112 30.7344 44.9144V37.7639Z" fill="white"/>
<path d="M35.0633 49.257H34.8698C33.7185 49.2558 32.6147 48.7979 31.8005 47.9838C30.9864 47.1697 30.5285 46.0658 30.5273 44.9145V37.764C30.5285 37.7095 30.5507 37.6575 30.5892 37.6189C30.6278 37.5803 30.6798 37.5582 30.7343 37.557H39.1988C39.2537 37.557 39.3064 37.5788 39.3452 37.6176C39.384 37.6565 39.4058 37.7091 39.4058 37.764V44.9145C39.4047 46.0658 38.9468 47.1697 38.1326 47.9838C37.3185 48.7979 36.2147 49.2558 35.0633 49.257ZM30.9413 37.9665V44.9145C30.9425 45.956 31.3568 46.9546 32.0933 47.6911C32.8298 48.4275 33.8283 48.8418 34.8698 48.843H35.0633C36.1053 48.8418 37.1043 48.4277 37.8415 47.6913C38.5787 46.955 38.994 45.9565 38.9963 44.9145V37.9665H30.9413Z" fill="#231F20"/>
<path d="M39.1992 37.7639H47.6637V44.9144C47.6637 46.0112 47.228 47.0631 46.4525 47.8387C45.6769 48.6142 44.625 49.0499 43.5282 49.0499H43.3347C42.2379 49.0499 41.186 48.6142 40.4105 47.8387C39.6349 47.0631 39.1992 46.0112 39.1992 44.9144V37.7639Z" fill="#FF651D"/>
<path d="M43.5276 49.257H43.3386C42.1873 49.2558 41.0834 48.7979 40.2693 47.9838C39.4552 47.1697 38.9973 46.0658 38.9961 44.9145V37.764C38.9961 37.7099 39.0173 37.6579 39.0551 37.6192C39.093 37.5805 39.1445 37.5582 39.1986 37.557H47.6676C47.7217 37.5582 47.7732 37.5805 47.8111 37.6192C47.8489 37.6579 47.8701 37.7099 47.8701 37.764V44.9145C47.8689 46.0658 47.411 47.1697 46.5969 47.9838C45.7828 48.7979 44.6789 49.2558 43.5276 49.257ZM39.4056 37.9665V44.9145C39.408 45.9565 39.8232 46.955 40.5604 47.6913C41.2976 48.4277 42.2966 48.8418 43.3386 48.843H43.5276C44.5695 48.8418 45.5685 48.4277 46.3057 47.6913C47.0429 46.955 47.4582 45.9565 47.4606 44.9145V37.9665H39.4056Z" fill="#231F20"/>
<path d="M47.668 37.7639H56.1325V44.9144C56.1325 46.0112 55.6968 47.0631 54.9212 47.8387C54.1456 48.6142 53.0938 49.0499 51.997 49.0499H51.8035C50.7067 49.0499 49.6548 48.6142 48.8792 47.8387C48.1037 47.0631 47.668 46.0112 47.668 44.9144V37.7639Z" fill="white"/>
<path d="M51.9969 49.257H51.8034C50.6521 49.2558 49.5483 48.7979 48.7341 47.9838C47.92 47.1697 47.4621 46.0658 47.4609 44.9145V37.764C47.4621 37.7095 47.4843 37.6575 47.5228 37.6189C47.5614 37.5803 47.6134 37.5582 47.6679 37.557H56.1324C56.187 37.5582 56.239 37.5803 56.2775 37.6189C56.3161 37.6575 56.3383 37.7095 56.3394 37.764V44.9145C56.3382 46.0658 55.8804 47.1697 55.0662 47.9838C54.2521 48.7979 53.1483 49.2558 51.9969 49.257ZM47.8704 37.9665V44.9145C47.8728 45.9565 48.2881 46.955 49.0253 47.6913C49.7625 48.4277 50.7615 48.8418 51.8034 48.843H51.9969C53.0389 48.8418 54.0379 48.4277 54.7751 47.6913C55.5123 46.955 55.9276 45.9565 55.9299 44.9145V37.9665H47.8704Z" fill="#231F20"/>
<path d="M56.1328 37.7639H64.5973V44.9144C64.5973 46.0112 64.1616 47.0631 63.386 47.8387C62.6105 48.6142 61.5586 49.0499 60.4618 49.0499H60.2683C59.1715 49.0499 58.1196 48.6142 57.3441 47.8387C56.5685 47.0631 56.1328 46.0112 56.1328 44.9144V37.7639Z" fill="#FF651D"/>
<path d="M60.4612 49.257H60.2722C59.1209 49.2558 58.017 48.7979 57.2029 47.9838C56.3888 47.1697 55.9309 46.0658 55.9297 44.9145V37.764C55.9297 37.7099 55.9509 37.6579 55.9887 37.6192C56.0266 37.5805 56.0781 37.5582 56.1322 37.557H64.6012C64.6553 37.5582 64.7068 37.5805 64.7447 37.6192C64.7825 37.6579 64.8037 37.7099 64.8037 37.764V44.9145C64.8025 46.0658 64.3446 47.1697 63.5305 47.9838C62.7164 48.7979 61.6125 49.2558 60.4612 49.257ZM56.3392 37.9665V44.9145C56.3416 45.9565 56.7568 46.955 57.494 47.6913C58.2312 48.4277 59.2302 48.8418 60.2722 48.843H60.4612C61.5031 48.8418 62.5021 48.4277 63.2393 47.6913C63.9765 46.955 64.3918 45.9565 64.3942 44.9145V37.9665H56.3392Z" fill="#231F20"/>
<path d="M64.6016 37.7639H73.0661V44.9144C73.0661 46.0112 72.6304 47.0631 71.8548 47.8387C71.0792 48.6142 70.0274 49.0499 68.9306 49.0499H68.7371C67.6403 49.0499 66.5884 48.6142 65.8128 47.8387C65.0373 47.0631 64.6016 46.0112 64.6016 44.9144V37.7639Z" fill="white"/>
<path d="M68.9305 49.257H68.737C67.5857 49.2558 66.4818 48.7979 65.6677 47.9838C64.8536 47.1697 64.3957 46.0658 64.3945 44.9145V37.764C64.3945 37.7091 64.4163 37.6565 64.4552 37.6176C64.494 37.5788 64.5466 37.557 64.6015 37.557H73.066C73.1206 37.5582 73.1726 37.5803 73.2111 37.6189C73.2497 37.6575 73.2719 37.7095 73.273 37.764V44.9145C73.2718 46.0658 72.8139 47.1697 71.9998 47.9838C71.1857 48.7979 70.0819 49.2558 68.9305 49.257ZM64.7995 37.9665V44.9145C64.8019 45.9565 65.2172 46.955 65.9544 47.6913C66.6916 48.4277 67.6906 48.8418 68.7325 48.843H68.926C69.9676 48.8418 70.9661 48.4275 71.7026 47.6911C72.4391 46.9546 72.8533 45.956 72.8545 44.9145V37.9665H64.7995Z" fill="#231F20"/>
<path d="M73.0664 37.7639H81.5309V44.9144C81.5309 46.0104 81.0958 47.0616 80.3212 47.8371C79.5467 48.6125 78.4959 49.0487 77.3999 49.0499H77.2064C76.1096 49.0499 75.0577 48.6142 74.2822 47.8387C73.5066 47.0631 73.0709 46.0112 73.0709 44.9144V37.7639H73.0664Z" fill="#FF651D"/>
<path d="M77.3993 49.257H77.2103C76.0582 49.257 74.9532 48.7996 74.1381 47.9854C73.323 47.1711 72.8645 46.0666 72.8633 44.9145V37.764C72.8644 37.7095 72.8866 37.6575 72.9252 37.6189C72.9638 37.5803 73.0157 37.5582 73.0703 37.557H81.5393C81.5934 37.5582 81.6449 37.5805 81.6828 37.6192C81.7206 37.6579 81.7418 37.7099 81.7418 37.764V44.9145C81.7406 46.0658 81.2827 47.1697 80.4686 47.9838C79.6545 48.7979 78.5506 49.2558 77.3993 49.257ZM73.2773 37.9665V44.9145C73.2797 45.9565 73.6949 46.955 74.4321 47.6913C75.1693 48.4277 76.1683 48.8418 77.2103 48.843H77.3993C78.4412 48.8418 79.4402 48.4277 80.1774 47.6913C80.9146 46.955 81.3299 45.9565 81.3323 44.9145V37.9665H73.2773Z" fill="#231F20"/>
<path d="M81.5352 37.7639H89.9996V44.9144C89.9996 46.0112 89.5639 47.0631 88.7884 47.8387C88.0128 48.6142 86.961 49.0499 85.8642 49.0499H85.6707C84.5739 49.0499 83.522 48.6142 82.7464 47.8387C81.9709 47.0631 81.5352 46.0112 81.5352 44.9144V37.7639Z" fill="white"/>
<path d="M85.8641 49.257H85.6706C84.5193 49.2558 83.4155 48.7979 82.6013 47.9838C81.7872 47.1697 81.3293 46.0658 81.3281 44.9145V37.764C81.3281 37.7091 81.3499 37.6565 81.3888 37.6176C81.4276 37.5788 81.4802 37.557 81.5351 37.557H89.9996C90.0542 37.5582 90.1062 37.5803 90.1447 37.6189C90.1833 37.6575 90.2055 37.7095 90.2066 37.764V44.9145C90.2055 46.0658 89.7476 47.1697 88.9334 47.9838C88.1193 48.7979 87.0155 49.2558 85.8641 49.257ZM81.7376 37.9665V44.9145C81.74 45.9565 82.1553 46.955 82.8925 47.6913C83.6297 48.4277 84.6287 48.8418 85.6706 48.843H85.8641C86.9057 48.8418 87.9042 48.4275 88.6407 47.6911C89.3772 46.9546 89.7914 45.956 89.7926 44.9145V37.9665H81.7376Z" fill="#231F20"/>
<path d="M90 37.7639H98.4645V44.9144C98.4645 46.0112 98.0288 47.0631 97.2533 47.8387C96.4777 48.6142 95.4258 49.0499 94.329 49.0499H94.1355C93.0387 49.0499 91.9868 48.6142 91.2113 47.8387C90.4357 47.0631 90 46.0112 90 44.9144V37.7639Z" fill="#FF651D"/>
<path d="M94.329 49.257H94.1355C92.9841 49.2558 91.8803 48.7979 91.0662 47.9838C90.2521 47.1697 89.7942 46.0658 89.793 44.9145V37.764C89.7941 37.7095 89.8163 37.6575 89.8549 37.6189C89.8934 37.5803 89.9454 37.5582 90 37.557H98.4645C98.5194 37.557 98.572 37.5788 98.6108 37.6176C98.6497 37.6565 98.6715 37.7091 98.6715 37.764V44.9145C98.6703 46.0658 98.2124 47.1697 97.3983 47.9838C96.5842 48.7979 95.4803 49.2558 94.329 49.257ZM90.207 37.9665V44.9145C90.2082 45.956 90.6224 46.9546 91.3589 47.6911C92.0954 48.4275 93.0939 48.8418 94.1355 48.843H94.329C95.3709 48.8418 96.3699 48.4277 97.1071 47.6913C97.8443 46.955 98.2596 45.9565 98.262 44.9145V37.9665H90.207Z" fill="#231F20"/>
<path d="M98.4648 37.7639H106.929V44.9144C106.929 46.0112 106.494 47.0631 105.718 47.8387C104.943 48.6142 103.891 49.0499 102.794 49.0499H102.6C101.504 49.0499 100.452 48.6142 99.6761 47.8387C98.9006 47.0631 98.4648 46.0112 98.4648 44.9144V37.7639Z" fill="white"/>
<path d="M102.794 49.257H102.6C101.449 49.2558 100.345 48.7979 99.531 47.9838C98.7169 47.1697 98.259 46.0658 98.2578 44.9145V37.764C98.2578 37.7099 98.279 37.6579 98.3168 37.6192C98.3547 37.5805 98.4062 37.5582 98.4603 37.557H106.929C106.984 37.5582 107.036 37.5803 107.074 37.6189C107.113 37.6575 107.135 37.7095 107.136 37.764V44.9145C107.135 46.0658 106.677 47.1697 105.863 47.9838C105.049 48.7979 103.945 49.2558 102.794 49.257ZM98.6718 37.9665V44.9145C98.6742 45.9565 99.0895 46.955 99.8267 47.6913C100.564 48.4277 101.563 48.8418 102.605 48.843H102.794C103.836 48.8418 104.835 48.4277 105.572 47.6913C106.309 46.955 106.724 45.9565 106.727 44.9145V37.9665H98.6718Z" fill="#231F20"/>
<path d="M106.934 37.7639H115.398V44.9144C115.398 46.0112 114.962 47.0631 114.187 47.8387C113.411 48.6142 112.359 49.0499 111.263 49.0499H111.069C109.972 49.0499 108.92 48.6142 108.145 47.8387C107.369 47.0631 106.934 46.0112 106.934 44.9144V37.7639Z" fill="#FF651D"/>
<path d="M111.263 49.257H111.069C109.918 49.2558 108.814 48.7979 108 47.9838C107.186 47.1697 106.728 46.0658 106.727 44.9145V37.764C106.728 37.7095 106.75 37.6575 106.788 37.6189C106.827 37.5803 106.879 37.5582 106.934 37.557H115.398C115.453 37.557 115.506 37.5788 115.544 37.6176C115.583 37.6565 115.605 37.7091 115.605 37.764V44.9145C115.604 46.0658 115.146 47.1697 114.332 47.9838C113.518 48.7979 112.414 49.2558 111.263 49.257ZM107.141 37.9665V44.9145C107.142 45.956 107.556 46.9546 108.293 47.6911C109.029 48.4275 110.028 48.8418 111.069 48.843H111.263C112.305 48.843 113.305 48.4294 114.044 47.6929C114.782 46.9564 115.198 45.9572 115.2 44.9145V37.9665H107.141Z" fill="#231F20"/>
<path d="M115.398 37.7639H123.863V44.9144C123.863 46.0112 123.427 47.0631 122.652 47.8387C121.876 48.6142 120.824 49.0499 119.727 49.0499H119.534C118.437 49.0499 117.385 48.6142 116.61 47.8387C115.834 47.0631 115.398 46.0112 115.398 44.9144V37.7639Z" fill="white"/>
<path d="M119.726 49.257H119.537C118.387 49.2546 117.284 48.7962 116.471 47.9822C115.658 47.1682 115.2 46.0651 115.199 44.9145V37.764C115.199 37.7099 115.22 37.6579 115.258 37.6192C115.296 37.5805 115.348 37.5582 115.402 37.557H123.871C123.925 37.5582 123.976 37.5805 124.014 37.6192C124.052 37.6579 124.073 37.7099 124.073 37.764V44.9145C124.072 46.0666 123.614 47.1711 122.798 47.9854C121.983 48.7996 120.878 49.257 119.726 49.257ZM115.604 37.9665V44.9145C115.607 45.9565 116.022 46.955 116.759 47.6913C117.496 48.4277 118.495 48.8418 119.537 48.843H119.726C120.768 48.8418 121.767 48.4277 122.504 47.6913C123.242 46.955 123.657 45.9565 123.659 44.9145V37.9665H115.604Z" fill="#231F20"/>
<path d="M123.867 37.7639H132.332V44.9144C132.332 46.0112 131.896 47.0631 131.12 47.8387C130.345 48.6142 129.293 49.0499 128.196 49.0499H128.003C126.906 49.0499 125.854 48.6142 125.078 47.8387C124.303 47.0631 123.867 46.0112 123.867 44.9144V37.7639Z" fill="#FF651D"/>
<path d="M128.196 49.257H128.003C126.851 49.2558 125.747 48.7979 124.933 47.9838C124.119 47.1697 123.661 46.0658 123.66 44.9145V37.764C123.661 37.7095 123.683 37.6575 123.722 37.6189C123.761 37.5803 123.813 37.5582 123.867 37.557H132.332C132.386 37.5582 132.438 37.5803 132.477 37.6189C132.515 37.6575 132.538 37.7095 132.539 37.764V44.9145C132.537 46.0658 132.08 47.1697 131.265 47.9838C130.451 48.7979 129.348 49.2558 128.196 49.257ZM124.07 37.9665V44.9145C124.072 45.9565 124.487 46.955 125.225 47.6913C125.962 48.4277 126.961 48.8418 128.003 48.843H128.196C129.238 48.8418 130.236 48.4275 130.973 47.6911C131.709 46.9546 132.123 45.956 132.125 44.9145V37.9665H124.07Z" fill="#231F20"/>
<path d="M132.332 37.7639H140.797V44.9144C140.797 46.0112 140.361 47.0631 139.585 47.8387C138.81 48.6142 137.758 49.0499 136.661 49.0499H136.468C135.371 49.0499 134.319 48.6142 133.543 47.8387C132.768 47.0631 132.332 46.0112 132.332 44.9144V37.7639Z" fill="white"/>
<path d="M136.661 49.257H136.472C135.32 49.257 134.215 48.7996 133.4 47.9854C132.585 47.1711 132.126 46.0666 132.125 44.9145V37.764C132.126 37.7095 132.148 37.6575 132.187 37.6189C132.225 37.5803 132.277 37.5582 132.332 37.557H140.801C140.855 37.5582 140.907 37.5805 140.944 37.6192C140.982 37.6579 141.004 37.7099 141.004 37.764V44.9145C141.002 46.0658 140.544 47.1697 139.73 47.9838C138.916 48.7979 137.812 49.2558 136.661 49.257ZM132.539 37.9665V44.9145C132.541 45.9565 132.957 46.955 133.694 47.6913C134.431 48.4277 135.43 48.8418 136.472 48.843H136.661C137.703 48.8418 138.702 48.4277 139.439 47.6913C140.176 46.955 140.592 45.9565 140.594 44.9145V37.9665H132.539Z" fill="#231F20"/>
<path d="M140.801 37.7639H149.265V44.9144C149.265 46.0112 148.83 47.0631 148.054 47.8387C147.278 48.6142 146.227 49.0499 145.13 49.0499H144.936C143.839 49.0499 142.788 48.6142 142.012 47.8387C141.236 47.0631 140.801 46.0112 140.801 44.9144V37.7639Z" fill="#FF651D"/>
<path d="M145.13 49.257H144.936C143.785 49.2558 142.681 48.7979 141.867 47.9838C141.053 47.1697 140.595 46.0658 140.594 44.9145V37.764C140.594 37.7091 140.616 37.6565 140.654 37.6176C140.693 37.5788 140.746 37.557 140.801 37.557H149.265C149.32 37.5582 149.372 37.5803 149.41 37.6189C149.449 37.6575 149.471 37.7095 149.472 37.764V44.9145C149.471 46.0658 149.013 47.1697 148.199 47.9838C147.385 48.7979 146.281 49.2558 145.13 49.257ZM141.003 37.9665V44.9145C141.006 45.9565 141.421 46.955 142.158 47.6913C142.895 48.4277 143.894 48.8418 144.936 48.843H145.13C146.171 48.8418 147.17 48.4275 147.906 47.6911C148.643 46.9546 149.057 45.956 149.058 44.9145V37.9665H141.003Z" fill="#231F20"/>
<path d="M117.171 62.6265H62.8242V76.7565H117.171V62.6265Z" fill="white"/>
<path d="M117.17 76.95H62.8281C62.7732 76.95 62.7205 76.9281 62.6817 76.8893C62.6429 76.8505 62.6211 76.7979 62.6211 76.743V62.6129C62.6211 62.586 62.6265 62.5593 62.6369 62.5344C62.6474 62.5095 62.6627 62.487 62.682 62.4681C62.7013 62.4493 62.7241 62.4345 62.7492 62.4246C62.7743 62.4146 62.8011 62.4099 62.8281 62.4105H117.17C117.197 62.4099 117.224 62.4146 117.249 62.4246C117.274 62.4345 117.297 62.4493 117.316 62.4681C117.335 62.487 117.351 62.5095 117.361 62.5344C117.372 62.5593 117.377 62.586 117.377 62.6129V76.743C117.377 76.7979 117.355 76.8505 117.316 76.8893C117.278 76.9281 117.225 76.95 117.17 76.95ZM63.0306 76.536H116.968V62.8335H63.0306V76.536Z" fill="#231F20"/>
<path d="M114.084 62.8335H114.021L90.0002 54.54L65.9792 62.8245C65.9287 62.837 65.8753 62.8299 65.8298 62.8048C65.7842 62.7797 65.7497 62.7384 65.7333 62.689C65.7168 62.6396 65.7196 62.5859 65.741 62.5384C65.7624 62.491 65.8008 62.4534 65.8487 62.433L89.9327 54.126C89.9767 54.1125 90.0237 54.1125 90.0677 54.126L114.152 62.433C114.204 62.4505 114.246 62.4877 114.271 62.5366C114.295 62.5855 114.299 62.6421 114.282 62.694C114.267 62.7347 114.241 62.77 114.205 62.7949C114.17 62.8198 114.128 62.8333 114.084 62.8335Z" fill="#231F20"/>
<path d="M89.9991 56.4345C91.0256 56.4345 91.8576 55.6025 91.8576 54.576C91.8576 53.5496 91.0256 52.7175 89.9991 52.7175C88.9727 52.7175 88.1406 53.5496 88.1406 54.576C88.1406 55.6025 88.9727 56.4345 89.9991 56.4345Z" fill="#231F20"/>
<path d="M74.9655 72.1125C74.7813 72.2367 74.5835 72.3394 74.376 72.4185C74.1354 72.5137 73.887 72.5875 73.6335 72.639C73.3369 72.6961 73.0355 72.7247 72.7335 72.7245C72.2747 72.7318 71.818 72.6602 71.3835 72.513C71.0112 72.3871 70.6694 72.1848 70.38 71.919C70.1037 71.6571 69.8885 71.3375 69.75 70.983C69.6002 70.5925 69.5254 70.1772 69.5295 69.759C69.5265 69.2092 69.6288 68.6638 69.831 68.1525C70.0199 67.6648 70.3043 67.2198 70.6674 66.8434C71.0306 66.4671 71.4653 66.1671 71.946 65.961C72.9532 65.5529 74.0764 65.5353 75.096 65.9115C75.4821 66.0515 75.8302 66.2796 76.113 66.5775L74.5875 68.1525C74.476 67.9888 74.3198 67.8607 74.1375 67.7835C73.9372 67.7034 73.7231 67.6636 73.5075 67.6665C73.2812 67.6634 73.0575 67.7143 72.855 67.815C72.6612 67.9105 72.4896 68.0454 72.351 68.211C72.2105 68.3854 72.1023 68.5835 72.0315 68.796C71.9545 69.0235 71.9164 69.2623 71.919 69.5025C71.9096 69.6638 71.9355 69.8253 71.9947 69.9757C72.0539 70.1261 72.1451 70.2618 72.2619 70.3735C72.3787 70.4852 72.5184 70.5702 72.6713 70.6226C72.8242 70.675 72.9867 70.6935 73.1475 70.677C73.3807 70.6781 73.6112 70.6274 73.8225 70.5285C74.0188 70.4336 74.1994 70.3092 74.358 70.1595L75.438 71.766C75.2879 71.8912 75.13 72.007 74.9655 72.1125Z" fill="#FF651D"/>
<path d="M76.5 72.5354L77.6835 65.8304H79.8885L79.0335 70.6499H81.2835L80.9505 72.5264L76.5 72.5354Z" fill="#FF651D"/>
<path d="M85.5361 72.702C85.0515 72.711 84.5689 72.6364 84.1096 72.4815C83.7225 72.3472 83.3682 72.1325 83.0701 71.8515C82.7901 71.5804 82.5721 71.2519 82.4311 70.8885C82.2832 70.4945 82.21 70.0763 82.2151 69.6555C82.2098 69.1209 82.3092 68.5905 82.5076 68.094C82.6948 67.6153 82.9783 67.1802 83.3406 66.8156C83.7028 66.451 84.1361 66.1648 84.6136 65.9745C85.6074 65.5879 86.7041 65.5561 87.7186 65.8845C88.107 66.016 88.4618 66.231 88.7581 66.5145C89.0406 66.7835 89.259 67.1126 89.3971 67.4775C89.5486 67.8707 89.6234 68.2892 89.6176 68.7105C89.6198 69.2444 89.5222 69.774 89.3296 70.272C89.1437 70.7463 88.8636 71.178 88.5061 71.541C88.1369 71.9081 87.6977 72.1973 87.2146 72.3915C86.6811 72.605 86.1106 72.7106 85.5361 72.702ZM87.3361 68.868C87.337 68.7055 87.3096 68.5441 87.2551 68.391C87.2035 68.2468 87.1222 68.1149 87.0166 68.004C86.9083 67.8896 86.7762 67.8005 86.6296 67.743C86.462 67.6773 86.2831 67.6452 86.1031 67.6485C85.8716 67.6462 85.643 67.7002 85.4371 67.806C85.2414 67.9063 85.0683 68.0456 84.9286 68.2155C84.7899 68.3927 84.6819 68.592 84.6091 68.805C84.5343 69.0206 84.4963 69.2473 84.4966 69.4755C84.4952 69.638 84.5227 69.7995 84.5776 69.9525C84.6268 70.0982 84.7066 70.2317 84.8116 70.344C84.9213 70.4556 85.0531 70.543 85.1986 70.6005C85.3694 70.6662 85.5512 70.6982 85.7341 70.695C85.9647 70.6987 86.1929 70.6478 86.4001 70.5465C86.5923 70.4448 86.7622 70.3056 86.8996 70.137C87.0413 69.9627 87.151 69.7646 87.2236 69.552C87.2989 69.3256 87.3369 69.0886 87.3361 68.85V68.868Z" fill="#FF651D"/>
<path d="M94.9948 67.8284C94.8798 67.6965 94.7368 67.592 94.5763 67.5224C94.3898 67.4382 94.1868 67.3966 93.9823 67.4009C93.8145 67.3991 93.649 67.4393 93.5008 67.5179C93.4351 67.5482 93.38 67.5973 93.3423 67.659C93.3046 67.7207 93.2862 67.7922 93.2893 67.8644C93.2885 67.9258 93.305 67.9862 93.3368 68.0387C93.3686 68.0912 93.4145 68.1337 93.4693 68.1614C93.6381 68.2487 93.8143 68.321 93.9958 68.3774C94.2631 68.4616 94.5222 68.5701 94.7698 68.7014C94.9818 68.8092 95.176 68.9489 95.3458 69.1154C95.5013 69.27 95.6251 69.4534 95.7103 69.6554C95.7977 69.8711 95.8406 70.1022 95.8363 70.3349C95.8476 70.7218 95.7493 71.104 95.5528 71.4374C95.3704 71.7337 95.1245 71.9858 94.8328 72.1754C94.5358 72.3667 94.2087 72.5067 93.8653 72.5894C93.5288 72.6774 93.1826 72.7227 92.8348 72.7244C92.5678 72.7243 92.3014 72.7017 92.0383 72.6569C91.7803 72.6136 91.526 72.5504 91.2777 72.4679C91.0399 72.3877 90.8095 72.2868 90.5892 72.1664C90.387 72.0536 90.1996 71.916 90.0312 71.7569L91.5297 70.3754C91.6095 70.4675 91.702 70.5478 91.8042 70.6139C91.911 70.6816 92.024 70.7388 92.1418 70.7849C92.2557 70.8327 92.373 70.8718 92.4928 70.9019C92.602 70.9274 92.7136 70.941 92.8258 70.9424C93.0089 70.9502 93.1912 70.9132 93.3568 70.8344C93.4167 70.8054 93.4671 70.76 93.5021 70.7034C93.5372 70.6469 93.5554 70.5815 93.5548 70.5149C93.5529 70.4551 93.5368 70.3965 93.5078 70.3441C93.4789 70.2917 93.4379 70.2469 93.3883 70.2134C93.1988 70.0865 92.9887 69.9936 92.7673 69.9389C92.5361 69.8668 92.3105 69.7781 92.0922 69.6734C91.8911 69.5818 91.7058 69.4588 91.5432 69.3089C91.3883 69.1661 91.2643 68.993 91.1787 68.8004C91.0832 68.5711 91.0372 68.3242 91.0438 68.0759C91.0416 67.7431 91.1146 67.4141 91.2571 67.1134C91.3997 66.8127 91.6083 66.5479 91.8672 66.3389C92.1435 66.1096 92.4613 65.9354 92.8033 65.8259C93.1895 65.6996 93.5939 65.6373 94.0003 65.6414C94.2386 65.6421 94.4765 65.6632 94.7113 65.7044C94.9365 65.7411 95.1579 65.7984 95.3728 65.8754C95.572 65.9436 95.7648 66.0295 95.9488 66.1319C96.1136 66.2249 96.265 66.34 96.3988 66.4739L94.9948 67.8284Z" fill="#FF651D"/>
<path d="M96.9844 72.5354L98.1679 65.8304H102.551L102.227 67.6574H99.9004L99.7834 68.3009H102.002L101.696 70.0064H99.4819L99.3604 70.7039H101.952L101.633 72.5354H96.9844Z" fill="#FF651D"/>
<path d="M104.49 65.8304H107.262C107.648 65.8322 108.033 65.8852 108.405 65.9879C108.776 66.0872 109.126 66.2551 109.436 66.4829C109.751 66.7226 110.007 67.0303 110.187 67.3829C110.396 67.7902 110.499 68.2439 110.484 68.7014C110.492 69.2497 110.386 69.7936 110.174 70.2989C109.981 70.7604 109.689 71.1738 109.319 71.5094C108.941 71.8477 108.501 72.1091 108.023 72.2789C107.499 72.4628 106.948 72.5541 106.394 72.5489H103.307L104.49 65.8304ZM105.75 70.6499H106.461C106.718 70.6553 106.973 70.6046 107.208 70.5014C107.412 70.4095 107.596 70.2779 107.748 70.1144C107.892 69.9532 108.002 69.765 108.072 69.5609C108.144 69.3556 108.18 69.1395 108.18 68.9219C108.182 68.7572 108.157 68.5932 108.108 68.4359C108.059 68.2891 107.978 68.1552 107.87 68.0444C107.754 67.9263 107.614 67.8343 107.46 67.7744C107.27 67.7062 107.068 67.6727 106.866 67.6754H106.281L105.75 70.6499Z" fill="#FF651D"/>
<path d="M39.4102 116.132H54.8047L53.1172 93.7981H37.7227L39.4102 116.132Z" fill="#231F20"/>
<path d="M34.4395 116.132H49.834L53.119 93.7981H37.7245L34.4395 116.132Z" fill="white"/>
<path d="M49.8335 116.339H34.439C34.4097 116.339 34.3808 116.332 34.3544 116.32C34.3279 116.307 34.3046 116.289 34.286 116.267C34.2662 116.245 34.2516 116.219 34.243 116.191C34.2345 116.163 34.2322 116.134 34.2365 116.105L37.5215 93.7665C37.5271 93.7172 37.551 93.6718 37.5885 93.6393C37.626 93.6068 37.6744 93.5896 37.724 93.591H53.1005C53.1296 93.5916 53.1583 93.5983 53.1846 93.6107C53.211 93.6231 53.2345 93.6409 53.2535 93.663C53.2732 93.6847 53.2878 93.7105 53.2964 93.7385C53.305 93.7665 53.3072 93.796 53.303 93.825L50.018 116.163C50.0119 116.209 49.9903 116.251 49.9567 116.283C49.9232 116.315 49.8797 116.335 49.8335 116.339ZM34.6775 115.929H49.6535L52.88 94.0005H37.904L34.6775 115.929Z" fill="#231F20"/>
<path d="M47.5609 113.454H36.9004C36.868 113.453 36.8362 113.445 36.807 113.431C36.7778 113.417 36.7517 113.397 36.7306 113.373C36.7094 113.348 36.6936 113.32 36.6841 113.289C36.6746 113.258 36.6717 113.225 36.6754 113.193L39.3754 95.9355C39.383 95.8826 39.4096 95.8343 39.4501 95.7995C39.4907 95.7648 39.5425 95.7459 39.5959 95.7465H50.3959C50.4281 95.7468 50.46 95.7537 50.4894 95.7669C50.5188 95.78 50.5452 95.7991 50.5669 95.823C50.5872 95.8488 50.602 95.8784 50.6105 95.9102C50.619 95.9419 50.621 95.975 50.6164 96.0075L47.7454 113.265C47.7385 113.312 47.7169 113.355 47.6838 113.389C47.6507 113.423 47.6077 113.446 47.5609 113.454ZM37.1794 113.004H47.3674L50.1664 96.1965H39.8164L37.1794 113.004Z" fill="#D1D3D4"/>
<path d="M47.7485 100.251H41.1605C41.1009 100.251 41.0436 100.227 41.0014 100.185C40.9593 100.143 40.9355 100.086 40.9355 100.026C40.9355 99.9664 40.9593 99.9091 41.0014 99.8669C41.0436 99.8247 41.1009 99.801 41.1605 99.801H47.7485C47.8082 99.801 47.8655 99.8247 47.9076 99.8669C47.9498 99.9091 47.9735 99.9664 47.9735 100.026C47.9724 100.085 47.9483 100.142 47.9064 100.184C47.8644 100.226 47.8079 100.25 47.7485 100.251Z" fill="#D1D3D4"/>
<path d="M46.4677 102.847H40.7797C40.7204 102.846 40.6638 102.822 40.6219 102.78C40.5799 102.738 40.5558 102.682 40.5547 102.622C40.5547 102.563 40.5784 102.506 40.6206 102.463C40.6628 102.421 40.72 102.397 40.7797 102.397H46.4677C46.5274 102.397 46.5846 102.421 46.6268 102.463C46.669 102.506 46.6927 102.563 46.6927 102.622C46.6927 102.682 46.669 102.739 46.6268 102.782C46.5846 102.824 46.5274 102.847 46.4677 102.847Z" fill="#D1D3D4"/>
<path d="M46.9849 105.633H40.3969C40.3372 105.633 40.28 105.609 40.2378 105.567C40.1956 105.525 40.1719 105.468 40.1719 105.408C40.1719 105.348 40.1956 105.291 40.2378 105.249C40.28 105.207 40.3372 105.183 40.3969 105.183H46.9849C47.0446 105.183 47.1018 105.207 47.144 105.249C47.1862 105.291 47.2099 105.348 47.2099 105.408C47.2099 105.468 47.1862 105.525 47.144 105.567C47.1018 105.609 47.0446 105.633 46.9849 105.633Z" fill="#D1D3D4"/>
<path d="M45.7066 108.23H40.0141C39.9544 108.23 39.8972 108.206 39.855 108.164C39.8128 108.121 39.7891 108.064 39.7891 108.005C39.7902 107.945 39.8143 107.889 39.8562 107.847C39.8982 107.805 39.9547 107.781 40.0141 107.78H45.7066C45.7659 107.781 45.8224 107.805 45.8644 107.847C45.9063 107.889 45.9304 107.945 45.9316 108.005C45.9316 108.064 45.9079 108.121 45.8657 108.164C45.8235 108.206 45.7662 108.23 45.7066 108.23Z" fill="#D1D3D4"/>
<path d="M129.532 74.781C129.486 74.7803 129.441 74.7658 129.404 74.7393C129.366 74.7128 129.337 74.6756 129.321 74.6325C127.843 70.1898 127.35 65.4788 127.876 60.8265C127.885 60.7668 127.917 60.7131 127.966 60.6772C128.015 60.6414 128.075 60.6263 128.135 60.6352C128.195 60.6442 128.248 60.6764 128.284 60.725C128.32 60.7735 128.335 60.8343 128.326 60.894C127.81 65.4738 128.297 70.1112 129.753 74.484C129.772 74.5407 129.767 74.6025 129.741 74.6563C129.715 74.7101 129.669 74.7516 129.613 74.772L129.532 74.781Z" fill="#D1D3D4"/>
<path d="M124.755 81.2655C124.72 81.2659 124.685 81.2579 124.654 81.2422C124.622 81.2266 124.595 81.2037 124.575 81.1755C124.507 81.0855 118.009 72.027 119.247 51.3585C119.246 51.3283 119.252 51.2984 119.265 51.2708C119.277 51.2432 119.295 51.2186 119.318 51.1985C119.34 51.1785 119.367 51.1635 119.396 51.1546C119.425 51.1457 119.455 51.1431 119.485 51.147C119.515 51.1481 119.544 51.1552 119.571 51.168C119.598 51.1807 119.622 51.1988 119.642 51.221C119.662 51.2433 119.677 51.2694 119.686 51.2977C119.695 51.3259 119.699 51.3558 119.697 51.3855C119.053 62.091 120.516 69.5475 121.852 73.9215C123.301 78.6555 124.917 80.8875 124.935 80.91C124.969 80.9581 124.984 81.0178 124.975 81.0766C124.967 81.1353 124.936 81.1885 124.89 81.225C124.849 81.2513 124.803 81.2654 124.755 81.2655Z" fill="#D1D3D4"/>
<path d="M50.9807 75.3076H50.9492C50.8898 75.2986 50.8362 75.2668 50.8001 75.2188C50.7639 75.1709 50.7479 75.1106 50.7557 75.0511C52.8752 60.1111 49.0727 50.7916 49.0322 50.6971C49.0116 50.6427 49.0128 50.5824 49.0357 50.5289C49.0585 50.4754 49.1012 50.4329 49.1548 50.4102C49.2083 50.3875 49.2686 50.3864 49.3229 50.4072C49.3772 50.4279 49.4214 50.4689 49.4462 50.5216C49.4867 50.6161 53.3387 60.0436 51.2012 75.1141C51.1937 75.1674 51.1673 75.2162 51.1268 75.2517C51.0863 75.2872 51.0345 75.307 50.9807 75.3076Z" fill="#D1D3D4"/>
<path d="M68.2111 58.5314C68.1748 58.5317 68.1391 58.5224 68.1076 58.5044C68.0811 58.4907 68.0577 58.4718 68.0386 58.449C68.0195 58.4261 68.0051 58.3997 67.9963 58.3712C67.9876 58.3427 67.9845 58.3128 67.9874 58.2831C67.9902 58.2535 67.999 58.2247 68.0131 58.1984C70.2631 53.9864 70.2631 50.769 70.2631 50.7375C70.2631 50.6778 70.2868 50.6205 70.329 50.5784C70.3712 50.5362 70.4284 50.5125 70.4881 50.5125C70.5477 50.5125 70.605 50.5362 70.6472 50.5784C70.6894 50.6205 70.7131 50.6778 70.7131 50.7375C70.7131 50.8725 70.6906 54.0899 68.3911 58.4099C68.3737 58.4437 68.3482 58.4726 68.3167 58.4938C68.2852 58.5151 68.2489 58.528 68.2111 58.5314Z" fill="#D1D3D4"/>
<path d="M51.8983 82.2735C51.8483 82.2732 51.7996 82.2575 51.7588 82.2285C51.7131 82.1899 51.6839 82.1353 51.6773 82.0759C51.6706 82.0165 51.6869 81.9568 51.7228 81.909C51.7993 81.8145 59.2243 72.2835 58.2298 57.753C58.2256 57.6933 58.2453 57.6345 58.2846 57.5893C58.3238 57.5442 58.3794 57.5164 58.4391 57.5123C58.4987 57.5081 58.5576 57.5278 58.6028 57.567C58.6479 57.6063 58.6756 57.6618 58.6798 57.7215C59.6878 72.4365 52.1548 82.0935 52.0783 82.1925C52.056 82.2183 52.0284 82.2389 51.9973 82.2529C51.9662 82.2669 51.9324 82.2739 51.8983 82.2735Z" fill="#D1D3D4"/>
</svg>
